<?xml version="1.0" encoding="utf-8"?>
<!-- Generator: Adobe Illustrator 23.0.1, SVG Export Plug-In . SVG Version: 6.00 Build 0)  -->
<svg version="1.1" id="Warstwa_1" xmlns="http://www.w3.org/2000/svg" xmlns:xlink="http://www.w3.org/1999/xlink" x="0px" y="0px"
	 viewBox="0 0 7680 924" style="enable-background:new 0 0 7680 924;" xml:space="preserve">
<style type="text/css">
	.st0{fill:#7AAF71;}
	.st1{fill:#BADBB4;}
</style>
<path class="st0" d="M7680,924c-2730.67,0-4949.34,0.01-7680.01,0.01c0.01-139.39,0-72.35,0-211.72
	c5.48-4.79,41.73-7.53,53.91-13.68c0,0,35.74-6.32,46.06-17.94c34.73-3.71,40.13-7.96,129.94,15.78
	c124.44,34.13,210.32-20.82,293.42,48.34c34.66,53.64,230.1,91.37,336.06,43.01c105.96-48.36,206.22-22.76,308.62,21.33
	s122.31-34.13,216.18-37.69c218.5-8.29,223.55-264.72,331.92-276.98c121.62-13.75,207.77,155.29,392.52,231.87
	c57.64,23.89,106.19,31.16,169.55,40.65c28.3,4.24,45.79,4.88,65.16,0.15c31.46-7.68,59.22-20.54,59.22-20.54
	c5.15-2.38,12.9-6.17,24.26-8.65c2.95-0.64,15.49-2.46,31.48-1.83c38.39,1.53,71.17,17.92,178.33,40.54
	c78.99,16.67,118.48,25.01,157.16,25.55c93.51,1.3,118.82-25.62,219.87-30.19c14.63-0.66,63.72-2.34,152.52,12.39
	c257.71,42.75,322.86,45.88,482.18,53.18c223.55,10.25,328.35-162.41,538.31-129.42c248.89,39.11,183.47,165.69,349.16,189.87
	s416.21-30.76,502.76-74.67c98.13-49.78,198.4-123.02,344.89-110.22c268.55,23.47,280.18,160.71,559.64,157.87
	c279.47-2.84,565.33-68.98,633.6-115.2s178.49-135.11,383.29-52.62s314.31,160,452.98,144.36c95.1-10.73,61.16-7.62,267.03-85.6"/>
<path class="st1" d="M7680,924.01c-2730.67,0-4949.34,0.01-7680.01,0.01c0.01-126.83,0-13.69,0-140.5c0.01-9.29,0-49.81,0-61.81
	c-0.01-4.52,3.78-8.32,38.17-10.97c70.32-6.84,39.74-32.77,179.1,0c125.61,29.54,230.19-31.48,314.29,52.2
	c34.66,53.64,231.11,100.27,337.07,51.91c105.96-48.36,206.22-22.76,308.62,21.33c9.93,4.28,34.41,13.45,67.22,12.92
	c48.77-0.79,75.82-23.49,123.25-47.26c97.46-48.84,110.43-16.71,165.68-56.52c49.95-35.99,39.27-62.18,109.16-139.35
	c50.31-55.55,75.47-83.33,103.74-89.81c98.12-22.49,163.59,151.18,341.42,235.74c102.18,48.59,203.91,49.9,274.06,43.35
	c50.29-10.98,46.72-14.66,81.29-21.68c158.41-32.18,214.18,48.9,395.33,44.77c77.94-1.78,90.57-17.32,200.8-17.67
	c0,0,75.72-0.24,151.74,9.29c228.38,28.64,302.06,44.31,466.64,54.66c221.53,13.93,325.73-162.82,538.31-129.42
	c248.89,39.11,183.47,165.69,349.16,189.87s416.21-30.76,502.76-74.67c98.13-49.78,198.4-123.02,344.89-110.22
	c268.55,23.47,280.18,160.71,559.64,157.87c279.47-2.84,565.33-68.98,633.6-115.2s178.49-135.11,383.29-52.62
	s314.31,160,452.98,144.36c22.82-2.57,41.59-5.65,59.78-9.91c139.68-32.72,169.51-50.17,198.01-65.47"/>
</svg>
