<?xml version="1.0" encoding="utf-8"?>
<!-- Generator: Adobe Illustrator 23.0.1, SVG Export Plug-In . SVG Version: 6.00 Build 0)  -->
<svg version="1.1" id="Warstwa_1" xmlns="http://www.w3.org/2000/svg" xmlns:xlink="http://www.w3.org/1999/xlink" x="0px" y="0px"
	 viewBox="0 0 1467.87 1251.87" style="enable-background:new 0 0 1467.87 1251.87;" xml:space="preserve">
<style type="text/css">
	.st0{clip-path:url(#SVGID_2_);}
	.st1{opacity:0.4;clip-path:url(#SVGID_4_);}
	.st2{clip-path:url(#SVGID_6_);fill:#CECBC8;}
	.st3{clip-path:url(#SVGID_4_);fill:#524251;}
	.st4{clip-path:url(#SVGID_4_);fill:#FFFFFF;}
	.st5{opacity:0.3;clip-path:url(#SVGID_4_);}
	.st6{clip-path:url(#SVGID_8_);fill:#FF6B6B;}
	.st7{clip-path:url(#SVGID_10_);fill:#A989E3;}
	.st8{clip-path:url(#SVGID_4_);fill:#B3A6B3;}
	.st9{clip-path:url(#SVGID_4_);fill:#FF6B6B;}
	.st10{clip-path:url(#SVGID_12_);fill:#FF6B6B;}
	.st11{clip-path:url(#SVGID_14_);fill:#FF6B6B;}
	.st12{clip-path:url(#SVGID_4_);fill:#FF9C9C;}
	.st13{clip-path:url(#SVGID_4_);fill:#A989E3;}
	.st14{clip-path:url(#SVGID_4_);fill:#665265;}
	.st15{clip-path:url(#SVGID_16_);fill:#1F995A;}
	.st16{clip-path:url(#SVGID_4_);fill:#1F995A;}
	
		.st17{clip-path:url(#SVGID_4_);fill:#67BF5A;stroke:#67BF5A;stroke-width:6.337;stroke-linecap:round;stroke-linejoin:round;stroke-miterlimit:10;}
	.st18{clip-path:url(#SVGID_18_);fill:#FF6B6B;}
	.st19{clip-path:url(#SVGID_20_);fill:#FF6B6B;}
	.st20{clip-path:url(#SVGID_4_);fill:#99B2DD;}
	.st21{clip-path:url(#SVGID_22_);fill:#FF6B6B;}
	.st22{clip-path:url(#SVGID_4_);fill:#302842;}
	.st23{clip-path:url(#SVGID_4_);fill:#FF9B6B;}
	.st24{clip-path:url(#SVGID_4_);fill:#D6987A;}
	.st25{clip-path:url(#SVGID_4_);fill:#534370;}
	.st26{clip-path:url(#SVGID_4_);fill:#FFB18B;}
	.st27{clip-path:url(#SVGID_4_);fill:#FAD1BE;}
	.st28{clip-path:url(#SVGID_4_);fill:#290830;}
	.st29{clip-path:url(#SVGID_4_);fill:#FF9169;}
	.st30{clip-path:url(#SVGID_4_);fill:#45385E;}
	.st31{clip-path:url(#SVGID_4_);fill:#FFEAE0;}
	.st32{clip-path:url(#SVGID_4_);fill:#5D4D80;}
	.st33{clip-path:url(#SVGID_4_);fill:#382E4D;}
	.st34{clip-path:url(#SVGID_4_);fill:#4E406B;}
	.st35{clip-path:url(#SVGID_4_);fill:#876D86;}
</style>
<g>
	<defs>
		<rect id="SVGID_1_" x="-400.97" y="-187.48" width="2340" height="1560"/>
	</defs>
	<clipPath id="SVGID_2_">
		<use xlink:href="#SVGID_1_"  style="overflow:visible;"/>
	</clipPath>
	<g class="st0">
		<defs>
			<rect id="SVGID_3_" x="-400.97" y="-187.48" width="2340" height="1560"/>
		</defs>
		<clipPath id="SVGID_4_">
			<use xlink:href="#SVGID_3_"  style="overflow:visible;"/>
		</clipPath>
		<g class="st1">
			<g>
				<defs>
					<rect id="SVGID_5_" x="102.81" y="1135.26" width="1355.84" height="89.19"/>
				</defs>
				<clipPath id="SVGID_6_">
					<use xlink:href="#SVGID_5_"  style="overflow:visible;"/>
				</clipPath>
				<path class="st2" d="M1428.96,1135.26h-336.51c-8.57,0-16.3,3.83-21.72,9.96H962.05c-3.96-1.44-8.2-2.23-12.63-2.23H630.84
					c-4.42,0-8.67,0.79-12.63,2.23H490.74c-5.42-6.12-13.14-9.96-21.72-9.96H132.51c-16.4,0-29.7,14.01-29.7,31.29
					c0,17.28,13.29,31.28,29.7,31.28h188.9c5.42,6.12,13.14,9.96,21.72,9.96h256.53c7.04,10.1,18.38,16.66,31.18,16.66h318.58
					c12.8,0,24.15-6.56,31.18-16.66h237.74c8.58,0,16.3-3.83,21.72-9.96h188.9c16.4,0,29.69-14.01,29.69-31.28
					C1458.65,1149.27,1445.36,1135.26,1428.96,1135.26"/>
			</g>
		</g>
		<path class="st3" d="M627.6,15.95v1151.76c0,6.71-5.44,12.14-12.14,12.14c-6.71,0-12.14-5.44-12.14-12.14V15.95
			c0-5.95,4.82-10.77,10.77-10.77h2.75C622.78,5.18,627.6,10,627.6,15.95"/>
		<path class="st3" d="M626.26,549.25l-248.1,610.02c-2.52,6.21-9.6,9.21-15.82,6.68c-6.21-2.52-9.2-9.6-6.68-15.82l248.1-610.02
			c2.52-6.21,9.6-9.2,15.82-6.68v0C625.79,535.96,628.79,543.04,626.26,549.25"/>
		<path class="st3" d="M604.21,549.25l248.1,610.02c2.52,6.21,9.61,9.21,15.82,6.68c6.21-2.52,9.21-9.6,6.68-15.82l-248.1-610.02
			c-2.52-6.21-9.6-9.2-15.82-6.68v0C604.68,535.96,601.69,543.04,604.21,549.25"/>
		<rect x="97.79" y="67.97" class="st4" width="1035.34" height="798.9"/>
		<g class="st5">
			<g>
				<defs>
					<rect id="SVGID_7_" x="794.83" y="475.24" width="267.5" height="116.85"/>
				</defs>
				<clipPath id="SVGID_8_">
					<use xlink:href="#SVGID_7_"  style="overflow:visible;"/>
				</clipPath>
				<path class="st6" d="M1047.78,487.36h-203.7l-11.59-11.58c-1.14-1.14-3.09-0.33-3.09,1.28v10.3h-20.02
					c-8.04,0-14.55,6.52-14.55,14.55v75.63c0,8.04,6.52,14.55,14.55,14.55h238.4c8.04,0,14.55-6.52,14.55-14.55v-75.63
					C1062.33,493.87,1055.82,487.36,1047.78,487.36"/>
			</g>
		</g>
		<path class="st4" d="M1005.68,513.49H815.17c-2.72,0-4.93-2.21-4.93-4.93s2.21-4.93,4.93-4.93h190.51c2.72,0,4.93,2.21,4.93,4.93
			S1008.4,513.49,1005.68,513.49"/>
		<path class="st4" d="M979.59,557.02H815.17c-2.72,0-4.93-2.21-4.93-4.93s2.21-4.93,4.93-4.93h164.42c2.72,0,4.93,2.21,4.93,4.93
			S982.31,557.02,979.59,557.02"/>
		<path class="st4" d="M889.4,578.78h-74.23c-2.72,0-4.93-2.21-4.93-4.93c0-2.72,2.21-4.93,4.93-4.93h74.23
			c2.72,0,4.93,2.21,4.93,4.93C894.34,576.57,892.13,578.78,889.4,578.78"/>
		<path class="st4" d="M908.55,535.25h-93.38c-2.72,0-4.93-2.21-4.93-4.93s2.21-4.93,4.93-4.93h93.38c2.72,0,4.93,2.21,4.93,4.93
			S911.27,535.25,908.55,535.25"/>
		<path class="st4" d="M967.53,535.25h-39.2c-2.72,0-4.93-2.21-4.93-4.93s2.21-4.93,4.93-4.93h39.2c2.72,0,4.93,2.21,4.93,4.93
			S970.25,535.25,967.53,535.25"/>
		<g class="st5">
			<g>
				<defs>
					<rect id="SVGID_9_" x="794.83" y="611" width="267.5" height="116.86"/>
				</defs>
				<clipPath id="SVGID_10_">
					<use xlink:href="#SVGID_9_"  style="overflow:visible;"/>
				</clipPath>
				<path class="st7" d="M1047.78,623.12h-203.7l-11.59-11.58c-1.14-1.14-3.09-0.33-3.09,1.28v10.3h-20.02
					c-8.04,0-14.55,6.52-14.55,14.55v75.63c0,8.04,6.52,14.55,14.55,14.55h238.4c8.04,0,14.55-6.52,14.55-14.55v-75.63
					C1062.33,629.63,1055.82,623.12,1047.78,623.12"/>
			</g>
		</g>
		<path class="st4" d="M1005.68,649.25H815.17c-2.72,0-4.93-2.21-4.93-4.93c0-2.72,2.21-4.93,4.93-4.93h190.51
			c2.72,0,4.93,2.21,4.93,4.93C1010.61,647.05,1008.4,649.25,1005.68,649.25"/>
		<path class="st4" d="M979.59,692.77H815.17c-2.72,0-4.93-2.21-4.93-4.93c0-2.72,2.21-4.93,4.93-4.93h164.42
			c2.72,0,4.93,2.21,4.93,4.93C984.52,690.57,982.31,692.77,979.59,692.77"/>
		<path class="st4" d="M889.4,714.54h-74.23c-2.72,0-4.93-2.21-4.93-4.93c0-2.72,2.21-4.93,4.93-4.93h74.23
			c2.72,0,4.93,2.21,4.93,4.93C894.34,712.33,892.13,714.54,889.4,714.54"/>
		<path class="st4" d="M908.55,671.01h-93.38c-2.72,0-4.93-2.21-4.93-4.93c0-2.72,2.21-4.93,4.93-4.93h93.38
			c2.72,0,4.93,2.21,4.93,4.93C913.48,668.81,911.27,671.01,908.55,671.01"/>
		<path class="st4" d="M967.53,671.01h-39.2c-2.72,0-4.93-2.21-4.93-4.93c0-2.72,2.21-4.93,4.93-4.93h39.2
			c2.72,0,4.93,2.21,4.93,4.93C972.46,668.81,970.25,671.01,967.53,671.01"/>
		<path class="st8" d="M980.52,170.81H800.28c-2.11,0-3.82-1.71-3.82-3.82v-2.16c0-2.11,1.71-3.82,3.82-3.82h180.24
			c2.11,0,3.82,1.71,3.82,3.82v2.16C984.34,169.1,982.63,170.81,980.52,170.81"/>
		<path class="st8" d="M974.17,280.51H826.58c-2.11,0-3.82-1.71-3.82-3.82v-2.16c0-2.11,1.71-3.82,3.82-3.82h147.59
			c2.11,0,3.82,1.71,3.82,3.82v2.16C977.99,278.8,976.28,280.51,974.17,280.51"/>
		<path class="st8" d="M800.28,280.51h2.98c2.11,0,3.82-1.71,3.82-3.82v-2.16c0-2.11-1.71-3.82-3.82-3.82h-2.98
			c-2.11,0-3.82,1.71-3.82,3.82v2.16C796.45,278.8,798.17,280.51,800.28,280.51"/>
		<path class="st8" d="M974.17,317.75H826.58c-2.11,0-3.82-1.71-3.82-3.82v-2.16c0-2.11,1.71-3.82,3.82-3.82h147.59
			c2.11,0,3.82,1.71,3.82,3.82v2.16C977.99,316.04,976.28,317.75,974.17,317.75"/>
		<path class="st8" d="M800.28,317.76h2.98c2.11,0,3.82-1.71,3.82-3.82v-2.16c0-2.11-1.71-3.82-3.82-3.82h-2.98
			c-2.11,0-3.82,1.71-3.82,3.82v2.16C796.45,316.04,798.17,317.76,800.28,317.76"/>
		<path class="st8" d="M974.17,355H826.58c-2.11,0-3.82-1.71-3.82-3.82v-2.16c0-2.11,1.71-3.82,3.82-3.82h147.59
			c2.11,0,3.82,1.71,3.82,3.82v2.16C977.99,353.29,976.28,355,974.17,355"/>
		<path class="st8" d="M800.28,355h2.98c2.11,0,3.82-1.71,3.82-3.82v-2.16c0-2.11-1.71-3.82-3.82-3.82h-2.98
			c-2.11,0-3.82,1.71-3.82,3.82v2.16C796.45,353.29,798.17,355,800.28,355"/>
		<rect x="796.45" y="190.39" class="st9" width="67.09" height="57.65"/>
		<g class="st5">
			<g>
				<defs>
					<rect id="SVGID_11_" x="883.02" y="190.39" width="67.1" height="57.66"/>
				</defs>
				<clipPath id="SVGID_12_">
					<use xlink:href="#SVGID_11_"  style="overflow:visible;"/>
				</clipPath>
				<rect x="883.03" y="190.39" class="st10" width="67.09" height="57.65"/>
			</g>
		</g>
		<g class="st5">
			<g>
				<defs>
					<rect id="SVGID_13_" x="796.45" y="386.37" width="57.36" height="57.36"/>
				</defs>
				<clipPath id="SVGID_14_">
					<use xlink:href="#SVGID_13_"  style="overflow:visible;"/>
				</clipPath>
				<path class="st11" d="M853.81,415.05c0,15.84-12.84,28.68-28.68,28.68c-15.84,0-28.68-12.84-28.68-28.68
					c0-15.84,12.84-28.68,28.68-28.68C840.97,386.37,853.81,399.21,853.81,415.05"/>
			</g>
		</g>
		<path class="st12" d="M924.2,415.05c0,15.84-12.84,28.68-28.68,28.68c-15.84,0-28.68-12.84-28.68-28.68
			c0-15.84,12.84-28.68,28.68-28.68C911.36,386.37,924.2,399.21,924.2,415.05"/>
		<path class="st13" d="M994.59,415.05c0,15.84-12.84,28.68-28.68,28.68c-15.84,0-28.68-12.84-28.68-28.68
			c0-15.84,12.84-28.68,28.68-28.68C981.75,386.37,994.59,399.21,994.59,415.05"/>
		<path class="st14" d="M1140.16,80.11H90.76c-5.95,0-10.77-4.82-10.77-10.77V66.6c0-5.95,4.82-10.77,10.77-10.77h1049.4
			c5.95,0,10.77,4.82,10.77,10.77v2.75C1150.93,75.29,1146.1,80.11,1140.16,80.11"/>
		<path class="st14" d="M1140.16,879.02H90.76c-5.95,0-10.77-4.82-10.77-10.77v-2.75c0-5.95,4.82-10.77,10.77-10.77h1049.4
			c5.95,0,10.77,4.82,10.77,10.77v2.75C1150.93,874.2,1146.1,879.02,1140.16,879.02"/>
		<g class="st5">
			<g>
				<defs>
					<rect id="SVGID_15_" x="148.51" y="266.56" width="539.96" height="333.03"/>
				</defs>
				<clipPath id="SVGID_16_">
					<use xlink:href="#SVGID_15_"  style="overflow:visible;"/>
				</clipPath>
				<polygon class="st15" points="688.46,266.55 506.73,414.68 415.73,393.67 301.62,501.44 207.73,474.26 148.51,528.62 
					148.51,599.58 688.46,599.58 				"/>
			</g>
		</g>
		<path class="st16" d="M221.14,474.02c0,7.47-6.06,13.52-13.52,13.52s-13.52-6.05-13.52-13.52c0-7.47,6.05-13.52,13.52-13.52
			S221.14,466.55,221.14,474.02"/>
		<path class="st16" d="M314.88,501.07c0,7.47-6.06,13.52-13.52,13.52s-13.52-6.05-13.52-13.52c0-7.47,6.05-13.52,13.52-13.52
			S314.88,493.6,314.88,501.07"/>
		<path class="st16" d="M428.54,394.08c0,7.47-6.06,13.52-13.52,13.52c-7.47,0-13.52-6.05-13.52-13.52
			c0-7.47,6.05-13.52,13.52-13.52C422.49,380.56,428.54,386.61,428.54,394.08"/>
		<path class="st16" d="M520.53,414.59c0,7.47-6.06,13.52-13.52,13.52c-7.47,0-13.52-6.05-13.52-13.52
			c0-7.47,6.05-13.52,13.52-13.52C514.48,401.06,520.53,407.12,520.53,414.59"/>
		<path class="st16" d="M148.51,532.74c-1.11,0-2.22-0.45-3.04-1.33c-1.54-1.68-1.43-4.28,0.25-5.82l59.22-54.36
			c1.06-0.97,2.55-1.32,3.93-0.92l91.63,26.53l112.4-106.16c1-0.95,2.41-1.33,3.76-1.02l89.03,20.56l180.16-146.85
			c1.77-1.44,4.36-1.17,5.8,0.59c1.44,1.76,1.17,4.36-0.59,5.8L509.34,417.88c-0.99,0.8-2.29,1.11-3.53,0.82l-88.85-20.52
			L304.45,504.44c-1.06,1-2.57,1.37-3.97,0.96l-91.67-26.54l-57.52,52.79C150.5,532.38,149.5,532.74,148.51,532.74"/>
		<path class="st16" d="M700.83,266.55c0,7.47-6.06,13.52-13.52,13.52s-13.52-6.05-13.52-13.52c0-7.47,6.06-13.52,13.52-13.52
			S700.83,259.09,700.83,266.55"/>
		
			<ellipse transform="matrix(0.9239 -0.3827 0.3827 0.9239 -49.6881 283.3099)" class="st17" cx="687.3" cy="266.55" rx="13.52" ry="13.52"/>
		<g class="st5">
			<g>
				<defs>
					<rect id="SVGID_17_" x="148.51" y="648" width="146.31" height="146.31"/>
				</defs>
				<clipPath id="SVGID_18_">
					<use xlink:href="#SVGID_17_"  style="overflow:visible;"/>
				</clipPath>
				<path class="st18" d="M294.82,721.16c0,40.4-32.75,73.16-73.16,73.16c-40.4,0-73.16-32.75-73.16-73.16
					c0-40.4,32.75-73.16,73.16-73.16C262.07,648,294.82,680.75,294.82,721.16"/>
			</g>
		</g>
		<path class="st12" d="M221.66,648v73.16h73.16C294.82,680.75,262.07,648,221.66,648"/>
		<path class="st13" d="M253.38,787.1c24.52-11.81,41.44-36.9,41.44-65.94h-73.16L253.38,787.1z"/>
		<g class="st5">
			<g>
				<defs>
					<rect id="SVGID_19_" x="345.33" y="648" width="146.31" height="146.31"/>
				</defs>
				<clipPath id="SVGID_20_">
					<use xlink:href="#SVGID_19_"  style="overflow:visible;"/>
				</clipPath>
				<path class="st19" d="M470.21,669.43c28.57,28.57,28.57,74.89,0,103.46c-28.57,28.57-74.89,28.57-103.46,0
					c-28.57-28.57-28.57-74.89,0-103.46C395.32,640.86,441.64,640.86,470.21,669.43"/>
			</g>
		</g>
		<path class="st12" d="M366.75,669.43l51.73,51.73l51.73-51.73C441.64,640.86,395.32,640.86,366.75,669.43"/>
		<path class="st13" d="M487.54,745.36c8.98-25.69,3.21-55.4-17.33-75.93l-51.73,51.73L487.54,745.36z"/>
		<path class="st20" d="M349.75,696.11l68.74,25.05l-44.73-57.87c-2.43,1.88-4.78,3.91-7,6.14
			C358.95,677.24,353.29,686.38,349.75,696.11"/>
		<g class="st5">
			<g>
				<defs>
					<rect id="SVGID_21_" x="542.13" y="647.98" width="146.35" height="146.35"/>
				</defs>
				<clipPath id="SVGID_22_">
					<use xlink:href="#SVGID_21_"  style="overflow:visible;"/>
				</clipPath>
				<path class="st21" d="M589.7,652.63c37.85-14.14,79.99,5.08,94.13,42.93c14.14,37.85-5.08,79.99-42.93,94.13
					c-37.85,14.14-79.99-5.08-94.13-42.93C532.63,708.91,551.85,666.77,589.7,652.63"/>
			</g>
		</g>
		<path class="st12" d="M546.77,746.76l68.53-25.6l-25.6-68.53C551.85,666.77,532.63,708.91,546.77,746.76"/>
		<path class="st13" d="M665.98,668.37c-19.65-18.83-49.07-25.9-76.28-15.74l25.6,68.53L665.98,668.37z"/>
		<path class="st20" d="M629.62,649.42l-14.32,71.74l55.02-48.22C659.66,660.77,645.28,652.56,629.62,649.42"/>
		<path class="st8" d="M545.96,184.67H163.57c-5.47,0-9.9-4.43-9.9-9.9s4.43-9.9,9.9-9.9h382.39c5.47,0,9.9,4.43,9.9,9.9
			S551.43,184.67,545.96,184.67"/>
		<path class="st8" d="M351,228.35H163.57c-5.47,0-9.9-4.43-9.9-9.9s4.43-9.9,9.9-9.9H351c5.47,0,9.9,4.43,9.9,9.9
			S356.47,228.35,351,228.35"/>
		<path class="st8" d="M469.38,228.35h-78.68c-5.47,0-9.9-4.43-9.9-9.9s4.43-9.9,9.9-9.9h78.68c5.47,0,9.9,4.43,9.9,9.9
			S474.84,228.35,469.38,228.35"/>
		<path class="st22" d="M1149.65,705.54c-1.82,0-3.65-0.11-5.48-0.35c-12.69-1.62-23.91-8.74-30.77-19.54l-62.38-98.18
			c-7.54-11.87-4.04-27.61,7.84-35.16c11.87-7.54,27.61-4.03,35.16,7.84l56.91,89.57l72.86-74.88c9.81-10.08,25.93-10.3,36.02-0.49
			c10.08,9.81,10.3,25.93,0.49,36.02l-80.55,82.79c-0.29,0.29-0.58,0.58-0.88,0.86C1170.86,701.48,1160.44,705.54,1149.65,705.54"/>
		<path class="st23" d="M1041.74,574.69h-38.67l-17.74-49.57c-1.24-3.46,0.33-7.29,3.63-8.9l19.81-9.63l43.54,2.95l28.01,42.42
			L1041.74,574.69z"/>
		<path class="st24" d="M1032.56,601.68L1032.56,601.68c-2.53,0.75-5.18-0.71-5.9-3.23L900.47,160.69c-0.25-0.85,0.24-1.75,1.1-2
			c0.85-0.25,1.75,0.23,2.01,1.08l132.18,435.98C1036.52,598.27,1035.08,600.93,1032.56,601.68"/>
		<polygon class="st25" points="1024.07,589.46 1033.04,586.8 1012.56,519.26 1004.52,521.64 		"/>
		<polygon class="st25" points="999.42,503.95 1007.22,501.64 1001.81,483.79 994.25,486.03 		"/>
		<path class="st26" d="M1085.61,546.28l-13.01-24.06c-2.02-3.73-4.83-6.97-8.24-9.49l-11.29-8.34c-3.79-2.8-8.23-4.59-12.91-5.2
			l-14.4-1.88l-17.61-7.62c-2.16-0.94-4.47,0.99-3.93,3.29l0.3,1.27c1.02,4.32,3.69,8.07,7.43,10.46l9.69,6.19
			c1.21,0.77,2.53,1.35,3.91,1.73l12.63,3.43l0.71,14.61c0.55,11.47,6.22,22.1,15.44,28.95l11.74,8.72L1085.61,546.28z"/>
		<path class="st26" d="M1018.65,578.53h-14.59c-4.61,0-8.61-3.21-9.59-7.72l-9.4-43.03c-0.98-4.49,2.44-8.73,7.03-8.73h26.55
			c5.42,0,9.82,4.4,9.82,9.82v39.85C1028.47,574.14,1024.07,578.53,1018.65,578.53"/>
		<rect x="1347.45" y="1135.11" class="st27" width="44.33" height="20.76"/>
		<path class="st14" d="M1390.04,1140.63h6.64l56.87,10.42c2.62,0.48,4.52,2.76,4.52,5.43v7.75h-112.19v-15.22
			C1365.64,1148.58,1382.32,1145.26,1390.04,1140.63"/>
		<rect x="1345.85" y="835.42" class="st22" width="50.94" height="305.21"/>
		<path class="st22" d="M1458.07,1164.23v7.16c0,1.32-1.07,2.39-2.39,2.39h-63.44c-1.32,0-2.39-1.07-2.39-2.39s-1.07-2.39-2.39-2.39
			h-9.63c-1.32,0-2.39,1.07-2.39,2.39s-1.07,2.39-2.39,2.39h-24.8c-1.32,0-2.39-1.07-2.39-2.39v-7.16H1458.07z"/>
		<rect x="1240.42" y="1135.11" class="st27" width="44.33" height="20.76"/>
		<path class="st14" d="M1242.16,1140.63h-6.64l-56.87,10.42c-2.62,0.48-4.52,2.76-4.52,5.43v7.75h112.19v-15.22
			C1266.57,1148.58,1249.88,1145.26,1242.16,1140.63"/>
		<path class="st22" d="M1360.2,888.7h-80.17c-20.26,0-36.68-16.42-36.68-36.68v-49.76c0-20.26,16.42-36.68,36.68-36.68h80.17
			c20.26,0,36.68,16.42,36.68,36.68v49.76C1396.88,872.28,1380.46,888.7,1360.2,888.7"/>
		<rect x="1235.41" y="835.42" class="st22" width="50.94" height="305.21"/>
		<path class="st23" d="M1309.84,642.65h-4.59c-14.31,0-25.92-11.6-25.92-25.92v-83.8h56.42v83.8
			C1335.76,631.04,1324.16,642.65,1309.84,642.65"/>
		<polygon class="st27" points="1268.92,602.2 1296.88,689.7 1318.58,599.1 1296.88,582.07 		"/>
		<polygon class="st22" points="1307.55,616.13 1288.17,616.13 1283.83,604.13 1283.83,582.07 1313.24,582.07 1313.24,604.93 		"/>
		<polygon class="st22" points="1288.17,616.13 1264.78,768.92 1296.88,796.11 1327.69,768.33 1307.55,616.13 		"/>
		<path class="st14" d="M1213.12,446.4v-70.16c0-12.83,15.41-30.77,15.41-30.77c0.49-3.59-13.56-16.6-6.31-26.91
			c3.21-3.14,17.02,17.49,30.75,16.6c2.51-4.49-9.24-23.77,0-32.75c5.2-1.35,27.18,28.71,52.75,28.71
			c25.57,0,65.04-2.69,83.88,24.22c3.59,6.28,2.24,15.25,4.49,23.33c1.79,4.93,17.05,4.04,17.94,30.5
			c0.9,26.47-11.65,38.09-10.77,53.9s-6.28,43.89-19.29,45.69c-13.01,1.79-29.91,0-29.91,0L1213.12,446.4z"/>
		<path class="st23" d="M1216.05,486.88h12.47v-47.62h-12.47c-10.13,0-18.34,8.21-18.34,18.34v10.95
			C1197.71,478.67,1205.92,486.88,1216.05,486.88"/>
		<path class="st26" d="M1308.38,544.61h-35.89c-26.38,0-47.77-21.39-47.77-47.77V390.23h147.62v90.41
			C1372.35,515.97,1343.71,544.61,1308.38,544.61"/>
		<path class="st26" d="M1387,486.88h-19.49v-47.62H1387c10.13,0,18.34,8.21,18.34,18.34v10.95
			C1405.34,478.67,1397.13,486.88,1387,486.88"/>
		<path class="st28" d="M1265.51,449.58c0,4.9-3.97,8.87-8.87,8.87c-4.9,0-8.87-3.97-8.87-8.87c0-4.9,3.97-8.87,8.87-8.87
			C1261.54,440.71,1265.51,444.68,1265.51,449.58"/>
		<path class="st28" d="M1329.99,449.58c0,4.9-3.97,8.87-8.87,8.87c-4.9,0-8.87-3.97-8.87-8.87c0-4.9,3.97-8.87,8.87-8.87
			C1326.02,440.71,1329.99,444.68,1329.99,449.58"/>
		<path class="st9" d="M1291.11,514.65h-3.54c-11.14,0-20.17-3.64-20.17-8.13v-9.04h43.89v9.04
			C1311.29,511.01,1302.25,514.65,1291.11,514.65"/>
		<path class="st14" d="M1261.29,432.76h-9.29c-2.33,0-4.23-1.89-4.23-4.23v-2.48c0-2.33,1.89-4.22,4.23-4.22h9.29
			c2.33,0,4.23,1.89,4.23,4.22v2.48C1265.51,430.87,1263.62,432.76,1261.29,432.76"/>
		<path class="st14" d="M1328.19,432.76h-11.4c-2.51,0-4.54-2.03-4.54-4.54v-1.85c0-2.51,2.03-4.54,4.54-4.54h11.4
			c2.51,0,4.54,2.03,4.54,4.54v1.85C1332.73,430.73,1330.69,432.76,1328.19,432.76"/>
		<path class="st29" d="M1288.1,474.17h-0.1c-5.49,0-9.94-4.45-9.94-9.94v-9.67c0-5.49,4.45-9.93,9.94-9.93h0.1
			c5.49,0,9.93,4.45,9.93,9.93v9.67C1298.03,469.73,1293.59,474.17,1288.1,474.17"/>
		<path class="st14" d="M1224.73,439.26c0,0,5.7-14.27,5.7-23.57c0-9.31-11.65-23.49,48.91-23.49c60.56,0,76.07,10.64,77.84,20.39
			c1.77,9.75-8.86,8.59-4.43,26.68c4.43,18.08,10.84,28.17,19.6,28.17c8.76,0,14.07-53.51,14.07-53.51l-5.76-37.67h-160.43
			l-3.55,53.68L1224.73,439.26z"/>
		<path class="st30" d="M1358.49,556.21l37.81,12.36c11.34,3.71,18.88,14.44,18.51,26.37l-7.55,246.85c0,5.14-4.17,9.31-9.31,9.31
			h-79.82c-11.73,0-21.23-9.51-21.23-21.24V689.7l21.69-90.6L1358.49,556.21z"/>
		<polygon class="st25" points="1361.1,556.93 1372.23,606.32 1351.88,611.3 1368.64,623.73 1296.88,689.7 1318.58,594.32 
			1354.47,553.9 		"/>
		<path class="st30" d="M1252.96,564.68l-12.38,2.21c-7.09,1.27-13.38,5.58-16.68,11.98c-1.89,3.67-2.93,7.79-2.93,12.07
			l1.24,250.84c0,5.14,4.17,9.31,9.31,9.31h44.12c11.73,0,21.23-9.51,21.23-21.23V689.7l-27.97-87.5L1252.96,564.68z"/>
		<polygon class="st25" points="1246.95,565.75 1233.33,610.3 1252.96,613.91 1236.12,626.94 1296.88,689.7 1268.92,602.2 
			1252.96,564.68 		"/>
		<polygon class="st31" points="1335.76,543.16 1358.49,556.21 1324.89,613.91 1296.88,582.07 		"/>
		<polygon class="st31" points="1279.34,546.7 1252.96,564.68 1263.28,613.91 1296.88,582.07 		"/>
		<path class="st23" d="M1028.47,562.7l-27.92,0.09c-1.41,0-2.55,1.15-2.55,2.56c0.01,1.41,1.15,2.55,2.56,2.55l27.9-0.09V562.7z"/>
		<path class="st23" d="M1028.47,545.68l-31.36,0.1c-1.41,0-2.55,1.15-2.55,2.56c0.01,1.41,1.15,2.55,2.56,2.55l31.35-0.1V545.68z"
			/>
		<path class="st23" d="M1028.47,534.81v-5.11l-33.06,0.08c-1.41,0.01-2.55,1.15-2.55,2.56c0,1.41,1.15,2.55,2.56,2.55
			L1028.47,534.81z"/>
		
			<rect x="1045.56" y="558.1" transform="matrix(0.8379 -0.5458 0.5458 0.8379 -138.9587 677.7455)" class="st27" width="52.06" height="29.46"/>
		<path class="st32" d="M1053.13,584.85c1.59,2.45,4.98,3.07,7.56,1.39c2.58-1.68,3.38-5.03,1.79-7.47
			c-1.59-2.45-4.98-3.07-7.56-1.39C1052.34,579.06,1051.54,582.41,1053.13,584.85"/>
		<path class="st22" d="M1174.13,1164.23v7.16c0,1.32,1.07,2.39,2.39,2.39h63.44c1.32,0,2.39-1.07,2.39-2.39s1.07-2.39,2.39-2.39
			h9.63c1.32,0,2.39,1.07,2.39,2.39s1.07,2.39,2.39,2.39h24.8c1.32,0,2.39-1.07,2.39-2.39v-7.16H1174.13z"/>
		<path class="st22" d="M1214.66,1152.71c0.13,0.74,0.78,1.25,1.5,1.25c0.09,0,0.18-0.01,0.28-0.03c0.83-0.15,1.38-0.95,1.23-1.78
			l-1.46-7.99l-3.01,0.55L1214.66,1152.71z"/>
		<path class="st22" d="M1224.57,1151.72c0.13,0.74,0.78,1.25,1.5,1.25c0.09,0,0.18-0.01,0.28-0.02c0.83-0.15,1.38-0.95,1.23-1.78
			l-1.6-8.79l-3.01,0.55L1224.57,1151.72z"/>
		<path class="st22" d="M1416.95,1152.71c-0.13,0.74-0.78,1.25-1.5,1.25c-0.09,0-0.18-0.01-0.28-0.03
			c-0.83-0.15-1.38-0.95-1.23-1.78l1.46-7.99l3.01,0.55L1416.95,1152.71z"/>
		<path class="st22" d="M1407.03,1151.72c-0.14,0.74-0.78,1.25-1.5,1.25c-0.09,0-0.18-0.01-0.28-0.02
			c-0.83-0.15-1.38-0.95-1.23-1.78l1.6-8.79l3.01,0.55L1407.03,1151.72z"/>
		<path class="st32" d="M1293.75,715.28c0,4,3.24,7.24,7.24,7.24c4,0,7.24-3.24,7.24-7.24c0-4-3.24-7.24-7.24-7.24
			C1296.99,708.03,1293.75,711.28,1293.75,715.28"/>
		<path class="st32" d="M1293.75,798.03c0,4,3.24,7.24,7.24,7.24c4,0,7.24-3.24,7.24-7.24c0-4-3.24-7.24-7.24-7.24
			C1296.99,790.78,1293.75,794.02,1293.75,798.03"/>
		<rect x="1344.84" y="769.59" class="st33" width="47.75" height="9.56"/>
		<rect x="1227.73" y="769.59" class="st33" width="31.09" height="9.56"/>
		<path class="st34" d="M1385.16,819.11h-32.9c-4.1,0-7.43-3.32-7.43-7.42v-32.53h47.75v32.53
			C1392.59,815.79,1389.27,819.11,1385.16,819.11"/>
		<path class="st34" d="M1252.83,819.11h-19.1c-3.31,0-5.99-2.68-5.99-5.99v-33.97h31.09v33.97
			C1258.82,816.43,1256.14,819.11,1252.83,819.11"/>
		<path class="st35" d="M1368.14,380.25h0.63c6.72,0,12.22-5.5,12.22-12.23v-0.63c0-6.72-5.5-12.23-12.22-12.23h-0.63
			c-6.73,0-12.23,5.5-12.23,12.23v0.63C1355.92,374.75,1361.42,380.25,1368.14,380.25"/>
		<path class="st35" d="M1341.4,360.73h0.28c2.98,0,5.42-2.44,5.42-5.42v-0.28c0-2.98-2.44-5.42-5.42-5.42h-0.28
			c-2.98,0-5.42,2.44-5.42,5.42v0.28C1335.97,358.29,1338.42,360.73,1341.4,360.73"/>
		<path class="st34" d="M1418.09,846.87c-9.1-2.09-15.49-10.63-14.63-20.19l2.73-30.59c3.91-43.77,6.98-88.54-2.78-131.38
			l-14.83-65.07c-2.33-10.22,4.07-20.4,14.29-22.73c10.22-2.33,20.4,4.07,22.73,14.29l14.83,65.07
			c10.65,46.72,13.89,94.61,9.62,142.34l-2.73,30.59c-0.93,10.45-16.2,19.02-26.64,18.09
			C1419.79,847.2,1418.93,847.06,1418.09,846.87"/>
		<polygon class="st23" points="1402.66,832.66 1385.72,842.93 1383.33,857.67 1387.2,871.48 1395.47,876.98 		"/>
		<path class="st26" d="M1407.78,830.82l-5.11,1.84l-6.42,33.84l-1.32,7.13c-0.46,2.47,0.02,5.02,1.34,7.15l0.54,0.87
			c1.89,3.06,5.25,4.9,8.85,4.82l28.06-0.63c3.96-0.09,7.5-2.47,9.07-6.11l3.8-8.78l2.5-21.17l-2.17-12.61L1407.78,830.82z"/>
		<path class="st23" d="M1405.73,874.71l-2.05,11.62c0.64,0.11,1.3,0.16,1.97,0.15l2.02-0.05l1.95-11.04
			c0.19-1.07-0.53-2.1-1.6-2.29C1406.94,872.92,1405.92,873.63,1405.73,874.71"/>
		<path class="st23" d="M1418.67,876.99l-1.63,9.23l4.02-0.09l1.49-8.46c0.19-1.07-0.53-2.1-1.6-2.29
			C1419.88,875.2,1418.86,875.91,1418.67,876.99"/>
		<path class="st23" d="M1431.14,877.37l-1.51,8.57l4.02-0.09l1.37-7.79c0.19-1.07-0.53-2.1-1.6-2.28
			C1432.36,875.58,1431.33,876.3,1431.14,877.37"/>
		<polygon class="st31" points="1450.86,814.4 1404.6,808.6 1401.67,833.78 1447.94,839.58 		"/>
		<path class="st22" d="M1445.66,826.7c0.35-2.49-1.12-4.77-3.28-5.09c-2.16-0.33-4.2,1.43-4.55,3.92
			c-0.35,2.49,1.12,4.77,3.28,5.09S1445.31,829.18,1445.66,826.7"/>
	</g>
</g>
</svg>
