<?xml version="1.0" encoding="utf-8"?>
<!-- Generator: Adobe Illustrator 23.0.1, SVG Export Plug-In . SVG Version: 6.00 Build 0)  -->
<svg version="1.1" xmlns="http://www.w3.org/2000/svg" xmlns:xlink="http://www.w3.org/1999/xlink" x="0px" y="0px"
	 viewBox="0 0 2095.01 1004.8" style="enable-background:new 0 0 2095.01 1004.8;" xml:space="preserve">
<style type="text/css">
	.st0{fill:#917171;}
	.st1{fill:#7EBC69;}
	.st2{opacity:0.43;}
	.st3{fill:#B0BEC5;}
	.st4{fill:#90A4AE;}
	.st5{fill:#E7EFF2;}
	.st6{fill:#D1E0E5;}
	.st7{fill:#CFD8DC;}
	.st8{fill:#FBFFFF;}
	.st9{fill:#A6C658;}
	.st10{fill:#BAC9CE;}
	.st11{fill:#F0FCFF;}
	.st12{fill:#9E7A7A;}
	.st13{fill:#88CC75;}
	.st14{fill:#E1F7FF;}
	.st15{fill:#7C7C7C;}
	.st16{fill:#AED366;}
	.st17{fill:#9FC445;}
	.st18{fill:#7C5D5D;}
	.st19{fill:#F7A96D;}
	.st20{opacity:0.12;}
	.st21{fill:#FCC68B;}
	.st22{fill:#725757;}
	.st23{fill:#8E7272;}
	.st24{fill:#D17B5D;}
	.st25{fill:#F4B678;}
	.st26{fill:#E2906D;}
	.st27{fill:#4E9FA8;}
	.st28{fill:#FFD8BB;}
	.st29{fill:#FFF2E9;}
	.st30{fill:#448D99;}
	.st31{fill:#F49067;}
	.st32{fill:#F9AC78;}
	.st33{fill:#FFD5AB;}
	.st34{fill:#5EB3B7;}
	.st35{fill:#3D838E;}
	.st36{fill:#58B5BC;}
	.st37{fill:#72C5CE;}
	.st38{fill:#604545;}
	.st39{fill:#E26B54;}
	.st40{fill:#FF9173;}
	.st41{fill:#FFA894;}
	.st42{fill:#A5786F;}
	.st43{fill:#93645D;}
	.st44{fill:#6B5151;}
	.st45{fill:#FFBFB6;}
	.st46{fill:#FFDDD9;}
	.st47{fill:#EDC69F;}
	.st48{fill:#CE9B72;}
	.st49{fill:#FFE4CA;}
	.st50{fill:#6D5252;}
	.st51{fill:#C19481;}
	.st52{fill:#D8AA88;}
	.st53{fill:#E2BC9A;}
	.st54{fill:#E2B991;}
	.st55{fill:#997A7A;}
	.st56{fill:#DDDBDB;}
	.st57{fill:#F5F5F5;}
	.st58{fill:#B2877F;}
	.st59{fill:#A8837E;}
	.st60{fill:#79B264;}
	.st61{fill-rule:evenodd;clip-rule:evenodd;fill:#FF6A4D;}
	.st62{fill-rule:evenodd;clip-rule:evenodd;fill:#ED5F4C;}
	.st63{fill-rule:evenodd;clip-rule:evenodd;fill:#686868;}
	.st64{fill-rule:evenodd;clip-rule:evenodd;fill:#565555;}
	.st65{fill-rule:evenodd;clip-rule:evenodd;fill:#A7B7D9;}
	.st66{fill-rule:evenodd;clip-rule:evenodd;fill:#DAE9EF;}
	.st67{fill-rule:evenodd;clip-rule:evenodd;fill:#CE3E30;}
	.st68{fill-rule:evenodd;clip-rule:evenodd;fill:#FFF5E1;}
	.st69{fill-rule:evenodd;clip-rule:evenodd;fill:#A2D9F7;}
	.st70{fill:#F9E7E1;}
	.st71{fill:#FFFCFA;}
	.st72{fill:#BAA89B;}
	.st73{fill:#A6E1FF;}
	.st74{fill:#6EC1F4;}
	.st75{fill:#C2EBFF;}
	.st76{fill:#FFFFFF;}
	.st77{fill:#4C4C4C;}
	.st78{fill:#E3FEFF;}
	.st79{fill:#FF7950;}
	.st80{fill:#332F2B;}
	.st81{fill:#96CEEA;}
	.st82{fill:#F7A859;}
	.st83{fill:#4ABC78;}
	.st84{fill:#FFCE61;}
	.st85{fill:#E2E2E2;}
	.st86{fill:#3A9B61;}
	.st87{fill:#E29149;}
	.st88{fill:#8DC963;}
	.st89{fill:#7FBF4C;}
	.st90{fill:#9AB73E;}
	.st91{fill:#7F6262;}
	.st92{fill:#FCDFCD;}
	.st93{fill:#FFF4E6;}
	.st94{opacity:0.09;}
	.st95{fill:#8E7676;}
	.st96{fill:#9E8585;}
	.st97{fill:#C95647;}
	.st98{fill:#755D5D;}
	.st99{fill:#EAB9A4;}
	.st100{fill:#D39E8C;}
	.st101{fill:#8C6E69;}
	.st102{fill:#66A6F2;}
	.st103{fill:#FCC29A;}
	.st104{fill:#639AEA;}
	.st105{fill:#FFC9A4;}
	.st106{fill:#FF6A4D;}
	.st107{fill:#B29090;}
	.st108{fill:#87CBF4;}
	.st109{fill:#626977;}
	.st110{fill:#6091D8;}
	.st111{fill:#ABE9FF;}
	.st112{fill:#846863;}
</style>
<g id="background">
</g>
<g id="illustration">
	<g>
		<g>
			<path class="st0" d="M1781.91,662.18c-3.15-59.4-2.88-53.74-2.88-55.69l-0.04,0.68l-0.04-0.68c0,1.95,0.27-3.7-2.88,55.69
				H1781.91z"/>
			<path class="st1" d="M1792.77,583.81c0,0-9.7-27.4-13.63-27.4c-4.52,0.19-14.28,27.13-18.62,44.91l11.2,4.2l-12.07-0.42
				c-0.81,3.78-1.28,6.92-1.28,8.96c0,11.48,9.3,20.79,20.77,20.82h0.05c11.5,0,20.82-9.32,20.82-20.82
				C1800,608.73,1796.79,595.97,1792.77,583.81z"/>
		</g>
		<g>
			<path class="st0" d="M1909.27,662.18c-2.48-46.85-2.27-42.39-2.27-43.93l-0.03,0.54l-0.03-0.54c0,1.54,0.21-2.92-2.27,43.93
				H1909.27z"/>
			<path class="st1" d="M1917.83,600.37c0,0-7.65-21.61-10.75-21.61c-3.56,0.15-11.26,21.4-14.69,35.42l8.83,3.31l-9.52-0.33
				c-0.64,2.98-1.01,5.46-1.01,7.07c0,9.06,7.33,16.4,16.38,16.42h0.04c9.07,0,16.42-7.35,16.42-16.42
				C1923.53,620.02,1921,609.96,1917.83,600.37z"/>
		</g>
		<g>
			<path class="st0" d="M197.74,662.18c-2.48-46.85-2.27-42.39-2.27-43.93l-0.03,0.54l-0.03-0.54c0,1.54,0.21-2.92-2.27,43.93
				H197.74z"/>
			<path class="st1" d="M206.31,600.37c0,0-7.65-21.61-10.75-21.61c-3.56,0.15-11.26,21.4-14.69,35.42l8.83,3.31l-9.52-0.33
				c-0.64,2.98-1.01,5.46-1.01,7.07c0,9.06,7.33,16.4,16.38,16.42h0.04c9.07,0,16.42-7.35,16.42-16.42
				C212.01,620.02,209.48,609.96,206.31,600.37z"/>
		</g>
		<g>
			<path class="st0" d="M1641.21,662.18c-3.15-59.4-2.88-53.74-2.88-55.69l-0.04,0.68l-0.04-0.68c0,1.95,0.27-3.7-2.88,55.69
				H1641.21z"/>
			<path class="st1" d="M1652.07,583.81c0,0-9.7-27.4-13.63-27.4c-4.52,0.19-14.28,27.13-18.62,44.91l11.2,4.2l-12.07-0.42
				c-0.81,3.78-1.28,6.92-1.28,8.96c0,11.48,9.3,20.79,20.77,20.82h0.05c11.5,0,20.82-9.32,20.82-20.82
				C1659.3,608.73,1656.09,595.97,1652.07,583.81z"/>
		</g>
		<g class="st2">
			<g>
				<polygon class="st3" points="1307.23,314.12 1107.57,677.6 1472.97,677.6 				"/>
				<polygon class="st4" points="1107.57,677.6 1305.37,676.29 1291.22,551.44 1270.01,523.86 1306.3,315.56 				"/>
				<polygon class="st5" points="1320.22,419.05 1366.18,442.54 1307.23,314.12 1267.4,430.44 1284.86,437.59 				"/>
				<polygon class="st6" points="1247.27,422.26 1284.86,437.59 1306.3,315.56 				"/>
			</g>
			<g>
				<polygon class="st3" points="778.38,333.64 591.6,673.68 965.17,673.68 				"/>
				<polygon class="st4" points="591.6,673.68 764.77,672.46 759.42,513.1 740.35,497.04 777.51,334.99 				"/>
				<polygon class="st5" points="798.69,421.19 839.29,442.76 778.38,333.64 756.82,419.92 779.65,431.34 				"/>
				<polygon class="st6" points="722.29,434.81 756.82,419.92 777.51,334.99 				"/>
			</g>
			<g>
				<polygon class="st3" points="1021.99,195.26 790.25,677.6 1301.97,677.6 1141.18,379.31 1122.63,375.45 				"/>
				<polygon class="st4" points="737.68,677.6 872.18,675.86 912.38,520 955.67,476.71 1020.75,197.17 901.56,414.87 869.09,433.42 
									"/>
				<polygon class="st7" points="1141.18,379.31 1122.63,375.45 1079.35,297.89 1096.35,463.57 1100.99,523.6 1179.8,677.6 
					1301.97,677.6 				"/>
				<polygon class="st5" points="1021.99,195.26 957.21,313.61 995.81,304.28 1083.98,346.85 1100.71,336.2 				"/>
				<polygon class="st8" points="1083.98,346.85 1100.72,336.19 1079.35,297.89 				"/>
				<polygon class="st6" points="960.48,307.25 957.21,313.61 995.81,304.28 1020.75,197.17 				"/>
			</g>
			<g>
				<polygon class="st3" points="1457.54,416.45 1421.01,493.51 1409.33,520.07 1319.79,677.6 1585.15,677.6 1511.56,523.59 
					1500.54,514.76 				"/>
				<polygon class="st4" points="1357.32,578.74 1288.42,603.34 1249.78,677.6 1391.99,677.6 1414.66,586.74 1453.77,539 
					1457.54,416.45 				"/>
			</g>
			<g>
				<polygon class="st3" points="634,462.73 600.08,558.54 519.7,677.6 756.82,677.6 743.02,619.86 706.54,584.46 686.74,526.3 				
					"/>
				<polygon class="st4" points="584.26,568.78 532.33,623.62 514.66,677.6 587.68,677.6 587.68,619.56 624.83,574.21 634,462.73 
									"/>
			</g>
		</g>
		<path class="st9" d="M1924.58,662.42H175.22c-20.13,0-36.45,16.32-36.45,36.45l0,0h1822.26l0,0
			C1961.03,678.74,1944.71,662.42,1924.58,662.42z"/>
		<g>
			<polygon class="st10" points="291.24,486.48 268.09,449.51 252.64,424.84 239.51,420.94 240.4,418.02 235.63,412.9 
				239.18,401.31 239.18,401.31 260.7,330.95 260.7,330.95 260.7,330.95 255.51,334.01 234.19,374.19 234.19,374.19 221.43,398.26 
				224.65,411.7 221.84,412.35 219.87,418.8 219.78,419.06 136.32,438.32 141.57,441.29 187.02,439.65 187.02,439.65 214.25,438.67 
				224.08,429.36 220.38,662.14 238.59,662.14 234.94,432.05 241.12,438.68 241.12,438.68 272.31,472.14 291.3,492.5 291.3,492.5 
				291.3,492.5 			"/>
			<polygon class="st10" points="520.02,366.28 424.9,347.89 409.18,357.14 409,356.82 409,356.82 407.15,353.62 397.83,353.62 
				385.63,332.5 340.75,254.75 340.75,254.75 340.75,254.75 340.18,257.32 339.02,262.59 358.81,319.86 358.81,319.86 
				370.66,354.16 386.68,363.23 384.76,366.55 389.43,374.66 353.98,436.07 332.38,473.47 332.38,473.47 332.38,473.47 
				340.03,471.05 379.73,425.28 379.73,425.28 391.99,411.15 387.56,661.7 411.81,661.7 406.82,379.49 407.15,379.49 411.65,371.69 
				427.92,371.69 525.94,371.69 525.94,371.69 			"/>
		</g>
		<g>
			<polygon class="st10" points="1802.35,487.12 1825.5,450.15 1840.95,425.48 1854.08,421.59 1853.19,418.67 1857.96,413.55 
				1854.41,401.96 1854.41,401.96 1832.89,331.59 1832.89,331.59 1832.89,331.59 1838.08,334.65 1859.4,374.84 1859.4,374.84 
				1872.16,398.9 1868.94,412.34 1871.75,412.99 1873.73,419.44 1873.81,419.71 1957.27,438.97 1952.02,441.93 1906.57,440.3 
				1906.57,440.3 1879.34,439.32 1869.51,430 1873.21,662.79 1855,662.79 1858.65,432.7 1852.47,439.32 1852.47,439.32 
				1821.28,472.78 1802.29,493.14 1802.29,493.14 1802.29,493.14 			"/>
			<polygon class="st10" points="1570.92,366.92 1666.04,348.54 1681.76,357.79 1681.94,357.47 1681.94,357.47 1683.79,354.27 
				1693.11,354.27 1705.31,333.14 1750.2,255.4 1750.2,255.4 1750.2,255.4 1750.76,257.97 1751.93,263.23 1732.14,320.5 
				1732.14,320.5 1720.29,354.8 1704.27,363.87 1706.19,367.2 1701.51,375.3 1736.97,436.71 1758.56,474.11 1758.56,474.11 
				1758.56,474.11 1750.91,471.7 1711.21,425.92 1711.21,425.92 1698.95,411.8 1703.38,662.35 1679.13,662.35 1684.12,380.13 
				1683.79,380.13 1679.29,372.34 1663.02,372.34 1565,372.34 1565,372.34 			"/>
		</g>
		<path class="st11" d="M1604.88,311.95c0.29-1.59,0.45-3.23,0.45-4.9c0-15.01-12.17-27.19-27.19-27.19
			c-10.32,0-19.29,5.75-23.89,14.21c-4.32-4.49-10.38-7.28-17.09-7.28c-3.96,0-7.69,0.97-10.97,2.69
			c-5.14-9.38-15.1-15.75-26.55-15.75c-2.48,0-4.9,0.31-7.21,0.87c-4.27-14.38-17.58-24.88-33.35-24.88
			c-17.73,0-32.34,13.26-34.5,30.4c-1.22-0.17-2.47-0.26-3.73-0.26c-15.01,0-27.19,12.17-27.19,27.19c0,1.67,0.16,3.31,0.45,4.9
			H1604.88z"/>
		<g>
			<path class="st12" d="M348.95,662.18c-3.08-58.05-2.82-52.53-2.82-54.43l-0.04,0.67l-0.04-0.67c0,1.91,0.26-3.62-2.82,54.43
				H348.95z"/>
			<path class="st13" d="M359.56,585.58l-10.77,0.87l9.26-5.3c-1.28-3.63-7.97-22.35-11.81-22.35c-4.41,0.19-13.96,26.52-18.2,43.89
				l10.94,4.1l-11.79-0.41c-0.79,3.69-1.25,6.76-1.25,8.75c0,11.22,9.09,20.32,20.3,20.35h0.05c11.24,0,20.35-9.11,20.35-20.35
				C366.63,609.94,363.49,597.47,359.56,585.58z"/>
		</g>
		<g>
			<path class="st12" d="M1808.46,662.18c-3.38-63.76-3.09-57.69-3.09-59.78l-0.04,0.73l-0.04-0.73c0,2.09,0.29-3.98-3.09,59.78
				H1808.46z"/>
			<path class="st13" d="M1820.11,578.05l-11.83,0.95l10.17-5.82c-1.41-3.99-8.75-24.55-12.97-24.55
				c-4.85,0.21-15.33,29.13-19.99,48.21l12.02,4.51l-12.95-0.45c-0.87,4.06-1.37,7.43-1.37,9.62c0,12.33,9.98,22.32,22.29,22.35
				h0.05c12.34,0,22.35-10,22.35-22.35C1827.88,604.81,1824.44,591.11,1820.11,578.05z"/>
		</g>
		<g>
			<path class="st12" d="M294.19,662.18c-3.33-62.87-3.05-56.88-3.05-58.95l-0.04,0.72l-0.04-0.72c0,2.06,0.28-3.92-3.05,58.95
				H294.19z"/>
			<path class="st13" d="M305.68,579.23l-11.67,0.94l10.03-5.74c-1.39-3.93-8.63-24.2-12.79-24.2c-4.78,0.2-15.12,28.72-19.71,47.53
				l11.85,4.44l-12.77-0.44c-0.86,4-1.35,7.32-1.35,9.48c0,12.15,9.84,22.01,21.98,22.03h0.05c12.17,0,22.03-9.86,22.03-22.03
				C313.33,605.61,309.94,592.11,305.68,579.23z"/>
		</g>
		<path class="st11" d="M152.53,343.67c-13.67,0-24.75,11.08-24.75,24.75h49.5C177.28,354.75,166.2,343.67,152.53,343.67z"/>
		<path class="st11" d="M1945.19,351.34c-13.67,0-24.75,11.08-24.75,24.75h49.5C1969.94,362.42,1958.86,351.34,1945.19,351.34z"/>
		<path class="st11" d="M504.14,216.73c-6.13,0-11.69,2.35-15.9,6.17c-5.88-9.52-16.37-15.88-28.38-15.88
			c-18.43,0-33.37,14.94-33.37,33.37h53.99h12.75h34.57C527.8,227.33,517.21,216.73,504.14,216.73z"/>
		<path class="st11" d="M1674.29,200.05c-6.13,0-11.69,2.35-15.9,6.17c-5.88-9.52-16.37-15.88-28.38-15.88
			c-18.43,0-33.37,14.94-33.37,33.37h53.99h12.75h34.57C1697.95,210.64,1687.36,200.05,1674.29,200.05z"/>
		<g>
			<g>
				<path class="st14" d="M1275.76,264.61c-0.98-1.83-4.18-9.78-15.21-13.29l1.22-3.84c7.34,2.34,11.77,6.61,13.98,9.36
					c2.22-2.75,6.64-7.02,13.98-9.36l1.22,3.84c-9.63,3.07-13.39,9.92-13.43,9.99L1275.76,264.61z"/>
			</g>
			<g>
				<path class="st14" d="M1238.96,287.96c-1.27-2.01-3.29-6.52-11.23-8.7l1.06-3.88c5.15,1.41,8.41,3.94,10.19,5.73
					c1.78-1.79,5.04-4.32,10.19-5.73l1.06,3.88C1242.61,281.34,1240.52,285.53,1238.96,287.96z"/>
			</g>
		</g>
		<path class="st11" d="M710.14,350.54c0-0.02,0-0.04,0-0.06c0-20.9-16.94-37.84-37.84-37.84c-12.15,0-22.95,5.73-29.88,14.63
			c-6.73-15.42-22.1-26.21-40-26.21c-15.43,0-28.98,8.02-36.73,20.11c-6.52-5.33-14.85-8.53-23.93-8.53
			c-20.9,0-37.84,16.94-37.84,37.84c0,0.02,0,0.04,0,0.06H710.14z"/>
		<path class="st15" d="M1997.17,724.53H108.9c0-14.98,12.15-27.15,27.15-27.15h1833.97
			C1985.01,697.38,1997.17,709.53,1997.17,724.53z"/>
		<path class="st16" d="M1997.17,724.53c0,14.99-12.15,27.15-27.15,27.15H136.05c-14.99,0-27.15-12.16-27.15-27.15H1997.17z"/>
		<g>
			<path class="st16" d="M1315.39,725.12c11.23-27.42,52.26-19.38,52.26,10.28h-89.46C1282.21,718.5,1303.29,712.71,1315.39,725.12z
				"/>
		</g>
		<path class="st17" d="M1833.87,749.99H272.19l0,0c0,17.73,14.37,32.1,32.1,32.1h1497.48
			C1819.5,782.09,1833.87,767.72,1833.87,749.99L1833.87,749.99z"/>
		<path class="st17" d="M784.9,726.07c7.7,0,14.57,3.28,19.1,8.8c5.26-25.48,36.05-35.29,55.06-18.52
			c17.93-10.35,40.41-0.13,44.52,19.77c4.06-4.95,10.22-7.5,17.12-7.5c12.22,0,22.13,10.47,22.13,22.64c-7.74,0-174.42,0-182.63,0
			C760.21,733.68,771.26,726.07,784.9,726.07z"/>
		<g>
			<polygon class="st18" points="1289.31,460.84 1017.75,460.85 942.59,549.04 1214.26,549.04 			"/>
			<polygon class="st19" points="1286.27,549.04 1286.27,569.74 1234.75,569.74 1234.73,672.78 956.1,672.78 956.1,549.04 			"/>
			<rect x="955.95" y="554.12" class="st20" width="265.16" height="5.07"/>
			<polygon class="st21" points="1289.31,460.84 1214.26,549.04 1215.33,553.55 1215.3,672.79 1354.17,672.79 1354.2,554.11 			"/>
			<polygon class="st22" points="1219.14,554.15 947.52,554.15 942.45,549.08 1214.07,549.08 			"/>
			<polygon class="st23" points="1289.15,471.11 1219.14,554.15 1214.07,549.08 1289.3,460.84 1364.84,549.59 1360.29,554.11 			"/>
			<polygon class="st22" points="1289.15,471.11 1285.57,475.39 1354.2,554.11 1360.29,554.11 			"/>
			<polygon class="st20" points="1215.3,559.18 1223.87,559.18 1285.83,485.43 1346.1,554.11 1354.2,554.11 1285.57,475.39 
				1219.14,554.15 1215.33,554.15 			"/>
			<g>
				
					<rect x="1296.31" y="586.74" transform="matrix(-1 -1.224647e-16 1.224647e-16 -1 2614.0095 1259.7933)" class="st24" width="21.38" height="86.32"/>
				<polygon class="st23" points="1300.5,588.91 1255.65,588.91 1255.39,672.84 1300.24,672.84 				"/>
				<polygon class="st25" points="1302.49,587.82 1254.63,587.82 1254.63,587.9 1254.63,592.9 1254.63,673 1259.7,673 1259.7,592.9 
					1296.37,592.9 1296.37,673 1302.62,673 				"/>
				<rect x="1290.14" y="592.91" class="st18" width="6.65" height="80.14"/>
				<polygon class="st26" points="1254.66,580.34 1319.36,580.34 1319.44,673.06 1311.77,673.06 1311.77,588 1254.66,588 				"/>
				
					<rect x="1254.53" y="580.34" transform="matrix(-1 -1.224647e-16 1.224647e-16 -1 2518.6875 1168.4205)" class="st24" width="9.64" height="7.75"/>
			</g>
			<rect x="1165.35" y="689.05" class="st23" width="204.32" height="8.24"/>
			<rect x="940.76" y="689.05" class="st18" width="296.82" height="8.24"/>
			<g>
				<rect x="996.48" y="594.11" class="st27" width="44.77" height="46.75"/>
				<g>
					<polygon class="st28" points="992.38,590.04 996.94,594.69 1041.26,594.69 1041.27,590.14 1041.27,590.04 					"/>
					<polygon class="st29" points="996.93,594.62 996.93,640.85 992.35,640.8 992.35,590.06 					"/>
				</g>
				
					<rect x="996.93" y="594.78" transform="matrix(-1 -1.224647e-16 1.224647e-16 -1 1998.9314 1235.4756)" class="st30" width="5.07" height="45.91"/>
				
					<rect x="1016.67" y="575.02" transform="matrix(6.123234e-17 -1 1 6.123234e-17 422.1384 1616.2649)" class="st30" width="5.07" height="44.08"/>
				
					<rect x="1019.38" y="597.25" transform="matrix(-1 -1.224647e-16 1.224647e-16 -1 2041.3501 1237.6932)" class="st30" width="2.58" height="43.19"/>
			</g>
			<g>
				<rect x="1067.43" y="594.11" class="st27" width="44.77" height="46.75"/>
				<g>
					<polygon class="st28" points="1063.33,590.04 1067.9,594.69 1112.22,594.69 1112.23,590.14 1112.23,590.04 					"/>
					<polygon class="st29" points="1067.89,594.62 1067.89,640.85 1063.31,640.8 1063.31,590.06 					"/>
				</g>
				
					<rect x="1067.89" y="594.78" transform="matrix(-1 -1.224647e-16 1.224647e-16 -1 2140.8452 1235.4756)" class="st30" width="5.07" height="45.91"/>
				
					<rect x="1087.62" y="575.02" transform="matrix(6.123234e-17 -1 1 6.123234e-17 493.0953 1687.2218)" class="st30" width="5.07" height="44.08"/>
				
					<rect x="1090.34" y="597.25" transform="matrix(-1 -1.224647e-16 1.224647e-16 -1 2183.2639 1237.6932)" class="st30" width="2.58" height="43.19"/>
			</g>
			<g>
				<rect x="1138.39" y="594.11" class="st27" width="44.77" height="46.75"/>
				<g>
					<polygon class="st28" points="1134.29,590.04 1138.85,594.69 1183.18,594.69 1183.18,590.14 1183.18,590.04 					"/>
					<polygon class="st29" points="1138.85,594.62 1138.85,640.85 1134.27,640.8 1134.27,590.06 					"/>
				</g>
				
					<rect x="1138.85" y="594.78" transform="matrix(-1 -1.224647e-16 1.224647e-16 -1 2282.759 1235.4756)" class="st30" width="5.07" height="45.91"/>
				
					<rect x="1158.58" y="575.02" transform="matrix(6.123234e-17 -1 1 6.123234e-17 564.0522 1758.1787)" class="st30" width="5.07" height="44.08"/>
				
					<rect x="1161.3" y="597.25" transform="matrix(-1 -1.224647e-16 1.224647e-16 -1 2325.1777 1237.6932)" class="st30" width="2.58" height="43.19"/>
			</g>
			<rect x="956.1" y="672.78" class="st31" width="258.99" height="16.9"/>
			<rect x="1215" y="672.78" class="st32" width="139.89" height="16.9"/>
			<rect x="1262.51" y="672.84" class="st33" width="64.41" height="8.82"/>
			<rect x="1270.33" y="681.67" class="st21" width="64.41" height="7.98"/>
			<polygon class="st31" points="1263.53,672.84 1263.53,681.83 1270.36,681.83 1270.36,689.69 1254.82,689.69 1254.82,672.79 			
				"/>
			<g>
				<circle class="st29" cx="1289" cy="544.61" r="16.89"/>
				<ellipse class="st27" cx="1286.47" cy="544.61" rx="14.36" ry="16.68"/>
				<path class="st34" d="M1281.4,559.44l16.37-16.31l-0.04-5.43l-19.75,19.66C1279.5,558.69,1279.46,558.73,1281.4,559.44z"/>
				<path class="st34" d="M1296.81,534.11c-0.63-0.68-1.3-1.3-2.03-1.87l-20.55,20.55c0.53,1.12,0.72,1.24,1.48,2.2L1296.81,534.11z
					"/>
				<path class="st30" d="M1286.57,527.92c-0.65,0.1-1.28,0.24-1.9,0.41c7.17,1.95,12.46,8.48,12.46,16.27
					c0,7.79-5.29,14.32-12.46,16.27c0.62,0.17,1.25,0.32,1.9,0.41c8.13-1.23,14.36-8.22,14.36-16.68
					C1300.93,536.14,1294.7,529.15,1286.57,527.92z"/>
			</g>
			<g>
				<polygon class="st35" points="1246.97,479.45 1205.23,527.16 1119.69,527.16 1161.34,479.46 				"/>
				<path class="st36" d="M1253.13,477.03l-93.3-0.29l-45.23,52.28h94.24L1253.13,477.03z M1213.37,481.85l-14.06,16.5h-22.23
					l14.06-16.5H1213.37z M1170.36,498.35h-22.23l14.06-16.5h22.23L1170.36,498.35z M1143.78,503.46h22.23l-17.33,20.44h-22.23
					L1143.78,503.46z M1172.72,503.46h22.23l-17.33,20.44h-22.23L1172.72,503.46z M1184.33,523.91l17.33-20.44h22.23l-17.33,20.44
					H1184.33z M1228.25,498.35h-22.23l14.06-16.5h22.23L1228.25,498.35z"/>
				<polygon class="st30" points="1114.6,529.02 1118.72,533.14 1212.88,533.14 1208.84,529.02 				"/>
				<polygon class="st37" points="1208.84,529.02 1253.13,477.03 1256.57,480.48 1212.88,533.14 				"/>
			</g>
			<g>
				<polygon class="st35" points="1107.53,479.45 1065.79,527.16 980.25,527.16 1021.9,479.46 				"/>
				<path class="st36" d="M1113.68,477.03l-93.3-0.29l-45.23,52.28h94.24L1113.68,477.03z M1073.93,481.85l-14.06,16.5h-22.23
					l14.06-16.5H1073.93z M1030.92,498.35h-22.23l14.06-16.5h22.23L1030.92,498.35z M1004.33,503.46h22.23l-17.33,20.44H987
					L1004.33,503.46z M1033.28,503.46h22.23l-17.33,20.44h-22.23L1033.28,503.46z M1044.89,523.91l17.33-20.44h22.23l-17.33,20.44
					H1044.89z M1088.81,498.35h-22.23l14.06-16.5h22.23L1088.81,498.35z"/>
				<polygon class="st30" points="975.16,529.02 979.28,533.14 1073.44,533.14 1069.39,529.02 				"/>
				<polygon class="st37" points="1069.39,529.02 1113.68,477.03 1117.13,480.48 1073.44,533.14 				"/>
			</g>
			<rect x="1097.16" y="439.37" class="st22" width="19.32" height="82.64"/>
			<polygon class="st23" points="1132.96,501.1 1132.96,439.56 1115.64,439.37 1115.64,522.01 1116.08,522.01 			"/>
			<rect x="1117.12" y="438.38" class="st23" width="18.8" height="7.18"/>
			<rect x="1094.95" y="438.38" class="st22" width="23.02" height="7.18"/>
			<rect x="1097.16" y="445.46" class="st38" width="18.37" height="3.06"/>
			<rect x="1115.64" y="445.46" class="st22" width="17.21" height="3.06"/>
		</g>
		<g>
			<g>
				<polygon class="st18" points="616.56,501.59 456.69,501.6 390.34,579.45 550.31,579.45 				"/>
				<polygon class="st39" points="613.88,581.73 613.88,599.62 568.4,599.62 568.38,688.7 402.26,688.7 402.26,581.73 				"/>
				<rect x="402.13" y="583.94" class="st20" width="154.22" height="4.47"/>
				<polygon class="st40" points="616.69,505.58 552.96,579.49 551.25,583.44 551.22,688.7 673.82,688.7 673.85,583.93 				"/>
				<polygon class="st22" points="554.62,583.96 394.69,583.96 390.22,579.49 550.14,579.49 				"/>
				<polygon class="st23" points="616.42,510.66 554.62,583.96 550.14,579.49 616.55,501.59 683.24,579.94 679.22,583.93 				"/>
				<polygon class="st22" points="616.42,510.66 613.26,514.43 673.85,583.93 679.22,583.93 				"/>
				<polygon class="st20" points="551.22,588.4 558.79,588.4 613.49,523.3 666.7,583.93 673.85,583.93 613.26,514.43 554.62,583.96 
					551.25,583.96 				"/>
				<g>
					<rect x="449.52" y="612.73" class="st41" width="18.88" height="76.21"/>
					<polygon class="st42" points="464.7,614.65 504.3,614.65 504.53,688.74 464.93,688.74 					"/>
					<polygon class="st39" points="462.95,613.69 505.2,613.69 505.2,613.76 505.2,618.17 505.2,688.89 500.72,688.89 
						500.72,618.17 468.35,618.17 468.35,688.89 462.83,688.89 					"/>
					
						<rect x="467.98" y="618.18" transform="matrix(-1 -1.224647e-16 1.224647e-16 -1 941.8333 1307.119)" class="st43" width="5.87" height="70.75"/>
					<polygon class="st40" points="505.17,607.08 448.06,607.08 447.99,688.94 454.75,688.94 454.75,613.85 505.17,613.85 					"/>
					<rect x="496.78" y="607.08" class="st41" width="8.39" height="6.84"/>
				</g>
				<polygon class="st20" points="454.75,613.85 468.26,627.36 473.67,627.36 500.52,654.21 500.52,618.17 504.97,613.72 				"/>
			</g>
			<rect x="507.13" y="688.52" class="st23" width="180.38" height="8.67"/>
			<rect x="388.73" y="688.52" class="st18" width="182.17" height="8.67"/>
			<g>
				<polygon class="st40" points="506.06,555.21 529.41,527.94 506.06,527.94 				"/>
				<g>
					<polygon class="st44" points="482.91,502.13 492.03,505.9 472.23,528.49 459.48,528.49 					"/>
					<polygon class="st22" points="482.77,493.06 518.12,493.07 544.57,524.01 510.54,524.01 					"/>
					<polygon class="st44" points="506.23,528.53 540.21,528.53 544.69,524.05 510.71,524.05 					"/>
					<polygon class="st23" points="482.91,502.13 506.23,528.53 510.71,524.05 482.78,493.06 455.46,524.5 459.48,528.49 					"/>
				</g>
				<polygon class="st39" points="467.65,555.21 506.06,555.21 506.06,528.41 485.83,505.58 467.65,525.9 				"/>
			</g>
			<g>
				<rect x="588.07" y="591.35" class="st27" width="52.13" height="81.47"/>
				<g>
					<polygon class="st45" points="643.82,587.76 639.79,591.86 588.05,591.86 588.04,587.84 588.04,587.76 					"/>
					<polygon class="st46" points="639.8,591.8 639.8,672.81 643.84,672.76 643.84,587.78 					"/>
				</g>
				<rect x="601.21" y="591.94" class="st30" width="2.28" height="80.73"/>
				<rect x="621.12" y="591.94" class="st30" width="2.28" height="80.73"/>
				<rect x="635.32" y="591.94" class="st30" width="4.47" height="80.73"/>
				
					<rect x="612.91" y="594.18" transform="matrix(6.123234e-17 -1 1 6.123234e-17 -5.6687 1233.7742)" class="st30" width="2.28" height="51.08"/>
				
					<rect x="611.69" y="568.09" transform="matrix(6.123234e-17 -1 1 6.123234e-17 19.9748 1207.8867)" class="st30" width="4.47" height="51.73"/>
				
					<rect x="612.91" y="620.36" transform="matrix(6.123234e-17 -1 1 6.123234e-17 -31.8443 1259.9497)" class="st30" width="2.28" height="51.08"/>
			</g>
			<g>
				<rect x="474.06" y="524.72" class="st27" width="22.93" height="23.63"/>
				<rect x="474.03" y="524.58" class="st45" width="4.75" height="23.77"/>
				<rect x="478.92" y="524.71" class="st30" width="4.47" height="23.64"/>
				
					<rect x="485.7" y="517.89" transform="matrix(6.123234e-17 -1 1 6.123234e-17 -39.0669 1014.947)" class="st30" width="4.47" height="18.23"/>
			</g>
		</g>
		<g>
			<polygon class="st18" points="1655.88,495.27 1527.71,495.28 1461.35,573.14 1589.38,573.14 			"/>
			<polygon class="st47" points="1653.2,575.84 1653.2,591.42 1607.71,591.42 1607.69,685.75 1473.28,685.75 1473.28,575.84 			"/>
			<rect x="1473.15" y="577.63" class="st20" width="122.52" height="4.47"/>
			<g>
				<rect x="1492.38" y="611.11" class="st27" width="26.51" height="40.57"/>
				<rect x="1492.35" y="610.96" class="st48" width="4.75" height="40.71"/>
				<rect x="1497.24" y="611.09" class="st30" width="4.47" height="40.58"/>
				
					<rect x="1505.8" y="602.49" transform="matrix(6.123234e-17 -1 1 6.123234e-17 894.6473 2121.4353)" class="st30" width="4.47" height="21.81"/>
			</g>
			<g>
				<rect x="1540.63" y="611.11" class="st27" width="26.51" height="40.57"/>
				<rect x="1540.6" y="610.96" class="st48" width="4.75" height="40.71"/>
				<rect x="1545.48" y="611.09" class="st30" width="4.47" height="40.58"/>
				
					<rect x="1554.04" y="602.49" transform="matrix(6.123234e-17 -1 1 6.123234e-17 942.8873 2169.6753)" class="st30" width="4.47" height="21.81"/>
			</g>
			<polygon class="st49" points="1655.88,502.04 1593.93,573.17 1590.56,577.12 1590.54,685.76 1713.14,685.76 1713.17,577.61 			
				"/>
			<rect x="1552.04" y="480.98" class="st50" width="17.06" height="54.12"/>
			<polygon class="st23" points="1583.64,516.65 1583.64,481.15 1568.35,480.98 1568.35,535.1 1568.74,535.1 			"/>
			<polygon class="st22" points="1593.93,577.65 1465.71,577.65 1461.23,573.17 1589.46,573.17 			"/>
			<polygon class="st23" points="1655.73,504.34 1593.93,577.65 1589.46,573.17 1655.88,495.27 1722.56,573.63 1718.54,577.61 			
				"/>
			<polygon class="st22" points="1655.73,504.34 1652.57,508.12 1713.17,577.61 1718.54,577.61 			"/>
			<polygon class="st20" points="1590.54,582.09 1598.11,582.09 1652.81,516.98 1706.02,577.61 1713.17,577.61 1652.57,508.12 
				1593.93,577.65 1590.56,577.65 			"/>
			<polygon class="st51" points="1672.16,611.71 1632.56,611.71 1632.33,685.8 1671.93,685.8 			"/>
			<polygon class="st52" points="1668.51,615.22 1663.1,620.63 1635.43,620.63 1635.43,615.22 			"/>
			<polygon class="st53" points="1663.1,620.64 1663.1,685.76 1668.51,685.76 1668.51,615.22 			"/>
			<polygon class="st47" points="1672.87,610.81 1672.87,610.74 1631.67,610.74 1631.67,610.81 1631.67,615.23 1631.67,685.95 
				1636.14,685.95 1636.14,615.23 1668.51,615.23 1668.51,685.95 1672.98,685.95 1672.98,610.81 			"/>
			<rect x="1658.72" y="620.63" class="st20" width="4.47" height="65.14"/>
			<g>
				
					<rect x="1638.99" y="556.52" transform="matrix(-1 -1.224647e-16 1.224647e-16 -1 3303.6038 1139.3491)" class="st27" width="25.61" height="26.31"/>
				
					<rect x="1659.89" y="556.37" transform="matrix(-1 -1.224647e-16 1.224647e-16 -1 3324.5313 1139.1992)" class="st47" width="4.75" height="26.46"/>
				
					<rect x="1655.27" y="556.5" transform="matrix(-1 -1.224647e-16 1.224647e-16 -1 3315.0229 1139.3289)" class="st30" width="4.47" height="26.33"/>
				
					<rect x="1647.15" y="548.34" transform="matrix(6.123234e-17 -1 1 6.123234e-17 1090.59 2208.1912)" class="st30" width="4.47" height="20.92"/>
			</g>
			<rect x="1585.66" y="685.95" class="st54" width="128.36" height="9.78"/>
			<rect x="1472" y="685.95" class="st48" width="118.54" height="9.78"/>
			<rect x="1564.38" y="477.63" class="st55" width="23.4" height="4.08"/>
			<rect x="1548.87" y="477.63" class="st18" width="23.4" height="4.08"/>
		</g>
		<g>
			<g>
				<g>
					<g>
						<rect x="397.7" y="669.98" class="st56" width="68.53" height="3.49"/>
					</g>
				</g>
				<g>
					<g>
						<rect x="397.7" y="684.97" class="st56" width="68.53" height="3.49"/>
					</g>
				</g>
				<g>
					<polygon class="st57" points="407.42,697.38 402.37,697.38 402.37,664.45 404.9,660.33 407.42,664.45 					"/>
				</g>
				<g>
					<polygon class="st57" points="420.86,697.38 415.81,697.38 415.81,660.71 418.34,656.59 420.86,660.71 					"/>
				</g>
				<g>
					<polygon class="st57" points="434.3,697.38 429.25,697.38 429.25,656.59 431.77,652.48 434.3,656.59 					"/>
				</g>
				<g>
					<polygon class="st57" points="447.74,697.38 442.69,697.38 442.69,660.71 445.21,656.59 447.74,660.71 					"/>
				</g>
				<g>
					<polygon class="st57" points="461.18,697.38 456.13,697.38 456.13,664.45 458.65,660.33 461.18,664.45 					"/>
				</g>
			</g>
			<g>
				<g>
					<g>
						<rect x="465.11" y="669.98" class="st56" width="68.53" height="3.49"/>
					</g>
				</g>
				<g>
					<g>
						<rect x="465.11" y="684.97" class="st56" width="68.53" height="3.49"/>
					</g>
				</g>
				<g>
					<polygon class="st57" points="474.83,697.38 469.79,697.38 469.79,664.45 472.31,660.33 474.83,664.45 					"/>
				</g>
				<g>
					<polygon class="st57" points="488.27,697.38 483.22,697.38 483.22,660.71 485.75,656.59 488.27,660.71 					"/>
				</g>
				<g>
					<polygon class="st57" points="501.71,697.38 496.66,697.38 496.66,656.59 499.19,652.48 501.71,656.59 					"/>
				</g>
				<g>
					<polygon class="st57" points="515.15,697.38 510.1,697.38 510.1,660.71 512.63,656.59 515.15,660.71 					"/>
				</g>
				<g>
					<polygon class="st57" points="528.59,697.38 523.54,697.38 523.54,664.45 526.06,660.33 528.59,664.45 					"/>
				</g>
			</g>
			<g>
				<g>
					<g>
						<rect x="330.58" y="669.98" class="st56" width="68.53" height="3.49"/>
					</g>
				</g>
				<g>
					<g>
						<rect x="330.58" y="684.97" class="st56" width="68.53" height="3.49"/>
					</g>
				</g>
				<g>
					<polygon class="st57" points="340.31,697.38 335.26,697.38 335.26,664.45 337.78,660.33 340.31,664.45 					"/>
				</g>
				<g>
					<polygon class="st57" points="353.75,697.38 348.7,697.38 348.7,660.71 351.22,656.59 353.75,660.71 					"/>
				</g>
				<g>
					<polygon class="st57" points="367.18,697.38 362.14,697.38 362.14,656.59 364.66,652.48 367.18,656.59 					"/>
				</g>
				<g>
					<polygon class="st57" points="380.62,697.38 375.57,697.38 375.57,660.71 378.1,656.59 380.62,660.71 					"/>
				</g>
				<g>
					<polygon class="st57" points="394.06,697.38 389.01,697.38 389.01,664.45 391.54,660.33 394.06,664.45 					"/>
				</g>
			</g>
		</g>
		<g>
			<g>
				<g>
					<g>
						<rect x="1684" y="669.98" class="st56" width="68.53" height="3.49"/>
					</g>
				</g>
				<g>
					<g>
						<rect x="1684" y="684.97" class="st56" width="68.53" height="3.49"/>
					</g>
				</g>
				<g>
					<polygon class="st57" points="1693.72,697.38 1688.67,697.38 1688.67,664.45 1691.2,660.33 1693.72,664.45 					"/>
				</g>
				<g>
					<polygon class="st57" points="1707.16,697.38 1702.11,697.38 1702.11,660.71 1704.64,656.59 1707.16,660.71 					"/>
				</g>
				<g>
					<polygon class="st57" points="1720.6,697.38 1715.55,697.38 1715.55,656.59 1718.08,652.48 1720.6,656.59 					"/>
				</g>
				<g>
					<polygon class="st57" points="1734.04,697.38 1728.99,697.38 1728.99,660.71 1731.51,656.59 1734.04,660.71 					"/>
				</g>
				<g>
					<polygon class="st57" points="1747.48,697.38 1742.43,697.38 1742.43,664.45 1744.95,660.33 1747.48,664.45 					"/>
				</g>
			</g>
			<g>
				<g>
					<g>
						<rect x="1751.41" y="669.98" class="st56" width="68.53" height="3.49"/>
					</g>
				</g>
				<g>
					<g>
						<rect x="1751.41" y="684.97" class="st56" width="68.53" height="3.49"/>
					</g>
				</g>
				<g>
					<polygon class="st57" points="1761.13,697.38 1756.09,697.38 1756.09,664.45 1758.61,660.33 1761.13,664.45 					"/>
				</g>
				<g>
					<polygon class="st57" points="1774.57,697.38 1769.52,697.38 1769.52,660.71 1772.05,656.59 1774.57,660.71 					"/>
				</g>
				<g>
					<polygon class="st57" points="1788.01,697.38 1782.96,697.38 1782.96,656.59 1785.49,652.48 1788.01,656.59 					"/>
				</g>
				<g>
					<polygon class="st57" points="1801.45,697.38 1796.4,697.38 1796.4,660.71 1798.93,656.59 1801.45,660.71 					"/>
				</g>
				<g>
					<polygon class="st57" points="1814.89,697.38 1809.84,697.38 1809.84,664.45 1812.36,660.33 1814.89,664.45 					"/>
				</g>
			</g>
			<g>
				<g>
					<g>
						<rect x="1616.88" y="669.98" class="st56" width="68.53" height="3.49"/>
					</g>
				</g>
				<g>
					<g>
						<rect x="1616.88" y="684.97" class="st56" width="68.53" height="3.49"/>
					</g>
				</g>
				<g>
					<polygon class="st57" points="1626.61,697.38 1621.56,697.38 1621.56,664.45 1624.08,660.33 1626.61,664.45 					"/>
				</g>
				<g>
					<polygon class="st57" points="1640.05,697.38 1635,697.38 1635,660.71 1637.52,656.59 1640.05,660.71 					"/>
				</g>
				<g>
					<polygon class="st57" points="1653.49,697.38 1648.44,697.38 1648.44,656.59 1650.96,652.48 1653.49,656.59 					"/>
				</g>
				<g>
					<polygon class="st57" points="1666.92,697.38 1661.87,697.38 1661.87,660.71 1664.4,656.59 1666.92,660.71 					"/>
				</g>
				<g>
					<polygon class="st57" points="1680.36,697.38 1675.31,697.38 1675.31,664.45 1677.84,660.33 1680.36,664.45 					"/>
				</g>
			</g>
		</g>
		<g>
			<g>
				<polygon class="st58" points="1452.97,696.49 1435.83,696.49 1440.61,481.3 1449.15,472.03 				"/>
				<path class="st59" d="M1446.19,472.03l-5.58,7.78l-4.06,180.1l0,0c6.52,0,11.08,4.56,11.08,11.08v25.51h5.81v-36.59
					l-3.82-187.88H1446.19z"/>
			</g>
			<polygon class="st13" points="1435.77,471.06 1404.29,498.72 1415.71,502.93 1381.6,515.54 1370.77,533.44 1401.88,533.12 
				1362.94,555.99 1362.94,576.97 1417.07,560.21 1440.79,531.1 1526.97,549.14 1526.97,526.74 1493.89,512.56 1511.78,511.01 
				1503.07,498.72 1453.39,485 1469.24,485 1440.79,440.53 			"/>
			<polygon class="st60" points="1440.79,531.1 1526.97,549.14 1526.97,526.74 1493.89,512.56 1511.78,511.01 1503.07,498.72 
				1453.39,485 1469.24,485 1442.69,443.5 1451.2,476.61 1440.97,482.03 1480.96,514.2 1437.96,518.41 1404.29,547.28 
				1364.25,555.22 1362.94,555.99 1362.94,576.97 1417.07,560.21 			"/>
			<polygon class="st13" points="1435.77,404.36 1404.29,432.03 1415.71,436.24 1381.6,448.85 1370.77,466.74 1401.88,466.42 
				1362.94,489.29 1362.94,510.28 1417.07,493.51 1440.79,464.41 1526.97,482.44 1526.97,460.05 1493.89,445.87 1511.78,444.31 
				1503.07,432.03 1453.39,418.3 1469.24,418.3 1440.79,373.84 			"/>
			<polygon class="st60" points="1440.79,464.41 1526.97,482.44 1526.97,460.05 1493.89,445.87 1511.78,444.31 1503.07,432.03 
				1453.39,418.3 1469.24,418.3 1442.69,376.8 1451.2,409.92 1440.97,415.33 1480.96,447.5 1437.96,451.71 1404.29,480.58 
				1364.25,488.52 1362.94,489.29 1362.94,510.28 1417.07,493.51 			"/>
		</g>
		<g>
			<path class="st61" d="M1531.86,649.01c30.35-15.64,48.61-15.29,83.87-12.23c17.36,2.12,29.42,2.47,40.59,17.68
				c8.45,11.5,6.36,29.51,5,36.17l-10.61,3.16l-35.09,2.64l-129.38,1.01c-12.46,0.04-18.25-1.95-18.22-15.73
				c0.01-6.1,2.3-11.87,7.45-13.45C1493.25,662.8,1516.46,656.94,1531.86,649.01z"/>
			<path class="st62" d="M1511.25,679.2c0,0,17.39-9.03,26.42-10.79c9.03-1.76,46.68-4.95,59.89-5.94
				c20.32-1.52,40.66-2.8,60.98-4.39c5.82,11.37,4.01,26.56,2.78,32.55l-10.61,3.16l-35.09,2.64l-111.68,0.87L1511.25,679.2z"/>
			<path class="st63" d="M1503.96,675.39c10,0,18.11,8.11,18.11,18.11c0,1.24-0.13,2.46-0.36,3.63l-35.44,0.28
				c-0.28-1.26-0.42-2.57-0.42-3.91C1485.84,683.49,1493.95,675.39,1503.96,675.39z"/>
			
				<ellipse transform="matrix(0.1222 -0.9925 0.9925 0.1222 631.8953 2101.4509)" class="st64" cx="1503.96" cy="693.5" rx="15.25" ry="15.25"/>
			<path class="st65" d="M1503.96,704.78c6.22,0,11.28-5.07,11.28-11.28c0-6.22-5.07-11.28-11.28-11.28
				c-6.21,0-11.28,5.07-11.28,11.28C1492.67,699.71,1497.74,704.78,1503.96,704.78z"/>
			<path class="st66" d="M1494.18,687.86c3.12-5.4,10.02-7.25,15.41-4.13c5.4,3.12,7.25,10.02,4.13,15.41
				c-3.12,5.4-10.02,7.25-15.41,4.13C1492.92,700.15,1491.07,693.25,1494.18,687.86z"/>
			<path class="st63" d="M1633.3,675.39c10,0,18.11,8.11,18.11,18.11c0,0.04,0,0.08,0,0.13c-0.23,0.04-0.47,0.08-0.71,0.13
				l-35.09,2.64l-0.19,0c-0.15-0.94-0.23-1.91-0.23-2.9C1615.19,683.49,1623.3,675.39,1633.3,675.39z"/>
			
				<ellipse transform="matrix(0.9966 -0.0825 0.0825 0.9966 -51.6352 137.0797)" class="st64" cx="1633.3" cy="693.5" rx="15.25" ry="15.25"/>
			<path class="st66" d="M1633.3,704.78c6.22,0,11.28-5.07,11.28-11.28c0-6.22-5.07-11.28-11.28-11.28
				c-6.21,0-11.28,5.07-11.28,11.28C1622.02,699.71,1627.09,704.78,1633.3,704.78z"/>
			<path class="st61" d="M1573.35,663.99c0,0.77-0.23,1.48-0.72,2.08c-1.52,1.87-4.92,1.84-7.02,1.09
				c-0.95-0.34-2.15-0.95-2.35-2.05c-0.2-1.1,0.7-2.08,1.48-2.72c0.66-0.55,1.44-1,2.24-1.32c1.45-0.58,3.35-0.9,4.77-0.05
				c0.63,0.38,1.07,0.94,1.34,1.62C1573.28,663.11,1573.35,663.49,1573.35,663.99z"/>
			<path class="st62" d="M1572.46,664c-0.01,2.92-3.99,3.34-6.47,2.45c-2.21-0.79-2.48-2.01-0.65-3.54c2-1.67,5.87-2.64,6.92,0.02
				C1572.41,663.32,1572.46,663.59,1572.46,664z"/>
			<path class="st67" d="M1562.29,663.91l11.84-1.05c0.46-0.04,0.87,0.3,0.91,0.76v0c0.04,0.46-0.3,0.87-0.76,0.91l-11.84,1.05
				c-0.46,0.04-0.87-0.3-0.91-0.76v0C1561.49,664.36,1561.83,663.95,1562.29,663.91z"/>
			<path class="st61" d="M1624.2,660.09c0,0.77-0.23,1.48-0.72,2.08c-1.52,1.87-4.92,1.84-7.02,1.09c-0.95-0.34-2.15-0.95-2.35-2.05
				c-0.2-1.1,0.7-2.08,1.48-2.72c0.66-0.55,1.44-1,2.24-1.32c1.45-0.58,3.35-0.89,4.77-0.05c0.63,0.38,1.07,0.94,1.34,1.62
				C1624.14,659.21,1624.21,659.59,1624.2,660.09z"/>
			<path class="st62" d="M1623.32,660.15c-0.05,2.92-4.03,3.28-6.5,2.36c-2.2-0.82-2.45-2.05-0.6-3.55c2.02-1.64,5.9-2.55,6.92,0.13
				C1623.28,659.47,1623.33,659.75,1623.32,660.15z"/>
			<path class="st67" d="M1613.16,659.9l11.86-0.87c0.46-0.03,0.87,0.32,0.9,0.78v0c0.03,0.46-0.31,0.86-0.77,0.9l-11.86,0.87
				c-0.46,0.03-0.87-0.32-0.9-0.78v0C1612.35,660.34,1612.7,659.94,1613.16,659.9z"/>
			<path class="st67" d="M1654.11,658.41c-1.52,0.21-2.69,1.5-2.63,2.95l0.15,3.88c0.06,1.51,1.43,2.65,3.04,2.53l6.95-0.53
				c-0.63-3.16-1.61-6.29-3.09-9.17C1657.06,658.19,1655.58,658.3,1654.11,658.41z"/>
			<path class="st68" d="M1471.74,670.53l1.98-0.16c1.61-0.13,3.59,0.46,3.6,1.97l0.01,3.74c0,1.51-0.55,3-2.13,3.33l-7.17,1.49
				C1468.16,676.83,1469.34,672.98,1471.74,670.53z"/>
			<path class="st67" d="M1662.23,684.43l-2.95,0.22c-1.05,0.08-1.87,0.95-1.84,1.93l0.1,2.52c0.04,0.98,0.93,1.72,1.98,1.64
				l1.79-0.14C1661.63,689.09,1661.98,686.95,1662.23,684.43z"/>
			<path class="st63" d="M1625.08,688.75c0.68-1.17,1.56-2.14,2.58-2.89c0.03,0.04,0.06,0.08,0.08,0.13
				c0.63,1.18,1.41,3.02,1.66,4.21c0.21,1,0.06,1.26-0.91,1.58c-1.16,0.38-3.15,0.62-4.48,0.67c-0.05,0-0.1,0-0.15-0.01
				C1624.01,691.17,1624.4,689.92,1625.08,688.75L1625.08,688.75z M1629.51,684.79c0.02,0.04,0.04,0.09,0.07,0.13
				c0.71,1.13,1.91,2.74,2.82,3.55c0.76,0.68,1.06,0.68,1.82,0c0.91-0.81,2.11-2.41,2.82-3.55c0.03-0.05,0.05-0.09,0.07-0.13
				C1634.62,683.71,1631.87,683.77,1629.51,684.79L1629.51,684.79z M1638.94,685.86c2.18,1.61,3.51,4.02,3.8,6.58
				c-0.05,0.01-0.1,0.01-0.15,0.01c-1.33-0.04-3.32-0.29-4.48-0.67c-0.97-0.32-1.12-0.58-0.91-1.58c0.25-1.19,1.03-3.04,1.66-4.21
				C1638.89,685.94,1638.91,685.9,1638.94,685.86L1638.94,685.86z M1642.74,694.56c-0.14,1.26-0.54,2.51-1.21,3.68
				c-0.68,1.17-1.56,2.14-2.58,2.89c-0.03-0.04-0.06-0.08-0.08-0.13c-0.63-1.18-1.41-3.02-1.66-4.21c-0.21-1-0.06-1.26,0.91-1.58
				c1.16-0.38,3.15-0.62,4.48-0.67C1642.64,694.55,1642.69,694.56,1642.74,694.56L1642.74,694.56z M1637.1,702.2
				c-2.36,1.03-5.11,1.09-7.59,0c0.02-0.04,0.04-0.09,0.07-0.13c0.71-1.13,1.91-2.74,2.82-3.55c0.76-0.68,1.06-0.68,1.82,0
				c0.91,0.81,2.11,2.41,2.82,3.55C1637.06,702.11,1637.08,702.16,1637.1,702.2L1637.1,702.2z M1627.66,701.14
				c-2.18-1.61-3.51-4.02-3.8-6.58c0.05-0.01,0.1-0.01,0.15-0.01c1.33,0.04,3.32,0.29,4.48,0.67c0.97,0.32,1.12,0.58,0.91,1.58
				c-0.25,1.19-1.03,3.04-1.66,4.21C1627.72,701.06,1627.69,701.1,1627.66,701.14L1627.66,701.14z M1633.3,695.14
				c-0.83,0-1.51-0.67-1.51-1.51c0-0.83,0.67-1.51,1.51-1.51c0.83,0,1.51,0.67,1.51,1.51
				C1634.81,694.47,1634.13,695.14,1633.3,695.14L1633.3,695.14z"/>
			<path class="st63" d="M1495.71,688.75c0.68-1.17,1.56-2.14,2.58-2.89c0.03,0.04,0.06,0.08,0.08,0.13
				c0.63,1.18,1.41,3.02,1.66,4.21c0.21,1,0.06,1.26-0.91,1.58c-1.16,0.38-3.15,0.62-4.48,0.67c-0.05,0-0.1,0-0.15-0.01
				C1494.64,691.17,1495.03,689.92,1495.71,688.75L1495.71,688.75z M1500.14,684.79c0.02,0.04,0.04,0.09,0.07,0.13
				c0.71,1.13,1.91,2.74,2.82,3.55c0.76,0.68,1.06,0.68,1.82,0c0.91-0.81,2.11-2.41,2.82-3.55c0.03-0.05,0.05-0.09,0.07-0.13
				C1505.25,683.71,1502.5,683.77,1500.14,684.79L1500.14,684.79z M1509.57,685.86c2.18,1.61,3.51,4.02,3.8,6.58
				c-0.05,0.01-0.1,0.01-0.15,0.01c-1.33-0.04-3.32-0.29-4.48-0.67c-0.97-0.32-1.12-0.58-0.91-1.58c0.25-1.19,1.03-3.04,1.66-4.21
				C1509.52,685.94,1509.54,685.9,1509.57,685.86L1509.57,685.86z M1513.37,694.56c-0.14,1.26-0.54,2.51-1.21,3.68
				c-0.68,1.17-1.56,2.14-2.58,2.89c-0.03-0.04-0.06-0.08-0.08-0.13c-0.63-1.18-1.41-3.02-1.66-4.21c-0.21-1-0.06-1.26,0.91-1.58
				c1.16-0.38,3.15-0.62,4.48-0.67C1513.27,694.55,1513.32,694.56,1513.37,694.56L1513.37,694.56z M1507.73,702.2
				c-2.36,1.03-5.11,1.09-7.59,0c0.02-0.04,0.04-0.09,0.07-0.13c0.71-1.13,1.91-2.74,2.82-3.55c0.76-0.68,1.06-0.68,1.82,0
				c0.91,0.81,2.11,2.41,2.82,3.55C1507.69,702.11,1507.71,702.16,1507.73,702.2L1507.73,702.2z M1498.29,701.14
				c-2.18-1.61-3.51-4.02-3.8-6.58c0.05-0.01,0.1-0.01,0.15-0.01c1.33,0.04,3.32,0.29,4.48,0.67c0.97,0.32,1.12,0.58,0.91,1.58
				c-0.25,1.19-1.03,3.04-1.66,4.21C1498.35,701.06,1498.32,701.1,1498.29,701.14L1498.29,701.14z M1503.93,695.14
				c-0.83,0-1.51-0.67-1.51-1.51c0-0.83,0.67-1.51,1.51-1.51c0.83,0,1.51,0.67,1.51,1.51
				C1505.44,694.47,1504.76,695.14,1503.93,695.14L1503.93,695.14z"/>
			<path class="st69" d="M1516.87,662.74l120.33-8.41c-8.71-15.31-45.25-17.81-68.73-13.64
				C1550.04,643.97,1532.68,652.76,1516.87,662.74z"/>
			<path class="st67" d="M1656.79,655.14c-7.49-0.62-17.24-9.59-21.38-15.31c7.81,2.09,14.5,5.92,20.9,14.63
				C1656.48,654.68,1656.64,654.91,1656.79,655.14z"/>
			<path class="st69" d="M1637.25,640.36l1.95,2.14c3.82,4.17,9.39,8.82,14.4,10.65l2.42,0.91
				C1650.22,646.31,1644.17,642.51,1637.25,640.36z"/>
			<path class="st67" d="M1580.97,639.2l-2.81,19.26l7.75-0.54l0.95-18.98C1584.88,638.98,1582.91,639.07,1580.97,639.2z"/>
			<path class="st67" d="M1618.36,642.34l7.63,12.77l3.26-0.23l-6.76-11.21C1621.17,643.19,1619.79,642.74,1618.36,642.34z"/>
			<path class="st67" d="M1535.8,653.08l-2.66,8.52l-14.58,1.02c-0.05-0.35,0.08-0.73,0.35-1.16c5.07-3.14,10.3-6.14,15.66-8.86
				L1535.8,653.08z"/>
			<path class="st67" d="M1525.21,658.5l3.41,34.35l77.57-0.81l24.19-31.93l-10.04-16.46l0.7-0.43l10.32,16.94
				c-8.25,10.9-16.51,21.8-24.77,32.69c-26.26,0.29-52.52,0.56-78.78,0.83l-3.43-35.16L1525.21,658.5z"/>
			<polygon class="st67" points="1584.32,639.64 1582.37,657.64 1583.29,692.7 1582.48,692.69 1581.56,657.68 1583.47,640.03 			"/>
			<path class="st67" d="M1516.87,662.74l120.33-8.41c-8.71-15.31-45.25-17.81-68.73-13.64
				C1550.04,643.97,1532.68,652.76,1516.87,662.74L1516.87,662.74z M1521.75,661.17c14.48-8.77,30.25-16.3,46.95-19.27
				c8.28-1.47,17.03-1.97,25.44-1.72c8.57,0.26,17.79,1.33,25.97,3.97c5.26,1.7,11.41,4.52,14.92,9.11L1521.75,661.17z"/>
			<path class="st61" d="M1535.65,653.1c1.75,0.03,2.01,2.32,2.1,3.76c0.16,2.86-0.98,4.22-4.14,4.16
				c-1.24-0.02-2.32-0.65-2.93-1.58C1528.65,656.4,1533.21,653.05,1535.65,653.1z"/>
			<path class="st62" d="M1537.73,658.01c0,0-3.2-0.32-4.39,0.03c-1.19,0.35-1.78,0.65-2.84,1.11c-1.06,0.46-1.32,0.42-1.32,0.42
				l0.05,1.59c0,0,1.07,0.08,2.14-0.45c1.08-0.53,1.29-1.16,3.4-1.2c1.04-0.02,1.86,0.08,2.41,0.19
				C1537.49,659.25,1537.66,658.69,1537.73,658.01L1537.73,658.01z"/>
			<path class="st67" d="M1537.18,659.71c-0.62,0.91-1.77,1.35-3.58,1.31c-0.67-0.01-1.3-0.2-1.83-0.52c0.77-0.47,1.18-0.94,3-0.98
				C1535.82,659.49,1536.63,659.59,1537.18,659.71L1537.18,659.71z"/>
		</g>
		<g>
			<path class="st70" d="M1443.98,781.81h-5.65c1.28-2.53,2.85-2.99,2.85-2.99S1443.98,779.12,1443.98,781.81z"/>
			<path class="st70" d="M1424.76,781.81h-5.65c1.28-2.53,2.85-2.99,2.85-2.99S1424.76,779.12,1424.76,781.81z"/>
			<path class="st70" d="M1436.88,759.56c8.86,8.79,3.73,22.24,3.73,22.24h3.14c0,0,6-17.74,5.76-17.89l1.75-4.35l-7.28-5.58
				l-7.1,3.2V759.56z"/>
			<path class="st70" d="M1421.02,758.93c-0.6-0.11-1.15-0.41-1.75-0.55c0,2.88-0.74,5.75-1.69,8.59l0.44-1.38l4.38,16.21h2.31
				l-0.43-23.81C1423.28,758.66,1422.17,759.15,1421.02,758.93z"/>
			<path class="st71" d="M1459.05,781.81h-5.65c1.28-2.53,2.85-2.99,2.85-2.99S1459.05,779.12,1459.05,781.81z"/>
			<path class="st71" d="M1413.45,781.81h-5.65c1.28-2.53,2.85-2.99,2.85-2.99S1413.45,779.12,1413.45,781.81z"/>
			<path class="st71" d="M1463.73,742.27c0.07-0.84,0.04-1.68-0.12-2.5c-0.64-3.34-3.22-6.23-6.47-7.24
				c0.35-2.48-1.45-4.92-3.77-5.86c-2.32-0.94-4.99-0.62-7.32,0.28c-1.29-1.8-4.17-2.17-5.88-0.76c-2.7-3.28-8.2-3.72-11.38-0.91
				c0.12-2.42-3.08-3.69-5.42-3.07c-2.34,0.62-4.28,2.31-6.61,2.96c-2.99,0.85-6.19-0.14-8.84-1.84l-1.75-3.29
				c-2.51-3.38-6.97-4.63-10.88-3.07c-6.75,2.68-13.26,8.21-14.21,11.83c1.41,5.35,6.21,5.09,10.58,3.29
				c3.38-1.39,4.73-0.56,7.66-0.1c-0.63,1.89,0.53,4.23,2.46,4.8c-1.47,0.74-2.42,2.41-2.29,4.06c0.13,1.64,1.33,3.15,2.9,3.65
				c-1.7,2.09-0.07,5.84,2.61,6.04c-0.85,2.08,0.4,4.61,2.37,5.69c1.97,1.08,4.42,0.94,6.54,0.22c-0.08,1.06,1.1,1.81,2.16,1.9
				c1.06,0.1,2.15-0.19,3.19,0.05c0.6,0.13,1.15,0.43,1.75,0.55c1.62,0.31,3.14-0.77,4.43-1.79c3.22,3.84,9.65,4.38,13.46,1.14
				c1.46,1.59,3.84,2.03,5.9,1.46c4.39,5.52,11.52,7.25,11.52,7.25l-0.21,14.82h2.67l3.6-16.21l-2.7-4.37
				C1462,758.3,1464.97,749.72,1463.73,742.27z"/>
			<path class="st70" d="M1400.41,718.22c0,0,11.15-3.07,11.8-1.43c0.65,1.64,0.31,5.94-9.26,4.4L1400.41,718.22z"/>
			<path class="st72" d="M1384.49,727.97l-3.41,0.83l0.78,1.92C1381.86,730.72,1384.49,729.49,1384.49,727.97z"/>
			<path class="st71" d="M1456.71,729.83c0,0,12.35,0.06,11.05,3.42c-1.09,2.83-10.62-0.73-10.62-0.73L1456.71,729.83z"/>
			<path class="st71" d="M1416.08,758.34c-1.06-0.09-2.24-0.84-2.16-1.9c-0.68,0.23-1.4,0.4-2.12,0.49l-1.26,24.88h2.97
				c0-7.33,5.77-15.37,5.77-23.42C1418.23,758.15,1417.14,758.43,1416.08,758.34z"/>
			<path class="st72" d="M1391.11,722.01l-0.52,1.37h2.84C1392.75,722.01,1391.11,722.01,1391.11,722.01z"/>
		</g>
		<g>
			<path class="st70" d="M936.03,780.93h6.4c-1.45-2.87-3.23-3.39-3.23-3.39S936.03,777.88,936.03,780.93z"/>
			<path class="st70" d="M957.81,780.93h6.4c-1.45-2.87-3.23-3.39-3.23-3.39S957.81,777.88,957.81,780.93z"/>
			<path class="st70" d="M944.07,755.71c-10.04,9.97-4.22,25.21-4.22,25.21h-3.56c0,0-6.8-20.11-6.53-20.28l-1.99-4.93l8.25-6.32
				l8.05,3.63V755.71z"/>
			<path class="st70" d="M962.05,755c0.68-0.13,1.3-0.47,1.98-0.62c0,3.26,0.84,6.52,1.91,9.74l-0.5-1.56l-4.96,18.37h-2.62
				l0.49-26.99C959.49,754.69,960.75,755.25,962.05,755z"/>
			<path class="st71" d="M918.95,780.93h6.4c-1.45-2.87-3.23-3.39-3.23-3.39S918.95,777.88,918.95,780.93z"/>
			<path class="st71" d="M970.64,780.93h6.4c-1.45-2.87-3.23-3.39-3.23-3.39S970.64,777.88,970.64,780.93z"/>
			<path class="st71" d="M913.64,736.11c-0.08-0.95-0.04-1.9,0.14-2.84c0.72-3.79,3.65-7.07,7.33-8.21
				c-0.39-2.81,1.65-5.58,4.28-6.64c2.63-1.07,5.65-0.7,8.3,0.32c1.46-2.04,4.73-2.46,6.66-0.86c3.06-3.72,9.29-4.21,12.9-1.03
				c-0.13-2.74,3.49-4.18,6.14-3.48c2.65,0.7,4.85,2.61,7.49,3.36c3.39,0.96,7.02-0.16,10.02-2.09l1.99-3.73
				c2.84-3.83,7.9-5.24,12.33-3.48c7.65,3.04,15.03,9.3,16.1,13.41c-1.6,6.06-7.04,5.77-11.99,3.73c-3.83-1.58-5.36-0.63-8.69-0.12
				c0.72,2.15-0.6,4.79-2.79,5.44c1.67,0.84,2.74,2.74,2.6,4.6c-0.15,1.86-1.5,3.57-3.29,4.14c1.92,2.37,0.08,6.62-2.96,6.85
				c0.97,2.36-0.45,5.22-2.68,6.44c-2.23,1.22-5.01,1.07-7.42,0.25c0.09,1.21-1.25,2.05-2.45,2.15c-1.2,0.11-2.44-0.21-3.62,0.05
				c-0.68,0.15-1.3,0.49-1.98,0.62c-1.83,0.35-3.56-0.87-5.03-2.03c-3.64,4.35-10.94,4.97-15.26,1.29c-1.65,1.81-4.35,2.3-6.69,1.65
				c-4.98,6.25-13.06,8.21-13.06,8.21l0.23,16.8h-3.03l-4.08-18.37l3.06-4.95C915.61,754.29,912.23,744.56,913.64,736.11z"/>
			<path class="st70" d="M985.42,708.85c0,0-12.64-3.48-13.37-1.62c-0.73,1.86-0.35,6.73,10.5,4.99L985.42,708.85z"/>
			<path class="st72" d="M1003.46,719.9l3.86,0.94l-0.88,2.17C1006.44,723.02,1003.46,721.63,1003.46,719.9z"/>
			<path class="st71" d="M921.6,722.01c0,0-14,0.07-12.53,3.88c1.24,3.2,12.04-0.83,12.04-0.83L921.6,722.01z"/>
			<path class="st71" d="M967.65,754.33c1.2-0.11,2.54-0.95,2.45-2.15c0.77,0.26,1.58,0.45,2.4,0.55l1.43,28.2h-3.36
				c0-8.31-6.53-17.42-6.53-26.55C965.21,754.11,966.45,754.43,967.65,754.33z"/>
			<path class="st72" d="M995.96,713.15l0.6,1.55h-3.22C994.09,713.15,995.96,713.15,995.96,713.15z"/>
		</g>
		<g>
			<path class="st73" d="M1719.55,780.97H387.25c-13.9,0-25.87,10.69-26.52,24.57c-0.7,14.83,11.12,27.07,25.79,27.07h201.34
				c14.26,0,25.82,11.56,25.82,25.82v0c0,14.26,11.56,25.82,25.82,25.82h859.3c14.26,0,25.82-11.56,25.82-25.82v0
				c0-14.26,11.56-25.82,25.82-25.82h168.36c13.9,0,25.87-10.68,26.52-24.57C1746.04,793.21,1734.22,780.97,1719.55,780.97z"/>
			<path class="st74" d="M648.42,838.93H529.04c-5.27,0-9.54-4.27-9.54-9.54l0,0c0-5.27,4.27-9.54,9.54-9.54h119.38
				c5.27,0,9.54,4.27,9.54,9.54l0,0C657.95,834.66,653.68,838.93,648.42,838.93z"/>
			<path class="st74" d="M1620.16,838.93h-119.38c-5.27,0-9.54-4.27-9.54-9.54l0,0c0-5.27,4.27-9.54,9.54-9.54h119.38
				c5.27,0,9.54,4.27,9.54,9.54l0,0C1629.7,834.66,1625.43,838.93,1620.16,838.93z"/>
			<path class="st75" d="M1143.43,838.93h-142.99c-5.27,0-9.54-4.27-9.54-9.54c0-5.26,4.27-9.54,9.54-9.54h142.99
				c5.27,0,9.54,4.27,9.54,9.54l0,0C1152.96,834.66,1148.69,838.93,1143.43,838.93z"/>
			<path class="st74" d="M741.41,838.93h-16.37c-5.27,0-9.54-4.27-9.54-9.54c0-5.26,4.27-9.54,9.54-9.54h16.37
				c5.27,0,9.54,4.27,9.54,9.54l0,0C750.94,834.66,746.67,838.93,741.41,838.93z"/>
			<path class="st74" d="M1419.71,839.29h-16.37c-5.27,0-9.54-4.27-9.54-9.54c0-5.26,4.27-9.54,9.54-9.54h16.37
				c5.27,0,9.54,4.27,9.54,9.54l0,0C1429.25,835.02,1424.98,839.29,1419.71,839.29z"/>
			<g>
				<g>
					<path class="st76" d="M1289.33,861.8c0,0,9.11-4.33,11.46-11.38c0,0-9.11,2.64-17.63,2.05c-12.31-0.85-23.5-20.48-46.71-20.48
						s-28.7,15.75-38.02,6.42c-9.33-9.33,3.42-30.97,4.45-46.1c0.92-13.56-6.8-21.11-6.8-21.11l0,0c-7.64-9.71-25.29-6.6-27.78,6.79
						c9.18-3.41,18.07,5.66,14.49,14.75c0,0,5.34,0.79,5.34,6.86c0,8.36-15.67,33.19-15.67,52.87c0,19.68,18.17,32.31,51.36,32.31
						c59.34,0,66.53-3.67,89.89-27.03C1313.71,857.76,1300.2,862.89,1289.33,861.8z"/>
					<path class="st77" d="M1182.79,792.74c-6.43,0.55-7.08-2.93-18.01,4.32c-1.63-1.45-2.84-3.35-3.43-5.51l7.32-7.1
						c-0.67-2.06-0.79-4.29-0.36-6.46c6.91-2.57,11.63-1.1,13.48,0.88C1183.95,781.19,1184.11,789.4,1182.79,792.74z"/>
					<path class="st78" d="M1161.35,791.55c0.59,2.16,1.8,4.07,3.43,5.51l-6.37,4.21l-1.18-1.05c-1.27-1.52-1.09-3.76,0.39-5.06
						L1161.35,791.55z"/>
					<path class="st79" d="M1168.96,783.65l-0.76,0.81l-10.58,10.7c-1.48,1.3-1.65,3.55-0.39,5.06l1.18,1.04
						c10.23-6.76,9.77-6.5,10.76-7.04l0-0.01l5.57-3.43C1180.33,787.35,1173.5,778.82,1168.96,783.65z"/>
					<path class="st80" d="M1171.13,785.32c-0.01,0.9-0.29,2.03-0.86,3.06c-0.26,0.47-0.44,1.07-0.95,1.33
						c-0.5,0.26-1.07,0.42-1.82,0.21l-0.12-0.18c0.22-2.46,0.91-1.2,3.55-4.49L1171.13,785.32z"/>
					<path class="st77" d="M1179.81,777.23l1.09,2.69l4.12-3.85C1182.2,775.01,1179.81,777.23,1179.81,777.23z"/>
				</g>
				<path class="st81" d="M1251.37,862.02c-8.95,3.51-22.71,1.17-29.87-5.17C1227.03,857.13,1245.53,860.24,1251.37,862.02z"/>
				<path class="st81" d="M1284.49,864.22c-15.72,11.15-41.18,11.66-57.23,1.39C1249.41,870.27,1263.98,869.61,1284.49,864.22z"/>
			</g>
			<g>
				<path class="st82" d="M937.39,857.68c0,0-7.87,5.14-11.97,10.27c-4.1,5.13-11.62,15.3-17.78,16.37c-6.15,1.07-68.76,0-68.76,0
					s-17.4-3.99-17.4-17.73c0-7.2,3.94-10.06,7.55-14.57h13.32c-1.74,4.65,3.19,9.13,9.21,2.94c6.6-6.77,9.85-14.36,25.23-14.67
					c15.39-0.31,31.52,6.81,38.36,6.12l-7.87,4.44c11.18,0.73,9.76,0.64,10.61,0.69c-5.24,6.28-5.13,6.14-5.13,6.14
					C925.66,855.55,931.9,855.86,937.39,857.68L937.39,857.68z"/>
				
					<ellipse transform="matrix(0.7071 -0.7071 0.7071 0.7071 -342.3905 832.3128)" class="st83" cx="833.5" cy="829.46" rx="14.41" ry="14.41"/>
				<path class="st84" d="M819.27,827.17c0,0-9.41,10.35-14.54,11.03c-5.13,0.68-4.44,6.89,4.1,5.67
					c8.55-1.22,12.91-3.77,17.25-2.05v-9.43L819.27,827.17z"/>
				<path class="st83" d="M842.88,850.92c-0.22,0.36-0.39,0.73-0.52,1.09h-13.32c5.67-7.06,2.8-7.8,14.6-32.79
					C843.63,819.22,856.59,828.46,842.88,850.92z"/>
				<polygon class="st85" points="829.03,852.01 826.31,855.08 842.02,855.08 842.36,852.01 				"/>
				<path class="st86" d="M829.94,825.99l-0.91,2.36h4.92C832.79,825.99,829.94,825.99,829.94,825.99z"/>
				<path class="st87" d="M912.86,857.67c-12.73,11.19-34.81,13.81-49.56,6.41C882.26,866.03,894.87,864.46,912.86,857.67z"/>
				<path class="st87" d="M918.24,851.37c-7.39,6.64-20.56,9.78-30.08,7.39C909.6,854.5,901.55,856.39,918.24,851.37z"/>
				<path class="st87" d="M826.31,855.08c0,0-5.29,4-5.29,13.89c0,9.89,8.97,15.35,17.86,15.35c0,0-10.34-4.75-10.34-13.62
					c0-6.81,5.41-15.61,5.41-15.61H826.31z"/>
			</g>
			<g>
				<path class="st88" d="M1086.44,889.81c9.91,0,17.94-8.03,17.94-17.94h-35.89C1068.5,881.77,1076.53,889.81,1086.44,889.81z"/>
				<path class="st88" d="M1111.46,889.81c9.91,0,17.94-8.03,17.94-17.94h-35.89C1093.51,881.77,1101.55,889.81,1111.46,889.81z"/>
				<g>
					<path class="st76" d="M1052.92,865.27c4.29-2.59,5.67-8.16,3.08-12.44l-15.53,9.36
						C1043.06,866.47,1048.63,867.85,1052.92,865.27z"/>
				</g>
				<g>
					<path class="st88" d="M586.56,872.49c-6.74,0-12.54,4.01-15.17,9.76c-2.04-3.5-5.82-5.86-10.16-5.86
						c-5.65,0-10.37,3.99-11.5,9.31h20.5h2.49h30.16C601.28,878.16,594.58,872.49,586.56,872.49z"/>
				</g>
				<path class="st76" d="M1098.95,877.1c9.91,0,17.94-8.03,17.94-17.94h-35.89C1081.01,869.07,1089.04,877.1,1098.95,877.1z"/>
				<g>
					<path class="st89" d="M700.21,849.03c0.25,6.29-0.87,13.86-2.11,22.47c-2.86,19.92-1.71,18.1-2.72,27.01
						c-1.88-3.48-2.81-12.29-3.22-16.17c-0.77-7.68,0.59-15.65,3.1-22.85C696.56,855.88,698.11,852.37,700.21,849.03z"/>
					<path class="st89" d="M706.43,864.91c0.04,5.95-4.24,19.86-5.82,24.45C696.99,882.09,700.73,870.66,706.43,864.91z"/>
					<path class="st89" d="M682.78,864.91c5.75,5.79,9.42,17.23,5.82,24.45C687.53,886.26,682.73,871.38,682.78,864.91z"/>
				</g>
				<g>
					<path class="st89" d="M1462.7,849.03c0.16,3.94-0.2,7.73-0.61,11.46c-0.43,3.72-0.97,7.38-1.49,11.01
						c-0.52,3.63-1.04,7.23-1.48,10.87c-0.46,3.65-0.8,12.23-1.24,16.14c-1.88-3.48-2.81-12.29-3.21-16.17
						c-0.39-3.9-0.23-7.83,0.33-11.65c0.56-3.83,1.51-7.57,2.77-11.19C1459.04,855.88,1460.59,852.37,1462.7,849.03z"/>
					<path class="st89" d="M1468.92,864.91c0.02,2.29-0.34,4.41-0.76,6.48c-0.43,2.06-0.94,4.05-1.48,6.02l-1.69,5.86
						c-0.59,1.96-1.15,3.94-1.9,6.11c-1.02-2.06-1.38-4.32-1.41-6.55c-0.02-2.23,0.32-4.44,0.9-6.55c0.59-2.11,1.42-4.13,2.45-6.03
						C1466.09,868.33,1467.31,866.53,1468.92,864.91z"/>
					<path class="st89" d="M1445.26,864.91c1.61,1.62,2.83,3.43,3.88,5.33c1.03,1.9,1.87,3.92,2.45,6.03
						c0.59,2.11,0.92,4.32,0.9,6.55c-0.03,2.22-0.39,4.49-1.41,6.55c-0.75-2.16-1.31-4.14-1.9-6.11l-1.69-5.86
						c-0.54-1.96-1.06-3.96-1.48-6.02C1445.61,869.32,1445.25,867.2,1445.26,864.91z"/>
				</g>
				<g>
					<path class="st88" d="M1574.45,900.66H518.71c-4.93,0-8.92-3.99-8.92-8.92l0,0c0-4.93,3.99-8.92,8.92-8.92h1055.74
						c4.93,0,8.92,3.99,8.92,8.92l0,0C1583.37,896.66,1579.37,900.66,1574.45,900.66z"/>
				</g>
			</g>
			<path class="st74" d="M1423.22,900.66H727.85c-4.93,0-8.92-3.99-8.92-8.92c0-4.93,3.99-8.92,8.92-8.92h695.37
				c4.93,0,8.92,3.99,8.92,8.92l0,0C1432.15,896.66,1428.15,900.66,1423.22,900.66z"/>
		</g>
		<path class="st90" d="M988.87,696.78H720.32v0c0-9.13,7.4-16.54,16.54-16.54h235.48C981.47,680.25,988.87,687.65,988.87,696.78
			L988.87,696.78z"/>
		<g>
			<rect x="801.83" y="629.92" class="st91" width="29.91" height="44.91"/>
			<rect x="883.79" y="629.92" class="st91" width="30.3" height="44.91"/>
			<rect x="831.74" y="629.92" class="st23" width="52.05" height="44.91"/>
			<g>
				<polygon class="st92" points="832.18,635.77 794.42,635.77 815.84,512.19 845.17,512.19 				"/>
				<polygon class="st93" points="885.08,635.77 831.74,635.77 844.72,512.19 872.1,512.19 				"/>
				<polygon class="st92" points="922.4,635.77 884.64,635.77 871.65,512.19 900.98,512.19 				"/>
				<rect x="794.42" y="635.77" class="st40" width="127.98" height="3.76"/>
				<polygon class="st94" points="901.78,519.11 815.04,519.11 815.84,514.5 900.98,514.5 				"/>
			</g>
			<g>
				<path class="st39" d="M865.03,475.46c-19.54,2.69-35.28,17.2-39.83,36.08h-13.24c2.52-10.48,8.5-19.62,16.67-26.15
					c8.16-6.51,18.52-10.4,29.78-10.4C860.64,474.99,862.87,475.15,865.03,475.46z"/>
				<path class="st40" d="M904.87,511.54H825.2c4.54-18.88,20.29-33.38,39.83-36.08C884.57,478.15,900.31,492.66,904.87,511.54z"/>
				<rect x="811.95" y="511.54" class="st39" width="13.24" height="3.28"/>
				<rect x="825.2" y="511.54" class="st40" width="79.67" height="3.28"/>
			</g>
			<g>
				<g>
					<path class="st95" d="M857.07,501.86c-2.05,0-4.09-0.78-5.65-2.34c-3.12-3.12-3.12-8.19,0-11.31c3.12-3.11,8.19-3.12,11.31,0
						c3.12,3.12,3.12,8.19,0,11.31l0,0C861.16,501.08,859.11,501.86,857.07,501.86z M857.07,490.74c-0.8,0-1.6,0.31-2.21,0.91
						c-1.22,1.22-1.22,3.2,0,4.42c1.22,1.22,3.2,1.22,4.42,0c1.22-1.22,1.22-3.2,0-4.42C858.67,491.05,857.87,490.74,857.07,490.74z
						"/>
				</g>
				<g>
					<g>
						<path class="st95" d="M885.77,480.91l-16.27-16.27l46.63-50.93l20.57,20.57L885.77,480.91z M876.24,464.49l9.68,9.68
							l43.74-40.05l-13.37-13.37L876.24,464.49z"/>
					</g>
					<g>
						
							<rect x="847.24" y="455.08" transform="matrix(0.7071 -0.7071 0.7071 0.7071 -61.8984 765.5886)" class="st95" width="91.87" height="4.87"/>
					</g>
					<g>
						
							<rect x="908.59" y="429.57" transform="matrix(0.7071 -0.7071 0.7071 0.7071 -44.014 772.9444)" class="st95" width="4.87" height="20.07"/>
					</g>
					<g>
						
							<rect x="891.44" y="447.67" transform="matrix(0.7071 -0.7071 0.7071 0.7071 -61.1543 765.8446)" class="st95" width="4.87" height="18.15"/>
					</g>
				</g>
				<g>
					<g>
						<path class="st96" d="M886.55,481.79l-16.27-16.27l46.63-50.93l20.57,20.57L886.55,481.79z M877.02,465.37l9.68,9.68
							L930.44,435l-13.37-13.37L877.02,465.37z"/>
					</g>
					<g>
						
							<rect x="848.02" y="455.96" transform="matrix(0.7071 -0.7071 0.7071 0.7071 -62.2922 766.3961)" class="st96" width="91.87" height="4.87"/>
					</g>
					<g>
						
							<rect x="909.36" y="430.45" transform="matrix(0.7071 -0.7071 0.7071 0.7071 -44.4078 773.7518)" class="st96" width="4.87" height="20.07"/>
					</g>
					<g>
						
							<rect x="892.22" y="448.55" transform="matrix(0.7071 -0.7071 0.7071 0.7071 -61.5481 766.6521)" class="st96" width="4.87" height="18.15"/>
					</g>
				</g>
				<g>
					<g>
						<path class="st95" d="M845.68,465.65l-16.27,16.27l-50.93-46.63l20.57-20.57L845.68,465.65z M829.26,475.18l9.68-9.68
							l-40.05-43.74l-13.37,13.37L829.26,475.18z"/>
					</g>
					<g>
						
							<rect x="819.85" y="412.3" transform="matrix(0.7071 -0.7071 0.7071 0.7071 -83.1832 715.6577)" class="st95" width="4.87" height="91.87"/>
					</g>
					<g>
						
							<rect x="794.34" y="437.97" transform="matrix(0.7071 -0.7071 0.7071 0.7071 -75.8136 697.7687)" class="st95" width="20.07" height="4.87"/>
					</g>
					<g>
						
							<rect x="812.44" y="455.11" transform="matrix(0.7071 -0.7071 0.7071 0.7071 -82.9121 714.9131)" class="st95" width="18.15" height="4.87"/>
					</g>
				</g>
				<g>
					<g>
						<path class="st96" d="M846.56,464.87l-16.27,16.27l-50.93-46.63l20.57-20.57L846.56,464.87z M830.14,474.4l9.68-9.68
							l-40.05-43.74l-13.37,13.37L830.14,474.4z"/>
					</g>
					<g>
						
							<rect x="820.73" y="411.53" transform="matrix(0.7071 -0.7071 0.7071 0.7071 -82.3758 716.0515)" class="st96" width="4.87" height="91.87"/>
					</g>
					<g>
						
							<rect x="795.22" y="437.19" transform="matrix(0.7071 -0.7071 0.7071 0.7071 -75.0061 698.1625)" class="st96" width="20.07" height="4.87"/>
					</g>
					<g>
						
							<rect x="813.32" y="454.33" transform="matrix(0.7071 -0.7071 0.7071 0.7071 -82.1058 715.3028)" class="st96" width="18.15" height="4.87"/>
					</g>
				</g>
				<g>
					<g>
						<path class="st95" d="M830.42,505.74l16.27,16.27l-46.63,50.93l-20.57-20.57L830.42,505.74z M839.95,522.16l-9.68-9.68
							l-43.74,40.05l13.37,13.37L839.95,522.16z"/>
					</g>
					<g>
						
							<rect x="777.08" y="526.7" transform="matrix(0.7071 -0.7071 0.7071 0.7071 -133.1003 736.9379)" class="st95" width="91.87" height="4.87"/>
					</g>
					<g>
						
							<rect x="802.74" y="537.01" transform="matrix(0.7071 -0.7071 0.7071 0.7071 -150.9892 729.5682)" class="st95" width="4.87" height="20.07"/>
					</g>
					<g>
						
							<rect x="819.88" y="520.83" transform="matrix(0.7071 -0.7071 0.7071 0.7071 -133.8497 736.6642)" class="st95" width="4.87" height="18.15"/>
					</g>
				</g>
				<g>
					<g>
						<path class="st96" d="M829.64,504.86l16.27,16.27l-46.63,50.93l-20.57-20.57L829.64,504.86z M839.18,521.28l-9.68-9.68
							l-43.74,40.05l13.37,13.37L839.18,521.28z"/>
					</g>
					<g>
						
							<rect x="776.3" y="525.82" transform="matrix(0.7071 -0.7071 0.7071 0.7071 -132.7065 736.1305)" class="st96" width="91.87" height="4.87"/>
					</g>
					<g>
						
							<rect x="801.96" y="536.13" transform="matrix(0.7071 -0.7071 0.7071 0.7071 -150.596 728.7574)" class="st96" width="4.87" height="20.07"/>
					</g>
					<g>
						
							<rect x="819.1" y="519.95" transform="matrix(0.7071 -0.7071 0.7071 0.7071 -133.4551 735.8605)" class="st96" width="4.87" height="18.15"/>
					</g>
				</g>
				<g>
					<g>
						<path class="st95" d="M870.51,521l16.27-16.27l50.93,46.63l-20.57,20.57L870.51,521z M886.93,511.47l-9.68,9.68l40.05,43.74
							l13.37-13.37L886.93,511.47z"/>
					</g>
					<g>
						
							<rect x="891.47" y="482.47" transform="matrix(0.7071 -0.7071 0.7071 0.7071 -111.82 786.855)" class="st95" width="4.87" height="91.87"/>
					</g>
					<g>
						
							<rect x="901.78" y="543.81" transform="matrix(0.7071 -0.7071 0.7071 0.7071 -119.1897 804.744)" class="st95" width="20.07" height="4.87"/>
					</g>
					<g>
						
							<rect x="885.6" y="526.67" transform="matrix(0.7071 -0.7071 0.7071 0.7071 -112.0901 787.603)" class="st95" width="18.15" height="4.87"/>
					</g>
				</g>
				<g>
					<g>
						<path class="st96" d="M869.63,521.78l16.27-16.27l50.93,46.63l-20.57,20.57L869.63,521.78z M886.05,512.24l-9.68,9.68
							l40.05,43.74l13.37-13.37L886.05,512.24z"/>
					</g>
					<g>
						
							<rect x="890.59" y="483.25" transform="matrix(0.7071 -0.7071 0.7071 0.7071 -112.6312 786.4467)" class="st96" width="4.87" height="91.87"/>
					</g>
					<g>
						
							<rect x="900.9" y="544.59" transform="matrix(0.7071 -0.7071 0.7071 0.7071 -119.9971 804.3501)" class="st96" width="20.07" height="4.87"/>
					</g>
					<g>
						
							<rect x="884.72" y="527.45" transform="matrix(0.7071 -0.7071 0.7071 0.7071 -112.8974 787.2098)" class="st96" width="18.15" height="4.87"/>
					</g>
				</g>
				<g>
					<path class="st96" d="M858.41,501.86c-2.05,0-4.09-0.78-5.65-2.34c-3.12-3.12-3.12-8.19,0-11.31c3.12-3.11,8.19-3.12,11.31,0
						c3.12,3.12,3.12,8.19,0,11.31l0,0C862.51,501.08,860.46,501.86,858.41,501.86z M858.41,490.74c-0.8,0-1.6,0.31-2.21,0.91
						c-1.22,1.22-1.22,3.2,0,4.42c1.22,1.22,3.2,1.22,4.42,0c1.22-1.22,1.22-3.2,0-4.42C860.01,491.05,859.21,490.74,858.41,490.74z
						"/>
				</g>
			</g>
			<rect x="796.21" y="674.83" class="st97" width="30.97" height="5.52"/>
			<rect x="827.18" y="674.83" class="st39" width="61.29" height="5.52"/>
			<rect x="888.47" y="674.83" class="st97" width="30.46" height="5.52"/>
			<g>
				<path class="st98" d="M859.63,652.17h-1.01c-5.62,0-10.17,4.56-10.17,10.17v12.48h21.35v-12.48
					C869.8,656.73,865.24,652.17,859.63,652.17z"/>
				<path class="st95" d="M865.9,662.85v11.98h-2.32v-11.98c0-4.41-3.31-8.08-7.56-8.63c0.37-0.07,0.78-0.1,1.17-0.1
					C861.99,654.12,865.9,658.04,865.9,662.85z"/>
				<path class="st96" d="M863.58,662.85v11.98h-15.13v-11.98c0-4.41,3.29-8.08,7.56-8.63
					C860.27,654.77,863.58,658.43,863.58,662.85z"/>
			</g>
			<rect x="801.83" y="639.53" class="st94" width="112.26" height="5.07"/>
			<g>
				<g>
					<path class="st95" d="M860,596.22c-0.52,0-1.04,0.07-1.53,0.18c-0.28,0.07-0.55,0.15-0.81,0.24c2.55,0.94,4.37,3.39,4.37,6.26
						v14.04h1.62h3.03v-14.04C866.69,599.23,863.68,596.22,860,596.22z"/>
					<path class="st96" d="M862.03,602.91v14.04h-8.73v-14.04c0-2.87,1.82-5.32,4.37-6.26
						C860.21,597.59,862.03,600.04,862.03,602.91z"/>
				</g>
				<rect x="853.3" y="616.95" class="st99" width="16.48" height="3.56"/>
				<rect x="849.73" y="616.95" class="st100" width="4.86" height="3.56"/>
			</g>
			<g>
				<g>
					<path class="st95" d="M860,548.85c-0.52,0-1.04,0.07-1.53,0.18c-0.28,0.07-0.55,0.15-0.81,0.24c2.55,0.94,4.37,3.39,4.37,6.26
						v14.04h1.62h3.03v-14.04C866.69,551.85,863.68,548.85,860,548.85z"/>
					<path class="st96" d="M862.03,555.54v14.04h-8.73v-14.04c0-2.87,1.82-5.32,4.37-6.26
						C860.21,550.21,862.03,552.66,862.03,555.54z"/>
				</g>
				<rect x="853.3" y="569.58" class="st99" width="16.48" height="3.56"/>
				<rect x="849.73" y="569.58" class="st100" width="4.86" height="3.56"/>
			</g>
		</g>
		<g>
			<g>
				<g>
					<g>
						<rect x="991.14" y="669.75" class="st56" width="68.53" height="3.49"/>
					</g>
				</g>
				<g>
					<g>
						<rect x="991.14" y="684.74" class="st56" width="68.53" height="3.49"/>
					</g>
				</g>
				<g>
					<polygon class="st57" points="1000.87,697.14 995.82,697.14 995.82,664.21 998.34,660.1 1000.87,664.21 					"/>
				</g>
				<g>
					<polygon class="st57" points="1014.3,697.14 1009.26,697.14 1009.26,660.47 1011.78,656.36 1014.3,660.47 					"/>
				</g>
				<g>
					<polygon class="st57" points="1027.74,697.14 1022.69,697.14 1022.69,656.36 1025.22,652.24 1027.74,656.36 					"/>
				</g>
				<g>
					<polygon class="st57" points="1041.18,697.14 1036.13,697.14 1036.13,660.47 1038.66,656.36 1041.18,660.47 					"/>
				</g>
				<g>
					<polygon class="st57" points="1054.62,697.14 1049.57,697.14 1049.57,664.21 1052.1,660.1 1054.62,664.21 					"/>
				</g>
			</g>
			<g>
				<g>
					<g>
						<rect x="1058.55" y="669.75" class="st56" width="68.53" height="3.49"/>
					</g>
				</g>
				<g>
					<g>
						<rect x="1058.55" y="684.74" class="st56" width="68.53" height="3.49"/>
					</g>
				</g>
				<g>
					<polygon class="st57" points="1068.28,697.14 1063.23,697.14 1063.23,664.21 1065.75,660.1 1068.28,664.21 					"/>
				</g>
				<g>
					<polygon class="st57" points="1081.72,697.14 1076.67,697.14 1076.67,660.47 1079.19,656.36 1081.72,660.47 					"/>
				</g>
				<g>
					<polygon class="st57" points="1095.16,697.14 1090.11,697.14 1090.11,656.36 1092.63,652.24 1095.16,656.36 					"/>
				</g>
				<g>
					<polygon class="st57" points="1108.59,697.14 1103.54,697.14 1103.54,660.47 1106.07,656.36 1108.59,660.47 					"/>
				</g>
				<g>
					<polygon class="st57" points="1122.03,697.14 1116.98,697.14 1116.98,664.21 1119.51,660.1 1122.03,664.21 					"/>
				</g>
			</g>
			<g>
				<g>
					<g>
						<rect x="1125.93" y="669.75" class="st56" width="68.53" height="3.49"/>
					</g>
				</g>
				<g>
					<g>
						<rect x="1125.93" y="684.74" class="st56" width="68.53" height="3.49"/>
					</g>
				</g>
				<g>
					<polygon class="st57" points="1135.65,697.14 1130.6,697.14 1130.6,664.21 1133.13,660.1 1135.65,664.21 					"/>
				</g>
				<g>
					<polygon class="st57" points="1149.09,697.14 1144.04,697.14 1144.04,660.47 1146.57,656.36 1149.09,660.47 					"/>
				</g>
				<g>
					<polygon class="st57" points="1162.53,697.14 1157.48,697.14 1157.48,656.36 1160,652.24 1162.53,656.36 					"/>
				</g>
				<g>
					<polygon class="st57" points="1175.97,697.14 1170.92,697.14 1170.92,660.47 1173.44,656.36 1175.97,660.47 					"/>
				</g>
				<g>
					<polygon class="st57" points="1189.41,697.14 1184.36,697.14 1184.36,664.21 1186.88,660.1 1189.41,664.21 					"/>
				</g>
			</g>
			<g>
				<g>
					<g>
						<rect x="924.03" y="669.75" class="st56" width="68.53" height="3.49"/>
					</g>
				</g>
				<g>
					<g>
						<rect x="924.03" y="684.74" class="st56" width="68.53" height="3.49"/>
					</g>
				</g>
				<g>
					<polygon class="st57" points="933.75,697.14 928.7,697.14 928.7,664.21 931.23,660.1 933.75,664.21 					"/>
				</g>
				<g>
					<polygon class="st57" points="947.19,697.14 942.14,697.14 942.14,660.47 944.67,656.36 947.19,660.47 					"/>
				</g>
				<g>
					<polygon class="st57" points="960.63,697.14 955.58,697.14 955.58,656.36 958.1,652.24 960.63,656.36 					"/>
				</g>
				<g>
					<polygon class="st57" points="974.07,697.14 969.02,697.14 969.02,660.47 971.54,656.36 974.07,660.47 					"/>
				</g>
				<g>
					<polygon class="st57" points="987.51,697.14 982.46,697.14 982.46,664.21 984.98,660.1 987.51,664.21 					"/>
				</g>
			</g>
		</g>
		<g>
			<g>
				<polygon class="st58" points="765.66,696.49 748.52,696.49 753.3,481.3 761.84,472.03 				"/>
				<path class="st59" d="M758.88,472.03l-5.58,7.78l-4.06,180.1l0,0c6.52,0,11.08,4.56,11.08,11.08v25.51h5.81v-36.59l-3.82-187.88
					H758.88z"/>
			</g>
			<polygon class="st13" points="748.46,471.06 716.98,498.72 728.4,502.93 694.29,515.54 683.47,533.44 714.57,533.12 
				675.63,555.99 675.63,576.97 729.76,560.21 753.48,531.1 839.66,549.14 839.66,526.74 806.58,512.56 824.47,511.01 
				815.76,498.72 766.08,485 781.93,485 753.48,440.53 			"/>
			<polygon class="st60" points="753.48,531.1 839.66,549.14 839.66,526.74 806.58,512.56 824.47,511.01 815.76,498.72 766.08,485 
				781.93,485 755.38,443.5 763.89,476.61 753.66,482.03 793.65,514.2 750.66,518.41 716.98,547.28 676.95,555.22 675.63,555.99 
				675.63,576.97 729.76,560.21 			"/>
			<polygon class="st13" points="748.46,404.36 716.98,432.03 728.4,436.24 694.29,448.85 683.47,466.74 714.57,466.42 
				675.63,489.29 675.63,510.28 729.76,493.51 753.48,464.41 839.66,482.44 839.66,460.05 806.58,445.87 824.47,444.31 
				815.76,432.03 766.08,418.3 781.93,418.3 753.48,373.84 			"/>
			<polygon class="st60" points="753.48,464.41 839.66,482.44 839.66,460.05 806.58,445.87 824.47,444.31 815.76,432.03 
				766.08,418.3 781.93,418.3 755.38,376.8 763.89,409.92 753.66,415.33 793.65,447.5 750.66,451.71 716.98,480.58 676.95,488.52 
				675.63,489.29 675.63,510.28 729.76,493.51 			"/>
		</g>
		<g>
			<g>
				<path class="st101" d="M717.44,601.37L717.44,601.37c-4.59,0-7.78,2.15-11.42,6.13l-4.09,4.42l-7.89,7.4l8.77-0.75l0.88,2.66
					l5.91-5.8l1.46,2.03c4.3-4.23,5.82-12.69,5.82-12.69S716.76,601.93,717.44,601.37z"/>
			</g>
			<g>
				<path class="st102" d="M717.66,605.89l2,1.82c0.2,0.18,0.51,0.17,0.69-0.03l3.64-4c0.18-0.2,0.17-0.51-0.03-0.69l-2-1.82
					c-1.31-1.19-3.33-1.09-4.51,0.22l0,0C716.25,602.68,716.35,604.7,717.66,605.89z"/>
			</g>
			<g>
				<path class="st103" d="M730.95,678.37l12.11,27.26l1.22,37.96h-4.49c0,0-7.62-23.04-5.85-33.2c0,0-27.08-18.46-28.57-32.02
					H730.95z"/>
			</g>
			<g>
				<path class="st104" d="M730.95,678.37l7.04,15.84l-13.96,8.57c0,0-17.84-9.27-18.66-24.42H730.95z"/>
			</g>
			<g>
				<path class="st105" d="M750.08,675.15L750.08,675.15c-1.08,1-2.77,0.93-3.77-0.15l-2.8-3.04c-0.65-0.7-0.62-1.79,0.06-2.46l0,0
					c0.53-0.52,1.32-0.65,1.99-0.33l3.78,1.79c1.37,0.65,2,2.36,1.2,3.65C750.42,674.8,750.26,674.98,750.08,675.15z"/>
			</g>
			<g>
				<path class="st102" d="M681.42,721.36l-1.27-4.57c0,0-2.43-1.15-5.03,0.1l3.62,13.4C681.74,727.15,681.42,721.36,681.42,721.36z
					"/>
			</g>
			<g>
				<path class="st102" d="M744.21,743.39l-4.45,0.2c0,0-1.85,2.3-1.26,4.91l14.81,0.05C751.23,744.99,744.21,743.39,744.21,743.39z
					"/>
			</g>
			<g>
				<path class="st105" d="M718.75,614.21c1.92,5.95,8.53,11.46,13.08,9.99c4.54-1.46,6.69-9.8,4.78-15.75
					c-1.92-5.95-7.86-9.36-12.4-7.9C719.66,602.02,716.84,608.26,718.75,614.21z"/>
			</g>
			<g>
				<polygon class="st105" points="730.13,623.03 729.23,630.47 719.1,627.75 726.51,621.4 				"/>
			</g>
			<g>
				<path class="st106" d="M719.1,627.75c0,0-18.68,11.52-20.74,50.62h32.59l-0.91-25.31l3.31-6.9l-4.13-15.69L719.1,627.75z"/>
			</g>
			<g>
				<path class="st105" d="M721.68,641.76c0,0,2.94,5.94,2.94,12.66c5.37,1.63,20.19,14.7,20.19,14.7l-1.45,2
					c0,0-23.15-8.16-25.18-11.25c-2.03-3.08-4.68-12.55-4.68-12.55L721.68,641.76z"/>
			</g>
			<g>
				<path class="st105" d="M730.95,678.37c0,0-11.43,32.02-16.74,36.38c-5.31,4.35-32.79,6.62-32.79,6.62l-1.63-4.99
					c0,0,19.19-9.66,28.03-9.39c-3.27-13.88-4.35-28.62-4.35-28.62H730.95z"/>
			</g>
			<g>
				<path class="st101" d="M724.21,600.56c2.96-0.95,6.5,0.17,9.15,2.7l-8.04,4.8l-5.03,9.41c-0.65-1.04-1.17-2.14-1.53-3.26
					C716.84,608.26,719.66,602.02,724.21,600.56z"/>
			</g>
			<g>
				<path class="st101" d="M732.3,602.35c1.13,0.86,2.15,1.96,2.97,3.25c-7.06,1.33-12.44,7.4-12.72,14.78
					c-1.26-1.32-2.35-2.88-3.12-4.51C720.26,609,725.53,603.51,732.3,602.35z"/>
			</g>
			<g>
				<path class="st102" d="M730.95,678.37c-1.43,6.37-10.32,25.62-10.32,25.62l-14.55-5.2c0,0-4.49-12.72-3.05-20.43H730.95z"/>
			</g>
		</g>
		<g>
			<g>
				<g>
					<g>
						<path class="st107" d="M1203.52,722.29l-4.49-0.4c0,0-1.83,1.78-1.59,4.5l13.11,1.26
							C1208.77,723.94,1203.52,722.29,1203.52,722.29z"/>
					</g>
				</g>
				<g>
					<g>
						<path class="st108" d="M1173.65,672.5c0,0,30.97,12.34,34.52,17.8c3.55,5.46-4.64,31.98-4.64,31.98l-4.49-0.4
							c0,0-0.52-17.23,1.46-25.97c-12.24,4.96-29.09-3.29-29.09-3.29L1173.65,672.5z"/>
					</g>
				</g>
			</g>
			<g>
				<g>
					<path class="st109" d="M1196.19,737.39c8.48,0,8.48-12.83,0-12.83C1187.71,724.56,1187.7,737.39,1196.19,737.39z"/>
				</g>
			</g>
			<g>
				<g>
					<rect x="1169.69" y="696.1" class="st109" width="55.69" height="3.47"/>
				</g>
			</g>
			<g>
				<g>
					<path class="st109" d="M1214.08,730.98c0-11.78,9.58-21.36,21.36-21.36c11.78,0,21.36,9.58,21.36,21.36
						s-9.58,21.36-21.36,21.36C1223.66,752.33,1214.08,742.75,1214.08,730.98z M1217.54,730.98c0,9.86,8.02,17.89,17.89,17.89
						c9.86,0,17.89-8.02,17.89-17.89c0-9.86-8.02-17.89-17.89-17.89C1225.57,713.09,1217.54,721.11,1217.54,730.98z"/>
				</g>
			</g>
			<g>
				<g>
					<path class="st109" d="M1137.23,730.98c0-11.78,9.58-21.36,21.36-21.36c11.78,0,21.36,9.58,21.36,21.36
						s-9.58,21.36-21.36,21.36C1146.81,752.33,1137.23,742.75,1137.23,730.98z M1140.69,730.98c0,9.86,8.02,17.89,17.89,17.89
						c9.86,0,17.89-8.02,17.89-17.89c0-9.86-8.02-17.89-17.89-17.89C1148.72,713.09,1140.69,721.11,1140.69,730.98z"/>
				</g>
			</g>
			<g>
				<g>
					
						<rect x="1225.03" y="674.5" transform="matrix(0.954 -0.2998 0.2998 0.954 -154.4435 400.0978)" class="st109" width="3.47" height="57.81"/>
				</g>
			</g>
			<g>
				<g>
					<polygon class="st109" points="1192.51,732.28 1195.41,730.37 1167.8,688.49 1160.33,686.47 1159.42,689.81 1165.62,691.5 
											"/>
				</g>
			</g>
			<g>
				<g>
					<polygon class="st109" points="1156.11,733.06 1198.46,733.06 1217.19,698.69 1214.14,697.03 1196.4,729.59 1161.06,729.59 
						1172.38,698.45 1169.12,697.27 					"/>
				</g>
			</g>
			<g>
				<g>
					<path class="st109" d="M1205.53,681.91h3.47c0-5.55,2.14-4.34,16.61-4.34v-3.47h-13.39
						C1209.01,674.1,1205.53,676.24,1205.53,681.91z"/>
				</g>
			</g>
			<g>
				<g>
					<g>
						<path class="st107" d="M1196.41,737.96l-4.14-0.86c0,0-2.24,1.69-2.3,4.22l13.6,3.5
							C1202.49,741.07,1196.41,737.96,1196.41,737.96z"/>
					</g>
				</g>
				<g>
					<g>
						<polygon class="st105" points="1199.88,634.28 1197.63,644.46 1190.1,636.67 1196.43,632.73 						"/>
					</g>
				</g>
				<g>
					<g>
						<path class="st110" d="M1190.1,636.67c0,0-24.36,15.62-30.13,46.64h26.99l10.67-38.86L1190.1,636.67z"/>
					</g>
				</g>
				<g>
					<g>
						<path class="st105" d="M1191.82,651.86c-1.8,2.48-5.15,7.62-7.43,8.67c5.04-0.92,20.32,12.04,20.32,12.04l-1.04,2.65
							c0,0-26.99-6.13-28.09-11.07c-0.76-3.41,5.34-13.66,8.37-17.92c1.25-1.76,3.52-2.47,5.55-1.75l0,0
							C1192.56,645.54,1193.72,649.25,1191.82,651.86z"/>
					</g>
				</g>
				<g>
					<g>
						<path class="st105" d="M1193.75,625.61c-0.13-3.23,1.04-6.29,3.05-8.43c2.61-2.77,5.4-2.68,5.4-2.68
							c3.69-0.15,7.37,2.86,8.83,7.42l0,0c2.1,7-2.89,15.93-7.86,16.13c-3.57,0.15-6.71-3.82-8.13-7.14
							C1194.22,629.05,1193.82,627.2,1193.75,625.61z"/>
					</g>
				</g>
				<g>
					<g>
						<path class="st105" d="M1207.66,677.57c-2.91-1.6-5.06-2.29-4.13-4.12c0.32-0.62,0.99-0.99,1.69-0.9l3.94,0.47
							c1.43,0.17,2.52,1.52,2.19,2.92C1210.96,677.56,1209.13,678.37,1207.66,677.57z"/>
					</g>
				</g>
				<g>
					<g>
						<path class="st111" d="M1186.96,683.31l14.98,17.85l-5.53,36.8l-4.1-0.86c0,0-8.1-24.19,0.98-31.42c0,0-28.17-9.5-29.59-22.37
							H1186.96z"/>
					</g>
				</g>
				<g>
					<g>
						<path class="st112" d="M1212.78,623.14l-7.81-2.04l-0.41,2.67l-3.94-0.61l-4.56,9.75l-4.26-6.26
							C1191.57,608.1,1211.12,610.31,1212.78,623.14z"/>
					</g>
				</g>
			</g>
		</g>
	</g>
</g>
</svg>
