<svg xmlns="http://www.w3.org/2000/svg" width="450.158" height="419.952" viewBox="0 0 450.158 419.952">
  <g id="Group_21" data-name="Group 21" transform="translate(-87.912 -609.849)">
    <g id="Group_3" data-name="Group 3" transform="translate(87.912 804.276)">
      <path id="Path_13" data-name="Path 13" d="M350.332,1006.637H795.193c1.456,0,2.649.465,2.649,1.032v1.112c0,.568-1.192,1.032-2.649,1.032H350.332c-1.457,0-2.649-.465-2.649-1.032v-1.112c0-.568,1.192-1.032,2.649-1.032Z" transform="translate(-347.683 -784.288)" fill="#f5d986" fill-rule="evenodd"/>
      <path id="Path_14" data-name="Path 14" d="M350.462,1006.636H596.278l4.074,3.177H350.462c-1.528,0-2.779-.465-2.779-1.032v-1.112c0-.568,1.25-1.033,2.779-1.033Z" transform="translate(-347.683 -784.288)" fill="#dfb75d" fill-rule="evenodd"/>
      <path id="Path_15" data-name="Path 15" d="M945.36,747.373H821.213L864.7,838.655h22.5l58.162-91.282Z" transform="translate(-607.406 -709.329)" fill="#b48888" fill-rule="evenodd"/>
      <path id="Path_16" data-name="Path 16" d="M791.167,747.373H775.452l-58.161,91.282H834.65l-43.483-91.282Z" transform="translate(-577.361 -709.329)" fill="#926767" fill-rule="evenodd"/>
      <path id="Path_17" data-name="Path 17" d="M857.152,875.78H717.292l2.836,7.056h139.86l-2.836-7.056Z" transform="translate(-577.361 -746.455)" fill="#989090" fill-rule="evenodd"/>
      <path id="Path_18" data-name="Path 18" d="M914.035,838.655,972.2,747.373l58.161,91.282-2.836,7.054L972.2,758.878l-55.326,86.833-2.836-7.056Z" transform="translate(-634.244 -709.329)" fill="#5a4e4e" fill-rule="evenodd"/>
      <path id="Path_19" data-name="Path 19" d="M1033.942,840.68l-44.548-69.918,4.591-7.206,55.325,86.831h-15.368V840.68Z" transform="translate(-656.032 -714.009)" fill="#989090" fill-rule="evenodd"/>
      <path id="Path_20" data-name="Path 20" d="M1012.089,843.611l-44.549-69.917-50.735,79.627h-3v85.967h98.279V843.611Z" transform="translate(-634.178 -716.939)" fill="#dad0d0" fill-rule="evenodd"/>
      <path id="Path_21" data-name="Path 21" d="M886.169,976.8V903.438H818.2L853.152,976.8Z" transform="translate(-606.537 -754.451)" fill="#f2e9e9" fill-rule="evenodd"/>
      <path id="Path_22" data-name="Path 22" d="M742.9,903.438V976.8H831.38l-34.948-73.362Z" transform="translate(-584.764 -754.451)" fill="#dad0d0" fill-rule="evenodd"/>
      <path id="Path_23" data-name="Path 23" d="M986.612,913.667v65.152L963.9,926.839V913.667Z" transform="translate(-648.661 -757.409)" fill="#34271a" fill-rule="evenodd"/>
      <path id="Path_24" data-name="Path 24" d="M995.849,913.667h4.352v66.09h-3.942l-.41-.938V913.667Z" transform="translate(-657.898 -757.409)" fill="#7b7878" fill-rule="evenodd"/>
      <path id="Path_25" data-name="Path 25" d="M1009.877,899.422l11.141,23.389V972.4H985.41v-66.09H958.346v13.173L944.69,888.233l13.672,11.189Z" transform="translate(-643.107 -750.055)" fill="#aaa" fill-rule="evenodd"/>
      <path id="Path_26" data-name="Path 26" d="M963.9,932.2l22.712,51.98v.938H963.9V932.2Z" transform="translate(-648.661 -762.766)" fill="#1a130d" fill-rule="evenodd"/>
      <path id="Path_27" data-name="Path 27" d="M742.9,885.706v12.6h53.533l-6-12.6Z" transform="translate(-584.764 -749.324)" fill="#aaa" fill-rule="evenodd"/>
      <path id="Path_28" data-name="Path 28" d="M883.727,898.311v-12.6H809.758l6,12.6Z" transform="translate(-604.095 -749.324)" fill="#dad0d0" fill-rule="evenodd"/>
      <path id="Path_29" data-name="Path 29" d="M847.892,913.667h21.041v44.166l-21.041-44.166Z" transform="translate(-615.12 -757.409)" fill="#89bcb3" fill-rule="evenodd"/>
      <path id="Path_30" data-name="Path 30" d="M834.689,913.667H840.7v45.759h-6.011V913.667Z" transform="translate(-611.303 -757.409)" fill="#aaa" fill-rule="evenodd"/>
      <path id="Path_31" data-name="Path 31" d="M843.144,913.667h3.375l21.041,44.166v1.594H843.144V913.667Z" transform="translate(-613.747 -757.409)" fill="#385657" fill-rule="evenodd"/>
      <path id="Path_32" data-name="Path 32" d="M843.144,913.667h3.375l2.017,4.235h-1.157v37.29H866.3l1.258,2.64v1.594H843.144V913.667Z" transform="translate(-613.747 -757.409)" fill="#4c3823" fill-rule="evenodd"/>
      <path id="Path_33" data-name="Path 33" d="M847.892,913.666h21.041V917.9H849.909l-2.017-4.235Zm19.783,41.525h1.258v2.64l-1.258-2.64Z" transform="translate(-615.12 -757.408)" fill="#68533b" fill-rule="evenodd"/>
      <path id="Path_34" data-name="Path 34" d="M792.421,913.667h21.041v44.166l-21.041-44.166Z" transform="translate(-599.082 -757.409)" fill="#89bcb3" fill-rule="evenodd"/>
      <path id="Path_35" data-name="Path 35" d="M779.219,913.667h6.011v45.759h-6.011V913.667Z" transform="translate(-595.265 -757.409)" fill="#aaa" fill-rule="evenodd"/>
      <path id="Path_36" data-name="Path 36" d="M787.674,913.667h3.375l21.041,44.166v1.594H787.674V913.667Z" transform="translate(-597.71 -757.409)" fill="#385657" fill-rule="evenodd"/>
      <path id="Path_37" data-name="Path 37" d="M787.674,913.667h3.375l2.017,4.235h-1.158v37.29h18.923l1.258,2.64v1.594H787.674V913.667Z" transform="translate(-597.71 -757.409)" fill="#4c3823" fill-rule="evenodd"/>
      <path id="Path_38" data-name="Path 38" d="M792.422,913.666h21.041V917.9H794.439l-2.017-4.235ZM812.2,955.191h1.258v2.64l-1.258-2.64Z" transform="translate(-599.082 -757.408)" fill="#68533b" fill-rule="evenodd"/>
      <path id="Path_39" data-name="Path 39" d="M794.925,835.087h47.529V806.479L814.99,784l-20.065,16.421v34.661Z" transform="translate(-599.806 -719.92)" fill="#dad0d0" fill-rule="evenodd"/>
      <path id="Path_40" data-name="Path 40" d="M830.432,807.1h13.737v28.833L830.432,807.1Z" transform="translate(-610.072 -726.599)" fill="#89bcb3" fill-rule="evenodd"/>
      <path id="Path_41" data-name="Path 41" d="M806.954,807.1h6.011v30.427h-6.011V807.1Z" transform="translate(-603.284 -726.599)" fill="#aaa" fill-rule="evenodd"/>
      <path id="Path_42" data-name="Path 42" d="M815.41,807.1h10.679l13.736,28.833v1.594H815.41V807.1Z" transform="translate(-605.729 -726.599)" fill="#385657" fill-rule="evenodd"/>
      <path id="Path_43" data-name="Path 43" d="M815.41,807.1h10.68l2.018,4.235h-8.463V833.3h18.923l1.258,2.641v1.594H815.41V807.1Z" transform="translate(-605.729 -726.599)" fill="#4c3823" fill-rule="evenodd"/>
      <path id="Path_44" data-name="Path 44" d="M830.433,807.1h13.736v4.235H832.45l-2.017-4.235ZM842.911,833.3h1.258v2.641l-1.258-2.641Z" transform="translate(-610.072 -726.599)" fill="#68533b" fill-rule="evenodd"/>
      <path id="Path_45" data-name="Path 45" d="M861.784,844.227l18.227-28.607H861.784v28.607Z" transform="translate(-619.137 -729.061)" fill="#aaa" fill-rule="evenodd"/>
      <path id="Path_46" data-name="Path 46" d="M772.57,800.569l-3.781-8.411,34.945-28.6,35.452,28.6-4.289,8.411-31.163-25.5-31.163,25.5Z" transform="translate(-592.25 -714.009)" fill="#fff" fill-rule="evenodd"/>
      <path id="Path_47" data-name="Path 47" d="M891.269,812.2l7.817-8.411H866.073l-4.289,8.411Z" transform="translate(-619.137 -725.64)" fill="#989090" fill-rule="evenodd"/>
      <path id="Path_48" data-name="Path 48" d="M886.412,792.157l-19.259-28.6H817.946l35.452,28.6Z" transform="translate(-606.462 -714.009)" fill="#dad0d0" fill-rule="evenodd"/>
      <path id="Path_49" data-name="Path 49" d="M788.906,805.194v-6l20.065-16.421-3.7-3.027-31.163,25.5,14.8-.054Z" transform="translate(-593.787 -718.689)" fill="#989090" fill-rule="evenodd"/>
      <path id="Path_50" data-name="Path 50" d="M944.69,872.047,962.5,886.624l-4.139,8.118L944.69,883.553V872.047Z" transform="translate(-643.107 -745.375)" fill="#fff" fill-rule="evenodd"/>
      <path id="Path_51" data-name="Path 51" d="M1018.3,900.671l4.139-8.119H968.061l-4.139,8.119Z" transform="translate(-648.667 -751.304)" fill="#989090" fill-rule="evenodd"/>
      <path id="Path_52" data-name="Path 52" d="M1016.876,886.624l-17.811-14.577H944.69L962.5,886.624Z" transform="translate(-643.107 -745.375)" fill="#f2e9e9" fill-rule="evenodd"/>
      <path id="Path_53" data-name="Path 53" d="M963.9,932.2l13.533,30.97v21.949H963.9V932.2Z" transform="translate(-648.66 -762.766)" fill="#385657" fill-rule="evenodd"/>
      <path id="Path_54" data-name="Path 54" d="M963.9,913.666h13.533v44.141L963.9,926.839V913.666Z" transform="translate(-648.66 -757.408)" fill="#89bcb3" fill-rule="evenodd"/>
      <path id="Path_55" data-name="Path 55" d="M917.156,706.655h10.506v-12.8H917.156v12.8Z" transform="translate(-635.146 -693.856)" fill="#7f7f7f" fill-rule="evenodd"/>
      <path id="Path_56" data-name="Path 56" d="M924.176,711.861H906.328v25.245h17.849V711.861Z" transform="translate(-632.015 -699.062)" fill="#dad0d0" fill-rule="evenodd"/>
      <path id="Path_57" data-name="Path 57" d="M931.436,711.861h8.052v25.245h-8.052V711.861Z" transform="translate(-639.274 -699.062)" fill="#aaa" fill-rule="evenodd"/>
      <path id="Path_58" data-name="Path 58" d="M927.628,706.655h3.061v-12.8h-3.061v12.8Z" transform="translate(-638.174 -693.856)" fill="#3d3d3d" fill-rule="evenodd"/>
      <path id="Path_59" data-name="Path 59" d="M605.64,984.04V932.207l-4.123-3.725-4.122,3.725V984.04Z" transform="translate(-542.696 -761.692)" fill="#dfb75d" fill-rule="evenodd"/>
      <path id="Path_60" data-name="Path 60" d="M625.6,984.04V932.207l-4.123-3.725-4.123,3.725V984.04Z" transform="translate(-548.466 -761.692)" fill="#dfb75d" fill-rule="evenodd"/>
      <path id="Path_61" data-name="Path 61" d="M645.556,984.04V932.207l-4.123-3.725-4.122,3.725V984.04Z" transform="translate(-554.236 -761.692)" fill="#dfb75d" fill-rule="evenodd"/>
      <path id="Path_62" data-name="Path 62" d="M665.514,984.04V932.207l-4.123-3.725-4.123,3.725V984.04Z" transform="translate(-560.006 -761.692)" fill="#dfb75d" fill-rule="evenodd"/>
      <path id="Path_63" data-name="Path 63" d="M685.471,984.615V942.4l-5.686-11.935-2.56,2.313v51.833Z" transform="translate(-565.777 -762.266)" fill="#dfb75d" fill-rule="evenodd"/>
      <path id="Path_64" data-name="Path 64" d="M705.429,994.542v-12.43L697.184,964.8v29.738Z" transform="translate(-571.547 -772.193)" fill="#dfb75d" fill-rule="evenodd"/>
      <path id="Path_65" data-name="Path 65" d="M609.742,984.04V932.207l-4.124-3.725h-2.425l4.123,3.725V984.04Z" transform="translate(-544.372 -761.692)" fill="#5d432a" fill-rule="evenodd"/>
      <path id="Path_66" data-name="Path 66" d="M629.7,984.04V932.207l-4.124-3.725h-2.425l4.123,3.725V984.04Z" transform="translate(-550.142 -761.692)" fill="#5d432a" fill-rule="evenodd"/>
      <path id="Path_67" data-name="Path 67" d="M649.658,984.04V932.207l-4.124-3.725h-2.425l4.123,3.725V984.04Z" transform="translate(-555.913 -761.692)" fill="#5d432a" fill-rule="evenodd"/>
      <path id="Path_68" data-name="Path 68" d="M669.616,984.04V932.207l-4.124-3.725h-2.425l4.124,3.725V984.04Z" transform="translate(-561.683 -761.692)" fill="#5d432a" fill-rule="evenodd"/>
      <path id="Path_69" data-name="Path 69" d="M691.25,989.469V952.351l-2.426-5.092v42.21Z" transform="translate(-569.13 -767.121)" fill="#5d432a" fill-rule="evenodd"/>
      <path id="Path_70" data-name="Path 70" d="M711.208,1001.581v-7.337l-2.425-5.092v12.429Z" transform="translate(-574.9 -779.233)" fill="#5d432a" fill-rule="evenodd"/>
      <path id="Path_71" data-name="Path 71" d="M686.512,941.829v-9.622l-4.123-3.725-1.563,1.413,5.686,11.935Z" transform="translate(-566.818 -761.692)" fill="#f5d986" fill-rule="evenodd"/>
      <path id="Path_72" data-name="Path 72" d="M705.429,971.61v-39.4l-4.123-3.725-4.123,3.725v22.1l8.246,17.308Z" transform="translate(-571.547 -761.692)" fill="#f5d986" fill-rule="evenodd"/>
      <path id="Path_73" data-name="Path 73" d="M725.387,984.04V932.207l-4.123-3.725-4.122,3.725V984.04Z" transform="translate(-577.317 -761.692)" fill="#f5d986" fill-rule="evenodd"/>
      <path id="Path_74" data-name="Path 74" d="M745.345,984.04V932.207l-4.123-3.725-4.123,3.725V984.04Z" transform="translate(-583.087 -761.692)" fill="#f5d986" fill-rule="evenodd"/>
      <path id="Path_75" data-name="Path 75" d="M765.024,984.04V932.207l-4.123-3.725-4.122,3.725V984.04Z" transform="translate(-588.777 -761.692)" fill="#f5d986" fill-rule="evenodd"/>
      <path id="Path_76" data-name="Path 76" d="M689.573,946.922V932.207l-4.124-3.725h-2.425l4.123,3.725v9.624l2.426,5.092Z" transform="translate(-567.453 -761.692)" fill="#7d5a37" fill-rule="evenodd"/>
      <path id="Path_77" data-name="Path 77" d="M709.531,976.7v-44.5l-4.124-3.725h-2.425l4.124,3.725v39.4l2.425,5.092Z" transform="translate(-573.223 -761.692)" fill="#7d5a37" fill-rule="evenodd"/>
      <path id="Path_78" data-name="Path 78" d="M729.489,984.04V932.207l-4.124-3.725H722.94l4.123,3.725V984.04Z" transform="translate(-578.994 -761.692)" fill="#7d5a37" fill-rule="evenodd"/>
      <path id="Path_79" data-name="Path 79" d="M749.447,984.04V932.207l-4.124-3.725H742.9l4.124,3.725V984.04Z" transform="translate(-584.764 -761.692)" fill="#7d5a37" fill-rule="evenodd"/>
      <path id="Path_80" data-name="Path 80" d="M769.125,984.04V932.207L765,928.481h-2.425l4.124,3.725V984.04Z" transform="translate(-590.453 -761.692)" fill="#7d5a37" fill-rule="evenodd"/>
    </g>
    <g id="_6735_-_Toxic_Fumes_Release" data-name="6735 - Toxic Fumes Release" transform="translate(291.39 609.849)">
      <path id="_326724512" d="M698.328,269.2c9.057,6.361,15.374,15.147,15.374,25.289,0,9.735-2.193,18.941-8.207,26.3-5.37,6.574-13.577,11.423-25.69,13.487-.738,2.423,5.956,17.008-3.214,31.8-7.205,13.587-19.158,13.35-25.155,13.838a24.72,24.72,0,0,1-16.445,20.908,20.943,20.943,0,0,1-2.358,8.146c-.151.287,5.427,8.924,5.427,12.89a15.692,15.692,0,0,1-6.217,12.281,21.28,21.28,0,0,1-13.245,4.49H602.486a20.992,20.992,0,0,1-19.219-29.459l.1-.218c-1.156-.831-16.817-10.734-21.834-27.106s1.269-37.517,1.765-38.381q-.268-.268-.527-.544a25.009,25.009,0,0,1-2.984-3.87,53.727,53.727,0,0,1-22.642-14.23c-6.273-6.867-9.942-15.242-9.942-24.335,0-11.954,6.319-22.655,16.534-30.293,9.711-7.261,33.074-16.038,71.722-16.289S688.851,262.541,698.328,269.2Z" transform="translate(-527.202 -253.905)" fill="#455a64"/>
    </g>
    <g id="_6740_-_Carbon_Dioxide_Gas" data-name="6740 - Carbon Dioxide Gas" transform="translate(315.622 634.956)">
      <text id="PM_10" data-name="PM 10" transform="translate(34.378 21.044)" fill="#fff" font-size="27" font-family="Bahnschrift"><tspan x="-34.356" y="0">PM 10</tspan></text>
      <text id="PM_2.5" data-name="PM 2.5" transform="translate(53.378 92.044)" fill="#fff" font-size="23" font-family="Bahnschrift"><tspan x="-33.905" y="0">PM 2.5</tspan></text>
      <text id="PM_1" data-name="PM 1" transform="translate(115.378 35.044)" fill="#fff" font-size="19" font-family="Bahnschrift"><tspan x="-18.935" y="0">PM 1</tspan></text>
    </g>
  </g>
</svg>
