<?xml version="1.0" encoding="utf-8"?>
<!-- Generator: Adobe Illustrator 23.0.1, SVG Export Plug-In . SVG Version: 6.00 Build 0)  -->
<svg version="1.1" xmlns="http://www.w3.org/2000/svg" xmlns:xlink="http://www.w3.org/1999/xlink" x="0px" y="0px"
	 viewBox="0 0 440.77 422.71" style="enable-background:new 0 0 440.77 422.71;" xml:space="preserve">
<style type="text/css">
	.st0{fill:#FFFFFF;}
	.st1{fill:none;stroke:#000000;stroke-width:4;stroke-miterlimit:10;}
	.st2{fill:#E8A646;}
	.st3{fill:#F9BB58;}
	.st4{fill:#FFD483;}
	.st5{fill:#BABACC;}
	.st6{fill:url(#SVGID_1_);}
	.st7{fill:#D6DAEA;}
	.st8{fill:#1F995A;}
	.st9{fill:#3F3C44;}
	.st10{fill:#999DAD;}
	.st11{fill:#878B9B;}
	.st12{fill:#7AAF71;}
	.st13{fill:#7E798C;}
	.st14{fill:#666072;}
	.st15{fill:#38909E;}
	.st16{fill:#3DB5C1;}
	.st17{fill:#5CD0D6;}
</style>
<g id="background">
	<line class="st0" x1="-51.94" y1="492.69" x2="-51.94" y2="-507.71"/>
	<path class="st0" d="M949.66-507.71"/>
	<line class="st0" x1="-51.94" y1="492.69" x2="-51.94" y2="-507.71"/>
	<path class="st0" d="M949.66-507.71"/>
	<g>
		<polyline class="st1" points="406.45,313.16 407.74,299.68 282.32,381.42 285,365.71 		"/>
		<line class="st1" x1="392.98" y1="298.64" x2="408.68" y2="298.84"/>
		<line class="st1" x1="299.41" y1="382.82" x2="281.41" y2="382.17"/>
	</g>
	<g>
		<polyline class="st1" points="213.14,384.6 227.18,378.98 81.79,296.32 98.76,290.94 		"/>
		<line class="st1" x1="220.66" y1="363.78" x2="228.5" y2="379.47"/>
		<line class="st1" x1="89.15" y1="314.01" x2="80.57" y2="295.8"/>
	</g>
	<g>
		<polyline class="st1" points="94.15,153.55 85.06,146.23 85.62,277.11 75.44,266.47 		"/>
		<line class="st1" x1="84.77" y1="143.39" x2="76.29" y2="154.42"/>
		<line class="st1" x1="94.73" y1="265.2" x2="85.74" y2="278.14"/>
	</g>
</g>
<g id="objects">
	<g>
		<polygon class="st2" points="103,272.97 103,281.72 253.77,368.86 253.77,360.1 		"/>
		<polygon class="st3" points="391.97,280.41 253.77,360.1 253.77,368.86 391.97,289.17 		"/>
		<polygon class="st4" points="241.19,193.28 103,272.97 253.77,360.1 391.97,280.41 		"/>
		<polygon class="st5" points="253.77,233.83 253.73,350.83 119.26,273.19 119.26,156.21 		"/>
		<linearGradient id="SVGID_1_" gradientUnits="userSpaceOnUse" x1="245.1637" y1="129.8353" x2="379.6633" y2="129.8353">
			<stop  offset="0" style="stop-color:#FB4143"/>
			<stop  offset="1" style="stop-color:#CD0000"/>
		</linearGradient>
		<polygon class="st6" points="248.96,86.83 245.16,95.2 379.63,172.84 379.66,165.53 		"/>
		<polygon class="st7" points="319.11,109.37 257.14,227.32 253.77,233.83 253.75,350.83 376.4,280.02 376.43,163.58 		"/>
		<polygon class="st8" points="322.35,111.33 257.01,235.79 256.99,243.66 322.35,122.67 379.64,172.85 379.66,165.54 		"/>
		<polygon class="st9" points="348.71,218.77 309.1,241.64 308.87,318.86 348.48,295.98 		"/>
		<polygon class="st10" points="345.06,224.93 339.65,234.3 311.97,250.28 311.97,244.04 		"/>
		<polygon class="st10" points="339.65,234.31 339.65,301.25 345.06,298.13 345.06,224.93 		"/>
		<polygon class="st5" points="349.42,217.33 349.42,217.24 308.2,241.04 308.2,241.12 308.2,246.22 308.2,319.41 312.68,316.82 
			312.68,243.64 345.06,224.94 345.06,298.13 349.54,295.54 349.54,217.26 		"/>
		<polygon class="st11" points="335.17,303.88 339.65,301.29 339.65,234.3 335.17,236.88 		"/>
		<g>
			<polygon class="st9" points="315.72,210.78 341.34,195.99 341.34,165.59 315.72,180.38 			"/>
			<polygon class="st10" points="336.62,168.15 341.37,165.4 341.37,195.97 336.62,198.71 			"/>
			<polygon class="st5" points="336.58,168.39 336.48,168.45 336.48,168.38 315.65,180.47 315.65,185.64 332,176.2 332,190.83 
				315.65,200.27 315.65,205.44 336.48,193.41 336.58,193.35 			"/>
		</g>
		<polygon class="st12" points="322.42,111.37 257.03,235.84 113.44,152.98 178.78,27.04 		"/>
		<polygon class="st11" points="315.72,205.36 315.72,210.78 341.34,195.99 336.62,193.29 		"/>
		<g>
			<g>
				<polygon class="st9" points="175.4,278.34 151.54,264.56 151.54,209.87 175.4,223.64 				"/>
				<polygon class="st11" points="154.49,209.85 149.75,207.11 149.75,266.02 154.49,268.76 				"/>
				<polygon class="st10" points="154.54,210.1 154.64,210.16 154.64,210.08 175.46,222.18 175.46,227.35 159.11,217.91 
					159.11,260.88 175.46,270.32 175.46,275.49 154.64,263.46 154.54,263.41 				"/>
			</g>
			<polygon class="st13" points="175.4,275.41 175.4,280.83 149.78,266.04 154.49,263.34 			"/>
		</g>
		<g>
			<g>
				<polygon class="st9" points="223.22,306.13 199.39,292.36 199.39,238.22 223.22,251.99 				"/>
				<polygon class="st11" points="202.32,237.45 197.57,234.71 197.57,293.62 202.32,296.36 				"/>
				<polygon class="st10" points="202.36,237.7 202.46,237.76 202.46,237.68 223.29,249.78 223.29,254.95 206.94,245.51 
					206.94,288.48 223.29,297.92 223.29,303.09 202.46,291.06 202.36,291.01 				"/>
			</g>
			<polygon class="st13" points="223.22,303.01 223.22,308.43 197.6,293.64 202.32,290.94 			"/>
		</g>
		<g>
			<polygon class="st9" points="224.15,156.21 207.09,146.36 207.09,98.01 224.15,107.86 			"/>
			<polygon class="st14" points="239.44,126.06 239.44,99.23 224.15,107.86 224.15,156.21 			"/>
			<g>
				<polygon class="st15" points="202.14,90.58 202.14,96.11 224.14,108.82 224.14,103.29 				"/>
				<polygon class="st16" points="244.31,91.66 224.14,103.29 224.14,108.82 244.31,97.19 				"/>
				<polygon class="st17" points="222.31,78.95 202.14,90.58 224.14,103.29 244.31,91.66 				"/>
				<polygon class="st14" points="210.64,90.58 222.3,83.85 235.81,91.66 224.14,98.38 				"/>
				<polygon class="st9" points="222.3,97.32 222.3,83.85 235.81,91.66 224.14,98.38 				"/>
			</g>
		</g>
		<polygon class="st8" points="113.44,152.98 113.44,160.82 256.99,243.66 256.99,235.82 		"/>
		<polygon class="st4" points="335.17,298.67 312.68,311.64 312.69,317.31 339.72,301.3 		"/>
	</g>
</g>
</svg>
