<?xml version="1.0" encoding="utf-8"?>
<!-- Generator: Adobe Illustrator 23.0.1, SVG Export Plug-In . SVG Version: 6.00 Build 0)  -->
<svg version="1.1" id="Warstwa_1" xmlns="http://www.w3.org/2000/svg" xmlns:xlink="http://www.w3.org/1999/xlink" x="0px" y="0px"
	 viewBox="0 0 824.52 573.68" style="enable-background:new 0 0 824.52 573.68;" xml:space="preserve">
<style type="text/css">
	.st0{fill-rule:evenodd;clip-rule:evenodd;fill:#67BF5A;}
	.st1{fill:#5F4B36;}
	.st2{fill:#765A3F;}
	.st3{fill-rule:evenodd;clip-rule:evenodd;fill:#1F995A;}
	.st4{fill-rule:evenodd;clip-rule:evenodd;fill:#8C8C8C;}
	.st5{fill-rule:evenodd;clip-rule:evenodd;fill:#606060;}
	.st6{fill-rule:evenodd;clip-rule:evenodd;fill:#B48888;}
	.st7{fill-rule:evenodd;clip-rule:evenodd;fill:#926767;}
	.st8{fill-rule:evenodd;clip-rule:evenodd;fill:#989090;}
	.st9{fill-rule:evenodd;clip-rule:evenodd;fill:#5A4E4E;}
	.st10{fill-rule:evenodd;clip-rule:evenodd;fill:#DAD0D0;}
	.st11{fill-rule:evenodd;clip-rule:evenodd;fill:#F2E9E9;}
	.st12{fill-rule:evenodd;clip-rule:evenodd;fill:#34271A;}
	.st13{fill-rule:evenodd;clip-rule:evenodd;fill:#7B7878;}
	.st14{fill-rule:evenodd;clip-rule:evenodd;fill:#AAAAAA;}
	.st15{fill-rule:evenodd;clip-rule:evenodd;fill:#1A130D;}
	.st16{fill-rule:evenodd;clip-rule:evenodd;fill:#89BCB3;}
	.st17{fill-rule:evenodd;clip-rule:evenodd;fill:#385657;}
	.st18{fill-rule:evenodd;clip-rule:evenodd;fill:#4C3823;}
	.st19{fill-rule:evenodd;clip-rule:evenodd;fill:#68533B;}
	.st20{fill-rule:evenodd;clip-rule:evenodd;fill:#FFFFFF;}
	.st21{fill-rule:evenodd;clip-rule:evenodd;fill:#7F7F7F;}
	.st22{fill-rule:evenodd;clip-rule:evenodd;fill:#3D3D3D;}
	.st23{fill-rule:evenodd;clip-rule:evenodd;fill:#DFB75D;}
	.st24{fill-rule:evenodd;clip-rule:evenodd;fill:#5D432A;}
	.st25{fill-rule:evenodd;clip-rule:evenodd;fill:#F5D986;}
	.st26{fill-rule:evenodd;clip-rule:evenodd;fill:#7D5A37;}
	.st27{fill:#DE4E4E;}
</style>
<g>
	<path class="st0" d="M118.82,306.84c14.31,0,44.53,10.42,44.53,73.07c0,62.65-26.39,76.73-44.67,76.73
		c-18.28,0-44.4-7.21-44.4-66.49S104.51,306.84,118.82,306.84z"/>
	<path class="st1" d="M117.17,423.31l-15.06-22.07c-0.5-0.72-0.31-1.71,0.42-2.21c0.72-0.49,1.71-0.31,2.21,0.42l12.44,18.23
		l0.05-59.4c0-0.87,0.71-1.58,1.58-1.58s1.59,0.71,1.59,1.58l-0.03,33.61l6.56-9.61c0.49-0.72,1.48-0.91,2.21-0.42
		c0.72,0.49,0.91,1.48,0.42,2.21l-9.19,13.46l-0.11,124.15h-3.17L117.17,423.31z"/>
	<path class="st0" d="M314.73,196.7c13.88,0,43.32,93.29,43.32,172.68c0,79.39-25.59,97.23-43.32,97.23
		c-17.72,0-43.05-9.14-43.05-84.26C271.68,307.22,300.85,196.7,314.73,196.7z"/>
	<path class="st2" d="M313.15,521.69l0.09-144.85l-15.05-22.05c-0.49-0.72-0.31-1.71,0.42-2.21c0.72-0.49,1.71-0.31,2.21,0.42
		l12.43,18.21l0.02-28.42c0-0.06,0-0.13,0-0.19l0.03-44.92c0-0.87,0.71-1.58,1.58-1.58c0.88,0,1.59,0.71,1.59,1.58l-0.03,39.87
		l6.53-9.56c0.49-0.72,1.48-0.91,2.21-0.42c0.72,0.49,0.91,1.48,0.42,2.21l-9.15,13.41l-0.02,32.99c0.01,0.11,0.01,0.23,0,0.34
		l-0.03,41.18l12.45-18.24c0.49-0.72,1.48-0.91,2.21-0.42c0.72,0.49,0.91,1.48,0.42,2.21l-15.08,22.09l-0.06,98.35H313.15z"/>
	<path class="st3" d="M180.36,350.8c40.62,0,62.33,118.55-0.11,118.55c-14.47,0-35.13-5.71-35.13-52.62
		C145.11,369.81,169.03,350.8,180.36,350.8z"/>
	<path class="st1" d="M178.66,415.99l-6.56-9.61c-0.49-0.72-1.48-0.91-2.21-0.42c-0.72,0.49-0.91,1.48-0.42,2.21l9.19,13.46
		l0.03,25.17c0,0.06,0,0.13,0,0.19l0.08,74.69h3.17l-0.08-74.29l15.05-22.06c0.49-0.72,0.31-1.71-0.42-2.21
		c-0.72-0.49-1.71-0.31-2.21,0.42l-12.43,18.22L181.8,389c0-0.88-0.71-1.58-1.59-1.58c-0.88,0-1.59,0.71-1.59,1.58L178.66,415.99z"
		/>
	<path class="st4" d="M54.81,521.69h731.47c2.39,0,4.35,0.64,4.35,1.42v1.53c0,0.78-1.96,1.42-4.35,1.42H54.81
		c-2.4,0-4.36-0.64-4.36-1.42v-1.53C50.45,522.33,52.41,521.69,54.81,521.69z"/>
	<path class="st5" d="M55.6,521.69h455.7l7.55,4.37H55.6c-2.83,0-5.15-0.64-5.15-1.42v-1.53C50.45,522.33,52.77,521.69,55.6,521.69z
		"/>
	<polygon class="st6" points="636.22,268.06 465.37,268.06 525.21,393.67 556.18,393.67 	"/>
	<polygon class="st7" points="465.37,268.06 443.75,268.06 363.71,393.67 525.21,393.67 	"/>
	<polygon class="st8" points="556.18,393.67 363.71,393.67 367.61,403.38 560.08,403.38 	"/>
	<polygon class="st9" points="556.18,393.67 636.22,268.06 716.26,393.67 712.35,403.38 636.22,283.89 560.08,403.38 	"/>
	<polygon class="st8" points="691.21,390.02 629.9,293.8 636.22,283.89 712.35,403.38 691.2,403.38 	"/>
	<polygon class="st10" points="691.21,390.02 629.9,293.8 560.08,403.38 555.96,403.38 555.96,521.69 691.2,521.69 	"/>
	<polygon class="st11" points="555.96,521.69 555.96,420.73 462.43,420.73 510.52,521.69 	"/>
	<polygon class="st10" points="388.76,420.73 388.76,521.69 510.52,521.69 462.43,420.73 	"/>
	<polygon class="st12" points="636.21,430.74 636.21,520.4 604.96,448.86 604.96,430.74 	"/>
	<polygon class="st13" points="636.22,430.74 642.2,430.74 642.2,521.69 636.78,521.69 636.22,520.4 	"/>
	<polygon class="st14" points="675.87,421.25 691.21,453.44 691.2,521.69 642.2,521.69 642.2,430.74 604.96,430.74 604.96,448.86 
		586.17,405.86 604.98,421.25 	"/>
	<polygon class="st15" points="604.96,448.86 636.21,520.4 636.21,521.69 604.96,521.69 	"/>
	<polygon class="st14" points="388.76,403.38 388.76,420.73 462.43,420.73 454.17,403.38 	"/>
	<polygon class="st10" points="555.96,420.73 555.96,403.38 454.17,403.38 462.43,420.73 	"/>
	<polygon class="st16" points="491.47,430.74 520.43,430.74 520.43,491.52 	"/>
	<rect x="478.56" y="430.74" class="st14" width="8.27" height="62.97"/>
	<polygon class="st17" points="486.83,430.74 491.47,430.74 520.43,491.52 520.43,493.71 486.83,493.71 	"/>
	<polygon class="st18" points="486.83,430.74 491.47,430.74 494.25,436.56 492.65,436.56 492.65,487.88 518.7,487.88 520.43,491.52 
		520.43,493.71 486.83,493.71 	"/>
	<path class="st19" d="M518.7,487.88h1.73v3.63L518.7,487.88z M491.47,430.74h28.95v5.83h-26.18L491.47,430.74z"/>
	<polygon class="st16" points="437.21,430.74 466.16,430.74 466.16,491.52 	"/>
	<rect x="424.29" y="430.74" class="st14" width="8.27" height="62.97"/>
	<polygon class="st17" points="432.56,430.74 437.21,430.74 466.16,491.52 466.16,493.71 432.56,493.71 	"/>
	<polygon class="st18" points="432.56,430.74 437.21,430.74 439.98,436.56 438.39,436.56 438.39,487.88 464.43,487.88 
		466.16,491.52 466.16,493.71 432.56,493.71 	"/>
	<path class="st19" d="M464.43,487.88h1.73v3.63L464.43,487.88z M437.21,430.74h28.96v5.83h-26.18L437.21,430.74z"/>
	<polygon class="st10" points="439.66,374.19 505.06,374.19 505.06,334.82 467.27,303.89 439.66,326.49 	"/>
	<polygon class="st16" points="474.39,326.49 493.29,326.49 493.29,366.17 	"/>
	<rect x="451.42" y="326.49" class="st14" width="8.27" height="41.87"/>
	<polygon class="st17" points="459.69,326.49 474.39,326.49 493.29,366.17 493.29,368.36 459.69,368.36 	"/>
	<polygon class="st18" points="459.69,326.49 474.39,326.49 477.17,332.32 465.52,332.32 465.52,362.53 491.56,362.53 
		493.29,366.17 493.29,368.36 459.69,368.36 	"/>
	<path class="st19" d="M491.56,362.53h1.73v3.63L491.56,362.53z M474.39,326.49h18.9v5.83h-16.13L474.39,326.49z"/>
	<polygon class="st14" points="505.06,374.19 530.15,334.82 505.06,334.82 	"/>
	<polygon class="st20" points="419.29,334.82 414.09,323.25 462.18,283.89 510.96,323.25 505.06,334.82 462.18,299.73 	"/>
	<polygon class="st8" points="545.64,334.82 556.39,323.25 510.96,323.25 505.06,334.82 	"/>
	<polygon class="st10" points="556.4,323.25 529.89,283.89 462.18,283.89 510.96,323.25 	"/>
	<polygon class="st8" points="439.65,334.75 439.65,326.49 467.27,303.89 462.18,299.73 419.29,334.82 	"/>
	<polygon class="st20" points="586.17,390.02 610.68,410.08 604.98,421.25 586.17,405.86 	"/>
	<polygon class="st8" points="679.81,421.25 685.51,410.08 610.68,410.08 604.98,421.25 	"/>
	<polygon class="st11" points="685.51,410.08 661,390.02 586.17,390.02 610.68,410.08 	"/>
	<polygon class="st17" points="604.96,448.86 623.58,491.48 623.58,521.69 604.96,521.69 	"/>
	<polygon class="st16" points="604.96,430.74 623.58,430.74 623.58,491.48 604.96,448.86 	"/>
	<rect x="559.23" y="215.7" class="st21" width="14.46" height="17.61"/>
	<rect x="548.64" y="233.32" class="st10" width="24.56" height="34.74"/>
	<rect x="573.2" y="233.32" class="st14" width="11.08" height="34.74"/>
	<rect x="569.48" y="215.7" class="st22" width="4.21" height="17.61"/>
	<polygon class="st23" points="257.76,521.69 257.76,450.36 252.09,445.23 246.42,450.36 246.42,521.69 	"/>
	<polygon class="st23" points="277.29,521.69 277.29,450.36 271.61,445.23 265.94,450.36 265.94,521.69 	"/>
	<polygon class="st23" points="296.81,521.69 296.81,450.36 291.14,445.23 285.47,450.36 285.47,521.69 	"/>
	<polygon class="st23" points="316.34,521.69 316.34,450.36 310.66,445.23 304.99,450.36 304.99,521.69 	"/>
	<polygon class="st23" points="335.86,521.69 335.86,463.6 328.04,447.17 324.51,450.36 324.51,521.69 	"/>
	<polygon class="st23" points="355.38,521.69 355.38,504.58 344.04,480.76 344.04,521.69 	"/>
	<polygon class="st24" points="261.1,521.69 261.1,450.36 255.43,445.23 252.09,445.23 257.76,450.36 257.76,521.69 	"/>
	<polygon class="st24" points="280.63,521.69 280.63,450.36 274.95,445.23 271.61,445.23 277.29,450.36 277.29,521.69 	"/>
	<polygon class="st24" points="300.15,521.69 300.15,450.36 294.48,445.23 291.14,445.23 296.81,450.36 296.81,521.69 	"/>
	<polygon class="st24" points="319.67,521.69 319.67,450.36 314,445.23 310.66,445.23 316.34,450.36 316.34,521.69 	"/>
	<polygon class="st24" points="339.2,521.69 339.2,470.61 335.86,463.6 335.86,521.69 	"/>
	<polygon class="st24" points="358.72,521.69 358.72,511.59 355.38,504.58 355.38,521.69 	"/>
	<polygon class="st25" points="335.86,463.6 335.86,450.36 330.19,445.23 328.04,447.17 	"/>
	<polygon class="st25" points="355.38,504.58 355.38,450.36 349.71,445.23 344.04,450.36 344.04,480.76 	"/>
	<polygon class="st25" points="374.91,521.69 374.91,450.36 369.23,445.23 363.56,450.36 363.56,521.69 	"/>
	<polygon class="st25" points="394.43,521.69 394.43,450.36 388.76,445.23 383.09,450.36 383.09,521.69 	"/>
	<polygon class="st25" points="413.68,521.69 413.68,450.36 408.01,445.23 402.34,450.36 402.34,521.69 	"/>
	<polygon class="st26" points="339.2,470.61 339.2,450.36 333.52,445.23 330.19,445.23 335.86,450.36 335.86,463.6 	"/>
	<polygon class="st26" points="358.72,511.59 358.72,450.36 353.05,445.23 349.71,445.23 355.38,450.36 355.38,504.58 	"/>
	<polygon class="st26" points="378.25,521.69 378.25,450.36 372.57,445.23 369.23,445.23 374.91,450.36 374.91,521.69 	"/>
	<polygon class="st26" points="397.77,521.69 397.77,450.36 392.1,445.23 388.76,445.23 394.43,450.36 394.43,521.69 	"/>
	<polygon class="st26" points="417.02,521.69 417.02,450.36 411.35,445.23 408.01,445.23 413.68,450.36 413.68,521.69 	"/>
	<path class="st27" d="M566.42,112.19c-10.95,0-19.84-8.89-19.84-19.84s8.89-19.84,19.84-19.84s19.84,8.89,19.84,19.84
		S577.37,112.19,566.42,112.19z M566.42,36.81c-30.71,0-55.54,24.83-55.54,55.54c0,41.66,55.54,103.15,55.54,103.15
		s55.54-61.49,55.54-103.15C621.96,61.65,597.13,36.81,566.42,36.81z"/>
</g>
</svg>
