<?xml version="1.0" encoding="utf-8"?>
<!-- Generator: Adobe Illustrator 23.0.1, SVG Export Plug-In . SVG Version: 6.00 Build 0)  -->
<svg version="1.1" id="_x30_5" xmlns="http://www.w3.org/2000/svg" xmlns:xlink="http://www.w3.org/1999/xlink" x="0px" y="0px"
	 viewBox="0 0 3353.81 2862.17" style="enable-background:new 0 0 3353.81 2862.17;" xml:space="preserve">
<style type="text/css">
	.st0{fill:#2A95C5;}
	.st1{fill:#34A2CF;}
	.st2{fill:#14678E;}
	.st3{fill:#7AAF71;}
	.st4{fill:#1F995A;}
	.st5{fill:#225889;}
	.st6{fill:#BADBB4;}
	.st7{fill:#AED9FF;}
	.st8{opacity:0.1;}
	.st9{fill:#D7EAFF;}
	.st10{fill:#CCEEFF;}
	.st11{fill:#FFE0C2;}
	.st12{fill:#FFD1AB;}
	.st13{fill:#FFA233;}
	.st14{fill:#FC8A24;}
	.st15{fill:#FFBF40;}
	.st16{fill:#87563D;}
	.st17{fill:#DDA064;}
	.st18{fill:#FFFFFF;}
	.st19{opacity:0.27;fill:#AECFEF;}
	.st20{opacity:0.27;fill:#9ABEDB;}
	.st21{opacity:0.39;fill:#AECFEF;}
	.st22{fill:#F3F8FF;}
	.st23{fill:#97CBF2;}
	.st24{fill:#69B2D6;}
	.st25{opacity:0.15;}
	.st26{fill:#AF7337;}
	.st27{fill:#9299A5;}
	.st28{fill:#B0B6C1;}
	.st29{fill:#363B4C;}
</style>
<g>
	<line class="st0" x1="0" y1="2604.33" x2="0" y2="0"/>
	<g>
		<path class="st1" d="M2702.65,1105.31c-8.77,0-15.87-7.11-15.87-15.87V935.95c0-8.77,7.11-15.87,15.87-15.87"/>
		<path class="st1" d="M2754.18,2174.49c0-8.77,7.11-15.87,15.87-15.87"/>
		<path class="st1" d="M2770.06,2343.85"/>
	</g>
	<line class="st2" x1="-489.74" y1="3120" x2="-489.74" y2="2604.33"/>
	<g>
		<path class="st3" d="M3066.32,2692.37c-1,1.09-2.14,2.14-3.38,3c-3.62,2.66-8.23,4.28-13.56,4.28h-195.81
			c-15.8,0-26.93-13.51-26.03-27.74c0.1-1.09,0.24-2.19,0.43-3.28c0.14-0.57,0.24-1.09,0.38-1.67c0.57-2.19,1.43-4.33,2.66-6.42
			c0.05,0,0.05-0.05,0.05-0.05l18.84-44.87c5.62-13.32,6.42-28.26,2.24-42.16l-2.62-8.8l-182.91-725.47l-0.62,2.95
			c-0.24,1.14-0.57,2.66-0.95,4.47c-15.13,72.57-136.61,654.24-146.94,692.73c-1.38,5.19-2.9,10.52-4.43,15.94
			c0,0-0.81,0.19-2.28,0.48c-0.71,0.14-1.62,0.29-2.67,0.48c-1.09,0.14-2.28,0.33-3.62,0.52c-0.67,0.1-1.38,0.19-2.09,0.29
			c-1.43,0.14-2.9,0.33-4.52,0.48c-0.14,0.05-0.33,0.05-0.48,0.05c-11.42,1.09-27.69,1.33-43.82-2.66
			c-0.86-0.19-1.71-0.43-2.57-0.67c-3.43-0.9-6.8-2.05-10.09-3.43c-1.67-0.71-3.28-1.43-4.9-2.24
			c-10.56-5.19-20.18-12.99-27.31-24.46l36.07-721.28l7.76-155.7l4.81-96.12l0.05-1.24l1.57-30.83
			c62.81,38.88,137.76,49.01,207.32,46.3c100.74-3.9,190.24-34.69,215.27-44.02c4.04-1.52,6.38-2.47,6.85-2.66
			c0.05-0.05,0.09-0.05,0.09-0.05c-0.14,2.81-0.24,5.76-0.29,8.8c-0.14,7.57-0.05,15.56-0.29,23.17
			c-0.29,8.14-0.43,16.42-0.52,24.89c-0.1,11.66-0.1,23.65-0.1,36.02v0.19c0.05,8.95,0.05,18.08,0.05,27.46
			c0,45.01,0.9,93.65,2.47,144.28c8.95,285.7,39.59,634.54,54.72,757.54c2.38,19.13,4.38,34.69,5.85,45.97
			c1.67,13.28,10.14,24.65,22.27,30.17l89.79,40.92C3075.37,2666.96,3074.89,2683.04,3066.32,2692.37z"/>
		<path class="st4" d="M2803.88,1646.32c0,0,5.08,110.74,86.56,137.01c-1.55-50.64-2.48-99.27-2.48-144.3
			C2867.2,1647.59,2835.7,1655.81,2803.88,1646.32z"/>
		<path class="st4" d="M2853.56,2699.64h195.83c22.32,0,31.7-28.48,13.72-41.73l-89.82-40.92c-12.13-5.54-20.58-16.89-22.28-30.15
			c-1.47-11.31-3.45-26.85-5.81-45.99c-23.17,15.34-59.17,32.55-95.67,23.79l2.63,8.8c4.18,13.91,3.37,28.83-2.25,42.2l-18.87,44.87
			C2820.97,2677.87,2833.49,2699.64,2853.56,2699.64z"/>
		<path class="st4" d="M2335.42,2699.64h170.43c9.04,0,17.37-5.23,20.99-13.51c3.75-8.57,4.12-20.21-10.15-31.86
			c-24.33-19.84-13.45-61.45-2.98-99c0,0-74.36,17.2-104.35-31.15l-1.05,19.57c0,0-4.42,72.5-35.14,92.26
			c-23.84,15.32-54.72,24.93-56.49,44.15C2315.69,2690.72,2324.74,2699.64,2335.42,2699.64z"/>
		<path class="st4" d="M2445.39,1802.82c96.29-19.37,102.02-145.03,102.02-145.03c-36.93,11.04-73.39-1.01-94.27-10.66
			L2445.39,1802.82z"/>
		<polygon class="st5" points="2666.64,1839.17 2658.36,1808.51 2513.7,2555.27 		"/>
		<path class="st6" d="M2888.55,1476.45c-1.24,0.52-4.47,1.81-9.61,3.62c-30.69,10.85-127.81,39.35-240.68,13.37
			c-2.47-0.57-4.95-1.14-7.47-1.81c-10.42-2.57-21.03-5.66-31.69-9.28c-2.95-1-5.95-2.05-8.95-3.19
			c-35.78-13.09-72.38-32.26-108.35-59.72l-13.94-159.17l-1.48-16.99l-3.38-38.5l-0.52-6.38l-0.19-2.09l-13.94-158.74v-0.48
			l-14.47-164.59v-0.09h0.1l75.8-19.6l21.79-5.66h0.05l37.02-9.56c0,0,27.03-6.42,27.6-6.42c0,0.09,0.05,0.24,0.05,0.38
			c0.05,0.14,0.05,0.33,0.05,0.52c0.14,1.28,0.33,3.71,0.71,6.9c0.19,1.43,0.38,3,0.67,4.66c0.1,0.71,0.24,1.48,0.38,2.24
			c0.05,0.43,0.14,0.86,0.24,1.28c0.24,1.38,0.52,2.85,0.9,4.38c0,0.14,0.05,0.24,0.1,0.38c0.19,1,0.48,2,0.76,3
			c0.24,1,0.52,2.05,0.86,3.09c0.29,1.05,0.62,2.09,1,3.14c0.33,1,0.67,2,1.05,3c0.62,1.67,1.33,3.33,2.09,5
			c0.24,0.52,0.48,1.05,0.76,1.57c0.71,1.62,1.57,3.19,2.47,4.71c0.57,1.05,1.24,2.09,1.9,3.09c0.62,1,1.33,2,2.09,2.95
			c0.33,0.52,0.71,1,1.14,1.48c0.71,0.95,1.52,1.86,2.38,2.76c0.38,0.48,0.81,0.9,1.28,1.33c2.19,2.24,4.62,4.28,7.28,6.04
			c1.05,0.76,2.19,1.43,3.33,2.05c1.14,0.67,2.38,1.28,3.62,1.81c0.52,0.29,1.09,0.52,1.67,0.71c0.14,0.1,0.29,0.14,0.43,0.19
			c1.19,0.48,2.47,0.9,3.76,1.28c0.71,0.24,1.43,0.43,2.14,0.57c0.81,0.24,1.67,0.43,2.52,0.57c1.19,0.29,2.38,0.48,3.62,0.62
			c1,0.14,2,0.29,3,0.33c0.52,0.05,1,0.1,1.52,0.1c1.14,0.09,2.33,0.14,3.52,0.14c18.27,0.14,32.74-16.13,42.73-32.83
			c0.57-1,1.14-2,1.71-2.95c2.71-4.85,5.09-9.61,7.04-13.94c0.19-0.38,0.38-0.76,0.52-1.14c3.43-7.66,5.57-13.85,6.42-16.32
			c0.05-0.14,0.1-0.29,0.14-0.43c0.05-0.24,0.14-0.38,0.14-0.52c0.05-0.14,0.1-0.24,0.1-0.24l74.66,23.46l11.75,3.66v0.05l9.61,3
			l14.75,4.66l57.58,18.08c0,0,0,0,0.05,0.05l2.28,160.6l1.66,116.25l0.19,15.46l0.1,6.14l0.1,6.19l0.19,16.84l0.14,9.04l0.09,10.94
			l0.38,29.6l1.28,105.45l0.19,14.42L2888.55,1476.45z"/>
		<path class="st4" d="M2889.12,1518.51c0,0-0.05,0-0.09,0.05c-0.43,0.29-2.76,1.71-6.76,4.04c-9.18,5.19-27.27,14.85-51.82,25.03
			c-0.05,0-0.05,0-0.05,0c-82.13,34.12-236.45,73.85-370.82-28.69l0.33-12.04l7.19-245.63v-0.05l-1.33-18.37l-2.81-38.07
			c0,0,0,0,0.05,0s0.05,0,0.1,0c0.38-0.09,1.38-0.24,2.9-0.57c2.24-0.48,5.52-1.33,9.52-2.71c0.14-0.09,0.33-0.14,0.48-0.19
			c4.76-1.67,10.42-4.14,16.37-7.61c8.99-5.28,18.65-12.94,26.74-23.98c3.9-5.23,7.38-11.28,10.28-18.18
			c2.14-4.95,3.95-10.42,5.33-16.37c3.28-13.85,4.38-30.45,2.19-50.3c-7.19-64.52-15.51-135-20.99-181.11
			c-3.76-30.93-6.14-50.96-6.14-50.96s9.9-9.66,21.79-5.66c0,0,1.81,13.56,4.52,34.4c0.05,0.38,0.1,0.81,0.14,1.19
			c0.1,0.52,0.19,1.19,0.29,2.05c0.05,0.57,0.14,1.14,0.19,1.71c0.48,3.38,0.9,6.9,1.38,10.56c0.71,5.52,1.47,11.33,2.24,17.37
			c0.52,4.04,1.05,8.18,1.57,12.37c0.57,4.24,1.09,8.52,1.62,12.9c4.38,34.83,9.09,73.33,12.42,103.78
			c1.24,11.42,2.33,21.7,3.09,30.22c0.52,5.57,1.48,10.56,2.9,15.04c0.57,1.9,1.28,3.76,2,5.47c7.23,16.75,20.94,25.12,36.26,29.03
			c1.43,0.33,2.9,0.67,4.33,0.95c15.99,3.19,33.12,2.09,46.2,0.86c2.57-0.24,5-0.48,7.19-0.67c0.24-0.05,0.43-0.1,0.62-0.1
			c1.05-0.05,2-0.14,2.95-0.24c3.95-0.33,9.28-0.67,15.42-1.14c1.09-0.1,2.24-0.19,3.38-0.24c3.09-0.24,6.42-0.52,9.8-0.86
			c7.04-0.67,14.66-1.52,22.27-2.71c0.05,0,0.1,0,0.1,0c31.74-5.09,64.72-15.94,65.67-42.21c1.57-42.64,20.22-212.94,20.65-216.65
			v-0.05c0,0,14.47-3.28,24.36,7.71c0,0-6.42,53.72-12.04,107.02c0,0,0,0.05-0.05,0.19v0.05c0,0.05,0,0.14-0.05,0.24
			c0,0.19-0.05,0.57-0.1,1c-0.24,2.43-0.52,4.85-0.76,7.28c-0.05,0.81-0.14,1.62-0.24,2.43c-0.43,4.04-0.86,8.04-1.24,11.99
			c-0.05,0.67-0.1,1.38-0.19,2.05c-0.43,4.04-0.81,8.04-1.19,11.99c-0.05,0.52-0.09,1.09-0.14,1.62c-0.43,4-0.81,7.9-1.14,11.71
			c0,0.43-0.05,0.81-0.1,1.24c-0.38,4.19-0.71,8.18-1.05,12.04c-0.1,0.95-0.14,1.9-0.24,2.85c-0.14,1.67-0.29,3.28-0.38,4.85
			c-0.76,9.99-1.28,18.32-1.38,24.08c-0.62,31.31,13.7,78.89,48.58,98.69c2.76,1.57,5.62,2.95,8.57,4.14
			c7.38,2.9,15.46,4.71,24.41,4.95c0.14,0.05,0.29,0.05,0.43,0.05h0.05l0.05,6.14l0.1,6.85l0.29,21.79l0.19,14.37v0.71l0.33,28.88
			l1.28,105.45h0.05l0.14,14.42l1.24,99.5v0.05l0.05,2.14L2889.12,1518.51z"/>
		<path class="st6" d="M2339.29,1150.04c20.83,2.92,69.57,11.8,105.16,34.47c6.59,4.17,12.68,8.85,18.11,14.01L2434,872.43
			c0,0-16.82,13.61-32.99,76.79C2390.43,990.52,2359.46,1087.72,2339.29,1150.04z"/>
		<path class="st7" d="M2465.77,1242.86c-4.56-3-16.61-10.99-22.7-14.54c-23.67-13.78-63.99-33.52-114.88-44.25
			c-1.27-0.25-2.54-0.55-3.85-0.8c-3.85-0.76-6.09-4.82-4.73-8.5l7.4-20.03c1.31-3.51,4.86-5.66,8.58-5.2
			c1.1,0.17,2.32,0.34,3.68,0.51c20.84,2.92,69.57,11.79,105.2,34.49c4.35,2.75,11.96,7.61,17.79,11.79l0.72,8.45L2465.77,1242.86z"
			/>
		<path class="st4" d="M2888.84,1527.32c-0.14,7.57-0.05,15.56-0.29,23.17c-0.29,8.14-0.43,16.42-0.52,24.89
			c-0.67,0.29-1.33,0.57-2,0.81c-64.43,26.69-243.87,82.7-428.07-25.17l0.05-1.24l1.57-30.83l0.33-12.04
			c42.45,22.46,115.34,52.77,206.99,58.34c49.58,3.14,104.73-1.05,163.5-17.61c0,0,0,0,0.05,0c17.13-4.85,34.59-10.8,52.34-17.89
			C2884.79,1528.98,2886.84,1528.17,2888.84,1527.32z"/>
		<path class="st8" d="M2449.16,1231.96c5.75-67.79-0.89-196.49-0.89-196.49l18.22,207.9
			C2466.49,1243.37,2460.4,1238.76,2449.16,1231.96z"/>
		<g>
			<circle class="st9" cx="2560.24" cy="1141.76" r="15.19"/>
			<circle class="st10" cx="2562.96" cy="1140.02" r="10.16"/>
		</g>
		<g>
			<circle class="st9" cx="2778.81" cy="1132.24" r="13.18"/>
			<circle class="st10" cx="2781.18" cy="1130.74" r="8.81"/>
		</g>
		<path class="st8" d="M2712.35,1119.06c-20.37,3.21-40.24,4.02-50.85,4.94c-27.18,2.41-96.66,13.57-102.49-50.34
			c-4.14-45.44-16.27-140.83-22.91-192.14c0,0,23.73,185.22,44.31,215.19c20.54,29.92,78.13,25.9,131.72,22.35H2712.35z"/>
		<path class="st8" d="M2884.88,1178.32c-59.34-1.61-82.8-67.88-82.04-107.82c0.34-16.4,3.76-53.51,7.82-91.55
			c-2.16,22.44-10.19,130.94,30.94,164.5c14.67,12,29.59,17.54,43.07,19.44L2884.88,1178.32z"/>
		<path class="st11" d="M2712.33,833.06c0,0-21.37,68.66-58.81,68.38c-55.39-0.38-56.58-66.62-57.29-70.28
			c0,0,13.75-1.09,19.27-21.56c1.43-5.09,2.28-11.42,2.33-19.27c0-0.95-0.05-1.95-0.05-2.95c-0.9-41.92,88.65-27.08,88.65-27.08
			s-1.76,12.85-2.52,27.74c-0.43,8.85-0.52,18.46,0.33,26.5C2705.28,824.17,2707.62,831.59,2712.33,833.06z"/>
		<path class="st12" d="M2704.24,814.55c-37.07,13.32-74.28,1.05-88.74-4.95c1.43-5.09,2.28-11.42,2.33-19.27l77.04,0.43
			c0,0,3.66-1.19,9.04-2.71C2703.48,796.9,2703.38,806.51,2704.24,814.55z"/>
		<g>
			<path class="st13" d="M2859,587.61c-2.37,0.03-5.69-0.13-9.74-0.45c-2.5-0.17-5.27-0.42-8.31-0.68
				c-7.53-0.73-16.58-1.73-26.47-2.97c-6.99-0.81-14.41-1.74-22.01-2.7c-2.87-0.35-5.77-0.71-8.71-1.1
				c-32.02-4.14-65.97-8.75-85.49-10.74c-19.72-2.06-74-4.92-122.78-10.8c-9.11-1.14-18.05-2.35-26.55-3.68
				c-1.21-0.17-2.43-0.38-3.61-0.58c-1.58-0.25-3.14-0.5-4.72-0.78c-1.55-0.25-3.07-0.53-4.58-0.81
				c-5.69-1.05-11.05-2.15-16.03-3.34c-3.84-0.89-7.43-1.84-10.76-2.85c-15.75-4.72-25.1-10.45-23.54-17.48
				c3.18-13.86,25.85-13.07,57.11-15.25c6.82-0.48,14.09-1.08,21.63-2.02c4.42-0.58,8.94-1.23,13.54-2.05
				c48.38-8.59,263.57,22.89,304.51,58.29C2906.04,588.02,2859,587.61,2859,587.61z"/>
			<path class="st11" d="M2801.36,719.97c-4.01-1.88-7.92-4.77-11.6-8.8c-5.19,13.03-11.48,25.85-19.11,37.65
				c-24.33,37.71-74.7,66.19-120.67,61.61c-65.73-6.51-97.21-49.15-110.71-101.29c-0.03,0-0.03,0-0.03,0
				c-4.97-19.08-7.5-39.44-8.47-59.76c-0.23-4.92-0.36-9.87-0.39-14.75c-0.32-22.87,1.23-45.01,3.42-64.32
				c0.69-6.31,1.47-12.35,2.25-17.99c1.52,0.28,3.03,0.56,4.58,0.81c1.55,0.28,3.13,0.53,4.72,0.78c1.18,0.2,2.39,0.41,3.61,0.58
				c8.5,1.33,17.44,2.54,26.55,3.68c48.77,5.88,103.05,8.74,122.78,10.8c19.52,1.99,53.46,6.59,85.49,10.74
				c2.94,0.39,5.84,0.74,8.71,1.1c7.59,0.96,15.02,1.89,22.01,2.7c0,0-0.01,2.84-0.23,7.92c-0.04,0.37-0.06,0.74-0.07,1.15
				c-0.56,11.06-2.12,31.2-6.53,54.92l0.03-0.03c0,0,6.96-1.73,15.26-0.51c3.41,0.47,7.07,1.46,10.54,3.29
				c7.14,3.66,13.57,10.82,15.93,24.2C2854.76,705.15,2826.09,731.52,2801.36,719.97z"/>
			<path class="st14" d="M2535.17,518.46c0.04,8.34,36.16,9.21,133.13,16.45c96.92,7.31,185.41,32.6,185.57,26.89
				c3-123.41-48.11-192.39-144.95-199.68C2611.96,354.88,2534.43,412.05,2535.17,518.46z"/>
			<g>
				<path class="st13" d="M2520.88,519.65c2.66-88.01,82.81-166.76,179.73-159.52c1.67,0.14,26.04,0.78,45.26,8.05
					c-14.18,7.34-20.43,17.11-25.17,24.09c-26.34,38.66-36.87,100.09-29.92,146.21C2602.59,533.62,2520.6,527.6,2520.88,519.65z"/>
			</g>
			<path class="st14" d="M2579.16,523.62c4.61-50.09,32.03-134.41,69.33-145.67c-17.6-6.47-30.65,11.76-45.9,36.07
				c-15.19,24.3-47.66,102.04-40.99,106.46C2568.21,524.8,2579.16,523.62,2579.16,523.62z"/>
			<path class="st15" d="M2829.64,576.57c0,0-218.05-20.48-255.43-31.55C2574.21,545.02,2735.22,550.32,2829.64,576.57z"/>
			
				<ellipse transform="matrix(0.0289 -0.9996 0.9996 0.0289 1981.5825 3317.0166)" class="st16" cx="2697.93" cy="638.67" rx="17.12" ry="10.4"/>
			
				<ellipse transform="matrix(0.0289 -0.9996 0.9996 0.0289 1888.1533 3209.9287)" class="st16" cx="2596.1" cy="633.21" rx="17.12" ry="10.4"/>
			<g>
				<path class="st17" d="M2644.72,703.61c0.05,0,0.09,0,0.14,0c1.48-0.09,2.6-1.36,2.51-2.84c-0.09-1.48-1.28-2.61-2.84-2.51
					c-3.36,0.32-16.64-3.12-18.25-7.41c-0.62-1.65,1.41-3.66,3.21-5.05c15.4-11.85,17.98-34.3,18.08-35.25
					c0.16-1.47-0.9-2.79-2.37-2.95c-1.48-0.17-2.79,0.9-2.95,2.37c-0.02,0.21-2.46,21.14-16.02,31.58
					c-5.87,4.52-5.94,8.57-4.96,11.17C2624.24,700.64,2640.81,703.75,2644.72,703.61z"/>
			</g>
			<path class="st16" d="M2729.9,604.28c0,0,12.56,2.58,12.74,6c0.18,3.42-3.32,6.27-20.69,0.79c-17.37-5.48-29.41-3.85-37.5,1.57
				c-8.09,5.42-9.09-4.76-0.22-8.38C2693.1,600.64,2696.07,596.76,2729.9,604.28z"/>
			<path class="st16" d="M2789.76,711.17c-5.19,13.03-11.48,25.85-19.11,37.65c-24.33,37.71-74.7,66.19-120.67,61.61
				c-65.73-6.51-97.21-49.15-110.71-101.29c1.53,1.06,41.75,31.75,96.48,6.39c2.56-1.18,5.19-0.64,7.49,1
				C2657.64,726.78,2700.67,756.96,2789.76,711.17z"/>
			<path class="st16" d="M2619.66,597.5c0,0,12.56,2.58,12.74,6c0.18,3.42-3.32,6.27-20.69,0.79c-17.37-5.48-29.41-3.85-37.5,1.57
				c-8.09,5.42-9.09-4.76-0.22-8.38C2582.86,593.85,2585.84,589.97,2619.66,597.5z"/>
			<path class="st18" d="M2609.89,737.98c10.42,2.6,37.02,8.22,58.85,4.28c3.51-0.63,6.28,2.92,4.84,6.19
				c-4.01,9.08-13.49,22.67-34.28,22.95c-23.24,0.31-30.77-20.29-33.02-29.85C2605.77,739.38,2607.73,737.44,2609.89,737.98z"/>
			<path class="st12" d="M2834.94,677.24c-13.42-20.68-40.02-14.66-40.02-14.66c3.7-8.47,7.95-56.84,9.08-70.34
				c-166.31-5.61-238.79-15.09-270.21-21.92c0.69-6.32,1.48-12.37,2.26-18.01c12.11,2.23,25.56,4.15,39.46,5.85
				c48.8,5.88,103.07,8.74,122.79,10.81c19.52,2,53.45,6.59,85.49,10.72c10.63,1.36,21.1,2.69,30.72,3.82c0,0-0.03,2.86-0.25,7.9
				l0.02,0c-0.04,0.37-0.06,0.75-0.07,1.16c-0.56,11.07-2.13,31.21-6.53,54.92l0.04-0.03c0,0,13.88-3.42,25.8,2.76
				c7.12,3.68,13.57,10.83,15.91,24.23c5.35,30.71-23.3,57.06-48.03,45.5c-4.04-1.86-7.94-4.77-11.61-8.79
				C2819.67,734.67,2848.35,697.95,2834.94,677.24z"/>
			<path class="st16" d="M2533.8,570.31c-2.18,19.31-3.74,41.45-3.42,64.32c-0.13-0.27-0.26-0.55-0.38-0.82
				c-11.35-26.95-9.98-84.83-9.98-84.83c4.98,1.19,10.33,2.3,16.03,3.34C2535.27,557.96,2534.49,564,2533.8,570.31z"/>
			<path class="st16" d="M2840.95,586.47c-0.31,1.45-10.33,46.68-18.01,60.48c-8.3-1.22-15.26,0.51-15.26,0.51l-0.03,0.03
				c4.41-23.72,5.98-43.86,6.53-54.92c0.01-0.41,0.02-0.78,0.07-1.15c0.21-5.07,0.23-7.92,0.23-7.92
				C2824.37,584.74,2833.42,585.75,2840.95,586.47z"/>
		</g>
		<path class="st12" d="M2705.52,850.58c-9.04,20.32-26.93,51.06-52.01,50.87c-45.01-0.29-54.25-44.11-56.48-62.48
			c0,0,12.42,54.77,52.44,55.25C2682.02,894.54,2699.96,862.57,2705.52,850.58z"/>
		<path class="st11" d="M2993.81,1373.48l-53.58,1.76l-52.87,1.71h-0.05l-126.67,4.09h-0.05l-116.15,3.76l0.71-74.47l54.29-15.85
			c0,0,0.05,0,0.19-0.05c0.1,0,0.24-0.05,0.38-0.1l172.73-50.49c7.09-2.14,12.09-8.38,12.75-15.66v-0.71
			c0.05-0.29,0.05-0.62,0.05-0.95l-0.09-7.38l0.09-0.05c0.19-0.05,0.62-0.14,1.33-0.24c0.38-0.1,0.86-0.19,1.43-0.29
			c1.52-0.29,3.66-0.67,6.33-1.05c1.05-0.19,2.19-0.33,3.43-0.52c1.81-0.24,3.81-0.52,5.95-0.81c0.76-0.1,1.57-0.19,2.38-0.29
			c28.69-3.33,82.37-5.95,131.52,11.8c6.28,16.18,8.33,22.08,13.94,36.4C3069.94,1310.62,3042.49,1362.34,2993.81,1373.48z"/>
		<path class="st6" d="M3037.91,1227.7c-49.16-17.71-102.82-15.09-131.52-11.76c-13.07,1.53-20.95,3.2-20.95,3.2l-0.5-34.69
			l-1.98-138.23l-2.25-160.26c0,0,31.09,8.38,44.7,48.39c7.3,21.4,53.84,142.06,95.61,249.79
			C3026.78,1199,3032.46,1213.6,3037.91,1227.7z"/>
		<path class="st4" d="M3039.17,1228.15c-0.41-0.14-0.86-0.32-1.26-0.45c-49.16-17.71-102.82-15.09-131.52-11.76
			c-13.07,1.53-20.95,3.2-20.95,3.2l-0.5-34.69c5.59-1.4,11.13-2.61,16.63-3.6c52.36-9.69,98.04-1.85,119.44,3.29
			c1.94,0.45,3.65,0.9,5.18,1.31c4.82,1.26,8.65,4.78,10.32,9.46l9.37,26.63C3047.37,1225.68,3043.32,1229.64,3039.17,1228.15z"/>
		<path class="st8" d="M2906.39,1215.94c-13.07,1.53-20.95,3.2-20.95,3.2l-4.73-189.42l2.25,16.49l18.61,134.63L2906.39,1215.94z"/>
		<path class="st12" d="M2893.55,1255.37c-17.35,4.28-182.7,36.86-193.52,38.97l172.7-50.51c7.66-2.25,12.89-9.33,12.8-17.3
			l-0.09-7.39l0.09-0.05c0.9-0.18,8.61-1.71,20.86-3.15C2906.39,1215.94,2911.49,1250.91,2893.55,1255.37z"/>
		<path class="st8" d="M2889.12,1518.51c-0.14,2.81-0.24,5.76-0.29,8.8c-0.14,7.57-0.05,15.56-0.29,23.17
			c-0.29,8.14-0.43,16.42-0.52,24.89c-0.1,11.66-0.1,23.65-0.1,36.02c0-4.23-0.71-17.37-1.9-35.21c-0.86-13.42-2-29.55-3.24-46.44
			c-0.14-2.38-0.33-4.76-0.52-7.14c-0.05-0.48-0.05-0.9-0.09-1.38c-1.05-13.7-2.09-27.74-3.24-41.16
			c-3.04-37.97-6.14-71.14-7.76-78.66c-4-18.13-107.4-20.32-110.54-20.37l126.67-4.09h0.05l1.19,99.5v0.05l0.05,2.14
			L2889.12,1518.51z"/>
		<path class="st11" d="M2645.19,1310.35c0,0-13.4-20.38-37.73-21.12s10.22,22.39,10.22,22.39s30.03,22.56,29.02,20.87
			C2645.68,1330.81,2645.19,1310.35,2645.19,1310.35z"/>
	</g>
	<path class="st19" d="M671.12,210.4c-17.21,17.8-22.47,39.39-14.73,54.23c-1.81,2.9-3.53,5.69-5.22,8.57
		c-23.81,13.76-50.77,27.28-61.45,55.98c-4.47,3.01-8.63,6.24-12.55,10.41c-15.23,15.92-21.57,40.77-16.43,54.95
		c-5.19,3.6,2.11,14.79-2.69,19.79c-25.11,26.92-29.78,62.31-9.64,79.33c6.19,5.27,14.05,7.73,22.68,8.47
		c-0.45,2.23-0.69,4.65-1.14,6.63c-34.31,32.24-15.38,48.2,14.02,58.27c0.87,9.38,4.67,17.86,11.36,23.94
		c15,12.83,39.54,10.34,60.08-4.11c48.26,22.32-30.64,80.66,43.16,77.09c-1.75,35.82,20.79,49,77.07,59.36
		c1.9,15.08,8.18,28.64,19.21,38.38c26.16,22.77,67.92,15.69,96.06-14.95c28.78,80.49,34.42,124.44,153.59,76.49
		c-0.62,16.44,62.97,43.48,75.49,50.63c5.92,20.96,22.57,56.54,40.47,70.75c33.75,27.52,58.8,18.08,92.82-4.16
		c6.59,15.38,2.84,45.04,63.83,63.98c19.76,6.32,89-7.77,107.98-8.15c40.26,97.52,326.95-20.45,291.88-42.09
		c-34.26-21.53-38.47-117.8-57-196.87c-9.27-39.89-67.61-37.53-93.42-58.75c-2.57-27.38-6.65-62.7-13.89-91.41
		c-10-40.03-61.78-43.88-76.83-43.84c0.91-1.27,1.94-2.23,2.73-3.65c21.74-34.8,7.89-78.96-29.61-98.8
		c-0.21-0.08-0.57-0.18-0.86-0.34c-9.11-7.61-21.56-16.9-39.04-28.53c-44.74-29.28-45.8-42.1-55.12-57.99
		c0.28-20.86-11.1-40.71-32.27-51.43c-12.51-6.09-26.26-8.35-39.94-7.03c-1.47-0.95-2.69-1.68-4.07-2.52
		c4.88-22.4-5.52-44.67-28.07-55.69c-22.57-11.16-51.03-7.85-72.51,5.79c-1.18-0.82-2.18-1.68-3.22-2.52
		c0.06-0.16,0.23-0.37,0.33-0.58c20.68-26.36,14.19-58.22-13.56-71.34c-20.28-9.78-46.71-6.67-67.15,5.79
		c-3.43-1.41-6.99-2.98-10.79-4c-3.83-0.95-8.04-2.32-12.41-3.62c0.52-14.97-6.84-28.43-21.76-35.6
		c-16.39-7.99-37.65-6.31-56.21,2.48c-14.51-6.87-27.95-13.73-38.87-19c-26.02-13.02-62.94,8.07-102.87,24.23
		c-2.53-3.01-5.43-5.57-9.05-7.54c-21.39-11.39-55.15-2.52-76.33,19.93c-1.49,1.61-2.82,3.22-4.02,4.84
		c-7.26,2.94-14.77,6.66-22.45,10.91C718.44,181.22,690.37,190.36,671.12,210.4z"/>
	<path class="st20" d="M750.75,335.86c-18.46,39.35-16.92,80.03,1.06,103.95c-1.4,5.5-2.91,11.1-4.09,16.82
		c-29.61,32.05-63.98,65.43-66.93,117.54c-4.96,6.38-9.78,13.49-13.73,21.92c-14.95,31.3-12.78,73.19,1.11,92.99
		c-5.84,7.77,9.62,21.75,5.16,31.28c-23.86,49.68-14.58,102.82,20.54,118.11c10.64,4.95,22.29,5.39,34.25,2.63
		c0.27,3.36,0.8,6.92,0.93,9.89c-33.02,56.99-1.72,70.31,40.41,71.48c4.55,11.64,12.43,20.74,23.24,25.4
		c23.24,10.39,53.07-2.18,74.28-28.49c65.54,8.86-12.99,109.53,74.02,76.52c7.11,41.73,36.25,47.69,102.09,38.25
		c5,15.44,14.6,28.18,28.7,34.27c32.3,14.17,75.42-8.7,100.66-51.71c40.65,73.54,51.16,115.08,164.49,25.03
		c0.26,17.18,62.76,21.69,74.81,24.15c6.15,18.37,22.68,45.79,38.83,53.47c30.52,13.47,52.37-3.42,82.51-35.17
		c5.32,11.89,1.97,40.03,53.33,36.72c16.4-0.86,74.31-35.28,90.04-41.43c25.66,70.49,233.19-187.66,208.24-198.8
		c-24.9-11.24,13.95-26.49,10.42-101.17c-1.82-39.78-52.11-19.97-71.75-35.64c1.39-29.91,2.31-68.65-0.51-100.02
		c-3.87-45.15-51.82-35.18-66.21-30.77c1.1-1.72,2.18-3.2,3.24-5.18c24.47-49.77,16.54-103.12-18.17-118.78
		c-0.29-0.13-0.41-0.1-0.93-0.24c-8.15-7.88-19.77-16.89-36.51-27.91c-44.1-28.4-44.22-46.25-53.09-66.99
		c1.66-31-9.3-57.89-32.29-68.19c-13.37-6.19-28.94-5.58-44.01-0.05c-1.63-1.13-2.86-1.87-4.66-2.61
		c6.47-37.04-4.8-70.21-31.08-82.26c-26.59-11.92-60.59,1.03-86.33,30.25c-1.41-1.19-2.72-2.39-4.08-3.58
		c0.07-0.1,0.23-0.21,0.5-0.83c24.63-50.43,16.05-104.29-19.19-120.32c-26.31-12.12-60.14,0.81-85.62,29.18
		c-4.64-1.67-9.36-3.29-14.51-3.94c-5-0.93-10.69-2.26-16.48-3.52c-0.73-27.68-12.03-50.71-33.1-60.31
		c-23.34-10.75-52.46-1.61-76.57,20.48c-21.33-9.24-41.53-18.47-58.09-26.02c-40.54-18.35-89.14,34.17-143.2,77.8
		c-4.65-4.96-9.69-9.19-15.53-12.07c-35.49-16.02-83.85,12.12-108,62.76c-1.71,3.36-2.86,6.98-4.14,10.46
		c-9.97,8.12-20.22,17.53-30.12,28.43C811.36,264.72,771.78,291.84,750.75,335.86z"/>
	<path class="st21" d="M1362.37,265.39c-26.05,35.05-33.43,74.8-21.59,101.07c-2.5,5.11-5.17,10.28-7.52,15.67
		c-35.06,26.05-74.96,52.63-89.12,102.7c-6.1,5.38-12.2,11.46-17.75,18.93c-21.01,27.84-28.04,68.85-19.16,90.46
		c-7.28,6.5,4.33,22.75-1.97,31.23c-33.41,44.19-36.2,97.32-6.18,118.16c9.05,6.6,19.99,9,31.92,8.37
		c-0.48,3.31-0.76,6.84-1.25,9.74c-43.75,49.7-16.94,67.96,22.8,76.24c1.83,12.11,7.27,22.24,16.49,28.59
		c19.8,14.05,50.86,6.88,76.72-15.04c60.25,19.77-36.18,104.14,53.62,86.86c-2.39,41.71,24,52.45,88.49,54.45
		c1.39,15.87,7.73,29.86,19.76,38.17c27.63,19.26,73.51,4.38,106.78-33.11c22.61,78.31,23.58,120.43,150.67,52.29
		c-3.52,16.71,54.85,31.69,65.73,36.14c1.82,18.89,11.54,48.32,25.2,58.51c26.03,18.25,50.47,5.58,85.96-20.13
		c2.44,12.49-6.84,39.23,42.59,44.7c15.76,1.97,78.23-21.6,94.47-24.89c9.02,72.76,262.09-142.51,240.84-157.59
		c-21.18-15.11,18.99-23.35,31.89-96.43c6.92-38.93-45.11-28.25-60.31-46.78c7.78-28.82,17.1-66.24,21.24-97.14
		c6.18-44.53-41.51-42.99-56.15-41.17c1.44-1.44,2.77-2.74,4.24-4.45c34.06-44.15,38.14-97.27,8.63-118.36
		c-0.29-0.19-0.41-0.18-0.85-0.41c-6.08-9.03-15.1-19.74-28.6-33.33c-35.68-35.01-31.89-52.35-35.8-74.01
		c8.29-29.77,3.75-57.77-15.81-71.67c-11.34-8.25-26.27-10.36-41.78-7.54c-1.26-1.36-2.24-2.29-3.86-3.3
		c14.22-34.86,10.75-68.97-11.57-85.17c-22.64-16.07-57.7-9.28-88.51,14.7c-1.07-1.37-2.05-2.74-3.06-4.11
		c0.07-0.11,0.27-0.18,0.63-0.75c34.32-44.75,37.94-98.5,7.95-120.05c-22.29-16.25-57.21-9.45-87.6,13.77
		c-4.04-2.35-8.12-4.79-12.88-6.3c-4.55-1.75-9.65-3.98-14.85-6.18c5.3-27-0.45-51.31-18.32-64.17
		c-19.77-14.43-49.45-10.5-77.11,6.84c-18.27-12.57-35.41-25.02-49.49-35.11c-34.46-24.73-91.98,18.04-152.79,51.2
		c-3.34-5.62-7.22-10.58-12.14-14.38c-30.21-21.6-82.19-2.5-116.15,42.56c-2.32,2.97-4.19,6.3-6.16,9.44
		c-11.2,6.23-23,13.58-34.77,22.49C1435.41,206.63,1391.88,226.27,1362.37,265.39z"/>
	<path class="st7" d="M1801.09,810.48c-27.75-1.02-50.45-11.09-74.05-10.58l0,0v-57.8c29.06,0.38,54.67,7.81,67.36,10.07l0,0
		c0-0.14,0-0.29,0-0.45l0,0V342.71c-0.05-37.23-30.19-67.31-67.36-67.36l0,0H0v-57.79h1727.04c69.08,0.05,125.1,56.01,125.1,125.15
		l0,0v409.01c-0.16,14.79-2.09,29.17-12.62,42.24l0,0c-10.5,12.74-26.19,16.54-36.98,16.54l0,0
		C1802.05,810.5,1801.56,810.49,1801.09,810.48L1801.09,810.48z"/>
	<g>
		<path class="st22" d="M1430.29,729.31v1873.52h0.25c2.84,30.19,160.92,54.51,355.85,54.51c194.91,0,353.03-24.32,355.83-54.51
			h0.28V729.31H1430.29z"/>
		<g>
			<path class="st10" d="M1430.29,2605.06h0.25c2.32,24.83,109.85,45.68,256.39,52.28V731.52h-256.64V2605.06z"/>
		</g>
	</g>
	<path class="st22" d="M2142.51,728.09c0,15.28-159.43,27.67-356.11,27.67c-196.67,0-356.1-12.39-356.1-27.67
		c0-15.28,159.43-27.67,356.1-27.67C1983.08,700.43,2142.51,712.82,2142.51,728.09z"/>
	<g>
		<g>
			<path class="st7" d="M2415.15,1303.5V610.56c-0.08-42.51-34.49-76.9-76.96-76.97l0,0H1978.9v-38.53h359.29
				c63.76,0,115.5,51.72,115.5,115.5l0,0v692.94H2415.15L2415.15,1303.5z"/>
			<path class="st22" d="M2338.19,495.05H1978.9v16.07h345.59c62.48,0,113.15,50.66,113.15,113.14v678.85l16.05,0.39V610.56
				C2453.7,546.77,2401.95,495.05,2338.19,495.05z"/>
		</g>
		<g>
			<path class="st7" d="M2465.16,1139.23c0,3.92-5.63,7.11-12.55,7.11h-37.51c-6.93,0-12.52-3.19-12.52-7.11v-57.15
				c0-3.92,5.59-7.12,12.52-7.12h37.51c6.92,0,12.55,3.2,12.55,7.12V1139.23z"/>
			<g>
				<path class="st10" d="M2447.9,1583.57c0,9.23-6.25,16.71-13.97,16.71l0,0c-7.7,0-13.94-7.48-13.94-16.71l-5.18-35.56
					c0-9.22,11.42-16.7,19.12-16.7l0,0c7.72,0,19,7.48,19,16.7L2447.9,1583.57z"/>
				<path class="st23" d="M2487.99,1145.14c0,12.63-10.2,22.85-22.82,22.85h-62.58c-12.62,0-22.86-10.22-22.86-22.85l0,0
					c0-12.63,10.24-22.86,22.86-22.86h62.58C2477.78,1122.27,2487.99,1132.51,2487.99,1145.14L2487.99,1145.14z"/>
				<g>
					<path class="st7" d="M2616.97,1489.19c0,38.33-36.9,69.4-82.4,69.4h-201.41c-45.52,0-82.41-31.07-82.41-69.4v-262.21
						c0-38.32,36.89-69.4,82.41-69.4h201.41c45.49,0,82.4,31.08,82.4,69.4V1489.19z"/>
					<g>
						<path class="st22" d="M2616.97,1489.19v-262.21c0-38.32-36.9-69.4-82.4-69.4h-139.2v401.01h139.2
							C2580.07,1558.59,2616.97,1527.52,2616.97,1489.19z"/>
					</g>
					<g>
						<rect x="2250.76" y="1268.42" class="st7" width="364.92" height="17.67"/>
						<rect x="2250.76" y="1256.98" class="st22" width="364.92" height="17.67"/>
					</g>
				</g>
			</g>
		</g>
	</g>
	<path class="st7" d="M1763.92,2482.52c0-34.53,28.01-62.55,62.56-62.55c34.56,0,62.56,28.02,62.56,62.55
		c0,34.56-28,62.56-62.56,62.56C1791.93,2545.07,1763.92,2517.08,1763.92,2482.52z"/>
	<path class="st7" d="M1958.04,1632.33V472.64c-0.05-37.23-30.2-67.34-67.42-67.38l0,0H0v-57.76h1890.62
		c69.11,0.05,125.15,56.04,125.15,125.15l0,0l0.05,1159.69H1958.04L1958.04,1632.33z"/>
	<path class="st10" d="M1808.84,2503.37v-38.5h81.81c42.5-0.05,76.91-34.48,77.02-77.02l0,0V1204.08h38.5v1183.77
		c-0.05,63.84-51.73,115.52-115.52,115.52l0,0H1808.84L1808.84,2503.37z"/>
	<g>
		<path class="st10" d="M1508.17,344.28l-21.57-28.64l-52.62-7.15c-26.55,3.02-48.88,19.32-60.25,42.3l-8.6,59.87l10.22,15.34
			c23.75,31.88,46.65,36,67.38,36c42.62,0,77.2-34.56,77.2-77.19C1519.93,369.89,1515.48,356.08,1508.17,344.28z"/>
		<path class="st10" d="M1396.3,336.86h-77c-5.33,0-9.62,4.31-9.62,9.62v51.56c-6.77,1.43-12.64,3.01-12.55,4.21
			c0.32,2.81,15.05,22.86,15.05,22.86h0.07c1.77,1.92,4.22,3.17,7.05,3.17h77c5.32,0,9.62-4.29,9.62-9.61v-72.19
			C1405.93,341.17,1401.62,336.86,1396.3,336.86z"/>
		<path class="st22" d="M1393.1,399.43c0,5.33-4.3,9.64-9.64,9.64h-77.01c-5.3,0-9.62-4.31-9.62-9.64v-72.18
			c0-5.32,4.32-9.62,9.62-9.62h77.01c5.34,0,9.64,4.31,9.64,9.62V399.43z"/>
		<g>
			<path class="st22" d="M1344.96,363.35c0-44.29,35.92-80.19,80.24-80.19c44.28,0,80.18,35.89,80.18,80.19
				c0,44.32-35.9,80.22-80.18,80.22C1380.88,443.58,1344.96,407.67,1344.96,363.35z"/>
			<path class="st10" d="M1425.2,299.17c-35.43,0-64.18,28.72-64.18,64.18c0,35.45,28.75,64.17,64.18,64.17
				c35.45,0,64.17-28.72,64.17-64.17C1489.36,327.9,1460.64,299.17,1425.2,299.17z M1425.2,413.1c-27.5,0-49.75-22.26-49.75-49.74
				c0-27.5,22.26-49.74,49.75-49.74c27.48,0,49.73,22.24,49.73,49.74C1474.93,390.84,1452.68,413.1,1425.2,413.1z"/>
		</g>
	</g>
	<path class="st10" d="M1695.78,403.7c0,5.29-3.2,9.61-7.16,9.61h-102.03c-3.96,0-7.14-4.32-7.14-9.61v-54.56
		c0-5.33,3.18-9.64,7.14-9.64h102.03c3.96,0,7.16,4.31,7.16,9.64V403.7z"/>
	<g>
		<path class="st24" d="M1650.04,421.54c0,3.93-3.19,7.11-7.1,7.11h-13.03c-3.96,0-7.12-3.18-7.12-7.11v-60.48
			c0-3.92,3.17-7.09,7.12-7.09h13.03c3.91,0,7.1,3.17,7.1,7.09V421.54z"/>
		<path class="st24" d="M1646.43,427.52l-19.23,10.82l-7.22-10.22c0,0,6.61-8.42,9.02-8.42c2.41,0,13.87,0,16.25,2.4
			C1647.64,424.52,1646.43,427.52,1646.43,427.52z"/>
		<path class="st24" d="M1636.4,475.07c0,5.3-4.31,9.62-9.62,9.62l0,0c-5.32,0-9.61-4.32-9.61-9.62v-51.32
			c0-5.33,4.29-9.62,9.61-9.62l0,0c5.32,0,9.62,4.29,9.62,9.62V475.07z"/>
	</g>
	<path class="st10" d="M2215.29,535.33c0,3.94-2.38,7.16-5.29,7.16h-75.77c-2.91,0-5.28-3.22-5.28-7.16v-40.47
		c0-3.98,2.37-7.15,5.28-7.15H2210c2.91,0,5.29,3.17,5.29,7.15V535.33z"/>
	<g>
		<path class="st24" d="M2181.34,548.59c0,2.91-2.37,5.27-5.28,5.27h-9.67c-2.93,0-5.27-2.35-5.27-5.27v-44.87
			c0-2.93,2.34-5.28,5.27-5.28h9.67c2.91,0,5.28,2.35,5.28,5.28V548.59z"/>
		<path class="st24" d="M2178.68,553.02l-14.27,8.04l-5.41-7.6c0,0,4.94-6.24,6.69-6.24c1.82,0,10.3,0,12.09,1.78
			C2179.57,550.8,2178.68,553.02,2178.68,553.02z"/>
		<path class="st24" d="M2171.22,588.32c0,3.94-3.18,7.14-7.15,7.14l0,0c-3.92,0-7.14-3.19-7.14-7.14v-38.09
			c0-3.94,3.22-7.15,7.14-7.15l0,0c3.97,0,7.15,3.2,7.15,7.15V588.32z"/>
	</g>
	<path class="st7" d="M1470.64,2342.95v-89.81c-0.1-44.65-36.23-80.78-80.83-80.89l0,0v-30.77c61.64,0,111.6,49.96,111.6,111.66l0,0
		v89.81H1470.64L1470.64,2342.95z"/>
	<path class="st7" d="M1811.08,2464.9l-0.8-79.46c-0.1-44.63-36.2-80.73-80.83-80.83l0,0h-228.03v-30.79h228.03
		c61.68,0,111.63,49.94,111.63,111.62l0,0l0.8,79.46H1811.08z"/>
	<rect x="1339.27" y="2418.79" class="st22" width="30.09" height="25.25"/>
	<path class="st22" d="M1370.42,2459.06c-0.22-0.56,0-7.24,0-7.24l-29.48-0.91c-0.5,8.99,1.31,17.6-2.51,27.19
		c-3.48,6.5-9.45,7.72-14.03,7.72h-39.09c-21.27,0-38.51,17.22-38.51,38.48c0,1.04,0.37,1.99,0.46,3.02
		c6.79,2.21,13.34,2.33,22.38,2.71c1.53-14.42,7.52-22.27,37.29-22.56h40.92C1369.19,2508.06,1374.64,2477.07,1370.42,2459.06z"/>
	<path class="st22" d="M1378.23,2448.52c0,6.15-4.98,11.13-11.11,11.13h-24.08c-6.12,0-11.11-4.98-11.11-11.13l0,0
		c0-6.17,5-11.14,11.11-11.14h24.08C1373.26,2437.38,1378.23,2442.35,1378.23,2448.52L1378.23,2448.52z"/>
	<g>
		<g>
			<path class="st10" d="M1396.84,2421.09c4.98,5.46,4.15,12.8-2.05,16.36c-6.27,3.54-15.26,1.73-19.96-3.91
				c-4.53-5.44-3.3-12.5,2.66-15.79C1383.4,2414.33,1391.99,2415.82,1396.84,2421.09z"/>
			<path class="st10" d="M1338.87,2447.68c5.08,7.24,3.05,16.87-4.77,21.33c-7.8,4.47-18.14,1.81-22.88-5.74
				c-4.56-7.29-2.09-16.48,5.35-20.66C1323.98,2438.42,1333.89,2440.68,1338.87,2447.68z"/>
			<path class="st10" d="M1388.73,2424.48c2.26,3.13-11.84,13.1-31.73,22.31c-20.13,9.32-38.08,14.21-39.94,10.78
				c-1.82-3.36,12.79-13.41,32.45-22.55C1368.97,2426.09,1386.4,2421.43,1388.73,2424.48z"/>
		</g>
		<g>
			<path class="st10" d="M1409.94,2466.51c-3.98,7.95-15.11,10.31-24.5,5.35c-9.16-4.93-13.05-14.91-8.99-22.36
				c4.08-7.23,14.49-9.62,23.53-5.18C1409.29,2448.81,1413.85,2458.66,1409.94,2466.51z"/>
			<path class="st10" d="M1334.45,2432.58c-3.74,5.84-12.22,7.8-18.81,4.34c-6.43-3.36-8.41-10.65-4.68-16.3
				c3.7-5.44,11.71-7.35,18.09-4.28C1335.59,2419.48,1338.04,2426.78,1334.45,2432.58z"/>
			<path class="st10" d="M1395.45,2459.95c-1.65,3.41-21.56-2.8-43.15-13.12c-20.29-9.8-34.46-19.54-32.64-22.52
				c1.73-2.88,18.72,1.97,38.93,11.22C1380.08,2445.44,1397.16,2456.56,1395.45,2459.95z"/>
		</g>
	</g>
	<path class="st7" d="M1497.27,2312.33l-89.84,0.26c-24.31-0.21-44.51,6.47-56.29,22.86c-11.41,16.14-13.17,35.68-13.32,58.89
		c0,8.86,0.35,18.37,0.88,28.62l1.2-0.1c2.13,1.16,7.66,2.01,14.37,2.01c8.51,0,15.39-1.35,15.39-3.01c0-0.17-0.36-0.32-0.48-0.48
		l0.3-0.02c-0.52-9.99-0.84-19.01-0.84-27.01c-0.17-21.33,2.82-34.97,7.4-40.8c4.19-5.62,11.08-9.88,31.48-10.16l89.85-0.27
		L1497.27,2312.33z"/>
	<ellipse class="st25" cx="709.36" cy="2698.78" rx="548.53" ry="52.08"/>
	<ellipse class="st25" cx="2716.33" cy="2699.65" rx="548.53" ry="52.08"/>
	<g>
		<g>
			<path class="st6" d="M439.51,2021.8C439.51,2021.8,439.15,2021.64,439.51,2021.8c10.77,6.87,199.96,123.3,410.47,14.41
				l45.74-170.81l10-37.33l2.17-8.22l84.16-314.07l-71.35-32.47l-20.53-9.37l-34.8-15.84c0,0-25.5-11.01-26.07-11.11
				c-0.26,0.68-0.9,3.47-2.15,7.55c-5.39,17.7-22.08,59.26-66.46,51.73c-24.73-4.16-37.02-37.54-42.4-59.12
				c-0.12-0.41-0.2-0.76-0.29-1.11c-0.57-2.23-0.82-3.57-0.82-3.57c-1.85-8.15-2.56-13.74-2.56-13.74l-77.6,10.15l-12.21,1.57
				c0,0,0,0-0.01,0.05l-9.99,1.29l-15.34,2.03l-59.89,7.81l-51.92,272.01l-2.87,15.2l-2.32,12.1L439.51,2021.8z"/>
			<path class="st4" d="M431.65,2063.13c0,0,194.17,126.85,410.99,14.7l10.88-43.02l42.85-169.74l9.35-37.02
				c0,0-1.05-0.36-2.89-1.11c-11.4-4.71-52.54-25.52-55.67-79.89c-0.84-14.22,0.96-30.77,6.56-49.91
				c18.27-62.31,38.69-130.26,52.1-174.72c9.03-29.82,14.88-49.14,14.88-49.14s-8.11-11.21-20.5-9.36c0,0-4.14,13.05-10.42,33.1
				c-15.43,49.38-43.93,141.23-55.89,185.25c-16.83,61.93-83.32,38.88-109.67,31.8c-10.29-2.76-29.71-6.99-49.22-13.69
				c-0.04-0.01-0.08-0.01-0.08-0.01c-30.38-10.5-60.96-26.92-57.37-52.93c5.86-42.27,17.04-213.21,17.27-216.95l0.01-0.04
				c0,0-13.71-5.76-25.35,3.35c0,0-2.99,54.02-6.7,107.48c0,0-0.01,0.04,0.01,0.17l-0.01,0.08c-0.01,0.04-0.02,0.12,0,0.22
				c-0.04,0.21-0.06,0.59-0.09,1.01c-2.67,39.06-5.8,77.52-8.38,94.1c-6.18,39.47-40.78,100.67-99.5,91.96l-2.31,12.13
				l-53.03,280.86l-0.42,2.12L431.65,2063.13z"/>
			<path class="st3" d="M1143.77,2699.64H980.13c-12.99,0-21.84-13.13-16.89-25.12l12.28-30.45c2.52-6.19,3.52-12.8,2.9-19.41
				l-3.81-48.2l-22.17-280.37l-0.24-1.81c-1.86-9.52-11.42-15.7-21.03-13.37l-199,48.16l84.08,271.23
				c12.04,56.77-37.64,107.45-94.6,96.5l-322.34-61.72l-35.07-6.71c-9.85-1.86-19.75,2.85-24.46,11.75l-29.22,54.67
				c-2.43,5.71-10.99,4.04-11.18-2.14l-1.43-157.17c-0.14-13.23,14.66-21.08,25.51-13.61l6.61,4.47c3.85,2.66,8.37,4.09,13.04,4.09
				l82.89,2l166.36,4c12.32,0,20.51-12.71,15.42-23.98c0,0-3.19-4.66-8.61-12.8c-4.28-6.33-8.47-12.61-12.51-18.8
				c-12.75-19.18-29.98-45.4-47.96-73.52c-0.05-0.05-0.1-0.14-0.1-0.19c-15.32-23.98-31.17-49.34-45.21-72.99
				c-16.85-28.41-31.22-54.34-38.88-72.14c-0.05-0.19-0.1-0.33-0.19-0.52c-12.99-29.88-16.7-61.76-19.18-85.99
				c-4.71-45.78-3.47-112.39-3.47-112.39s7.85,0.48,21.41,1.33c41.64,2.52,136.95,8.19,222.93,12.09
				c85.03,3.81,160.93,5.85,166.74,1.47c40.49-10.71,118.01-10.42,184.1-7.66c31.07,1.33,58.29,15.7,76.85,37.45
				c18.75,21.94,28.69,51.34,24.93,82.46l-43.97,400.76l-3.47,31.17c-0.76,6.28,1.95,12.47,7.09,16.13l61.1,44.02
				C1156.86,2687.79,1153.05,2699.64,1143.77,2699.64z"/>
			<path class="st11" d="M365.79,1873.62l320.94,67.28l11.43-68.91l-47.57-23.47c0,0-0.04-0.01-0.16-0.07
				c-0.08-0.01-0.2-0.08-0.36-0.15l-151.33-74.76c-6.71-3.33-10.39-10.71-9.01-18.07l1.29-6.81l-0.08-0.06
				c-0.8-0.31-7.67-2.98-18.76-6.31c-25.97-7.75-75.12-18.9-123.42-10.53c-8.47,13.96-11.31,19.06-18.81,31.39
				C305.67,1803.17,322.64,1855.43,365.79,1873.62z"/>
			<path class="st6" d="M348.77,1731.77c48.29-8.36,97.44,2.78,123.42,10.53c11.82,3.54,18.83,6.36,18.83,6.36l6.1-31.97
				l24.32-127.38l28.16-147.69c0,0-30.08,2.68-49.17,37.43c-10.23,18.58-72.86,122.48-128.97,215.21
				C363.72,1707.06,356.1,1719.63,348.77,1731.77z"/>
			<path class="st4" d="M347.53,1731.98c0.4-0.06,0.84-0.15,1.24-0.21c48.29-8.36,97.44,2.78,123.42,10.53
				c11.82,3.54,18.83,6.36,18.83,6.36l6.1-31.97c-4.93-2.2-9.86-4.22-14.77-6.04c-46.79-17.47-90.28-17.66-110.88-16.4
				c-1.86,0.1-3.52,0.24-5,0.36c-4.66,0.38-8.77,3-11.07,7.06l-12.99,23.08C340.36,1728.35,343.46,1732.68,347.53,1731.98z"/>
			<path class="st8" d="M472.19,1742.3c11.82,3.54,18.83,6.36,18.83,6.36l35.19-174.22l-4.76,14.87l-39.1,121.35L472.19,1742.3z"/>
			<path class="st12" d="M477.64,1780.81c15.33,6.78,162.79,63.78,172.44,67.49l-151.33-74.76c-6.71-3.33-10.39-10.71-9.01-18.07
				l1.29-6.81l-0.08-0.06c-0.8-0.31-7.67-2.98-18.76-6.31C472.19,1742.3,461.8,1773.77,477.64,1780.81z"/>
			<g>
				<circle class="st9" cx="820.88" cy="1749.12" r="15.19"/>
				<circle class="st10" cx="818.5" cy="1746.94" r="10.16"/>
			</g>
			<path class="st4" d="M980.11,2699.65h163.65c9.3,0,13.14-11.88,5.62-17.33l-61.12-44.04c-5.11-3.68-7.82-9.85-7.06-16.1
				l3.42-31.15c-22.11,5.58-67.46,11.83-110.02-14.58l3.8,48.18c0.63,6.64-0.38,13.27-2.87,19.44l-12.34,30.43
				C958.3,2686.55,967.13,2699.65,980.11,2699.65z"/>
			<path class="st4" d="M297.94,2535.45l1.48,157.19c0.17,6.21,8.71,7.86,11.12,2.11l29.21-54.65c4.73-8.88,14.67-13.61,24.51-11.75
				l35.04,6.72c-7.69-40.83,13.57-82,26.71-102.62l-82.88-2.03c-4.65,0-9.21-1.39-13.06-4.06l-6.59-4.52
				C312.61,2514.4,297.81,2522.26,297.94,2535.45z"/>
			<g>
				<circle class="st9" cx="607.27" cy="1701.83" r="13.18"/>
				<circle class="st10" cx="605.2" cy="1699.94" r="8.81"/>
			</g>
			<path class="st8" d="M675.01,1700.39c19.51,6.7,38.93,10.93,49.22,13.69c26.35,7.09,92.84,30.13,109.67-31.8
				c11.96-44.03,40.45-135.87,55.89-185.25c0,0-55.5,178.3-80.96,204.24c-25.42,25.91-81.44,11.95-133.6-0.84L675.01,1700.39z"/>
			<path class="st8" d="M494.82,1728.82c58.72,8.71,93.32-52.49,99.5-91.96c2.51-16.21,5.58-53.35,8.18-91.52
				c-1.77,22.48-12.68,130.72-59,156.64c-16.53,9.28-32.18,12.14-45.79,11.68L494.82,1728.82z"/>
			<path class="st11" d="M724.64,1418.73c0,0,9.13,71.33,46.06,77.54c54.61,9.23,67.28-55.79,68.61-59.28
				c0,0-13.35-3.46-15.24-24.57c-0.52-5.26-0.27-11.64,1.05-19.38c0.17-0.94,0.39-1.91,0.56-2.9c8.16-41.13-82.61-42.04-82.61-42.04
				s-0.49,12.96-2.33,27.76c-1.11,8.79-2.69,18.27-4.93,26.04C733.12,1411.18,729.53,1418.09,724.64,1418.73z"/>
			<path class="st12" d="M736.8,1398.18c34.2,19.55,74.31,28.32,89.59,24.93c-0.52-5.26-2.59-22.34-1.28-30.08l-75.95-12.94
				c0,0-3.4-1.81-8.43-4.24C739.63,1384.64,738.48,1389.8,736.8,1398.18z"/>
			<path class="st4" d="M435.13,2175.51c1.46,24.27,6.18,56.08,19.18,85.99c0.11,0.16,0.16,0.32,0.22,0.49
				c7.64,17.83,22,43.73,38.85,72.17c75.05-41.89,77.05-131.51,77.05-131.51C499.88,2217.89,453.88,2189.28,435.13,2175.51z"/>
			<path class="st12" d="M728.3,1437.15c5.38,21.58,17.67,54.96,42.4,59.12c44.38,7.53,61.07-34.03,66.46-51.73
				c0,0-21.73,51.79-61.23,45.31C743.83,1484.53,731.7,1449.93,728.3,1437.15z"/>
			<path class="st8" d="M538.59,2407.14c-15.32-23.98-31.17-49.34-45.21-72.99c-16.85-28.41-31.22-54.34-38.88-72.14
				c-0.05-0.19-0.1-0.33-0.19-0.52c-12.99-29.88-16.7-61.76-19.18-85.99c-4.71-45.78-3.47-112.39-3.47-112.39s7.85,0.48,21.41,1.33
				l0.29,10.9C453.37,2075.34,419.11,2206.67,538.59,2407.14z"/>
			<path class="st8" d="M1103.71,2107.79c-47.54-49.92-244.11-25.27-244.11-25.27c-110.3,56.86-206.71,41.59-206.71,41.59
				l21.08-43.4c11.8-0.52,23.27-1.48,34.26-2.86c65.81,2.67,120.58,3.81,132.48,0.95c0.95-0.24,1.67-0.52,2.05-0.81
				c40.49-10.71,118.01-10.42,184.1-7.66C1057.93,2071.67,1085.15,2086.04,1103.71,2107.79z"/>
			<path class="st4" d="M853.51,2034.79l-10.85,43.02c-0.67,0.33-1.28,0.67-1.95,1c-66.43,33.98-130.71,45.54-187.82,45.3
				c-128.67-0.52-221.22-61-221.22-61l7.38-39.21c85.18,47.3,166.35,59.86,234.92,56.82c11.8-0.52,23.27-1.48,34.26-2.86
				C776.09,2069.63,828,2047.59,853.51,2034.79z"/>
			<path class="st11" d="M694.96,1862.65c0,0,13.08-19.89,36.83-20.61c23.75-0.72-8.94,21.15-8.94,21.15s-30.34,22.73-29.35,21.08
				C694.48,1882.62,694.96,1862.65,694.96,1862.65z"/>
			<g>
				<path class="st26" d="M692.95,1200.17l-0.02-0.04c0,0-11.61-7.84-24.67-6.2c-6-18.05,6.85-63.37,6.85-63.37
					c8.26,2.38,19.9,5.3,33.23,8.44C708.33,1139,699.02,1164.63,692.95,1200.17z"/>
				<path class="st13" d="M1001.82,1207.96c-7.81-0.47-16.85-1.67-26.75-3.37c-11.89-2.05-24.92-4.84-38.28-7.98
					c-46.89-11.12-97.79-26.86-116.63-31.64c-18.63-4.77-51.41-12.04-82.28-19.09c-10.25-2.35-20.32-4.67-29.55-6.89
					c-13.33-3.13-24.97-6.05-33.23-8.44c-3.83-1.08-6.93-2.04-9.11-2.88c0,0-43.42-15.56-14.85-26.34
					c49.63-18.7,258.3,25.22,299.88,49.51c3.95,2.31,7.88,4.44,11.76,6.45c6.64,3.43,13.1,6.44,19.22,9.2
					c28.03,12.58,49.14,19.52,47.38,33.39C1028.46,1206.86,1017.88,1208.95,1001.82,1207.96z"/>
				<path class="st11" d="M947.04,1295.68c-28.95,68.61-78.61,130.02-164.21,107.81c-43.84-11.37-80.54-54.63-90.14-97.54
					c-3.03-13.46-4.49-27.38-4.84-41.14c-4.74,2.46-9.32,3.82-13.66,4.16c-26.67,2.26-44.11-31.69-28.78-58.13
					c6.69-11.54,15.04-15.93,22.84-16.9c13.06-1.64,24.67,6.2,24.67,6.2l0.02,0.04c3.98-23.3,9.36-42.37,12.59-52.74
					c0.13-0.38,0.24-0.73,0.33-1.09c1.52-4.74,2.47-7.35,2.47-7.35c9.23,2.22,19.31,4.54,29.55,6.89
					c30.87,7.05,63.65,14.31,82.28,19.09c18.84,4.77,69.74,20.52,116.63,31.64c13.36,3.15,26.39,5.93,38.28,7.98
					c-1.19,5.45-2.52,11.28-4.02,17.33C965.53,1244.36,957.77,1270.34,947.04,1295.68z"/>
				<path class="st26" d="M1001.82,1207.96c0,0-2.19,5.79-6.07,14.53c0,0-0.01,0.03-0.05,0.05c-8.8,19.82-26.36,54.71-46.93,71.77
					c-0.58,0.47-1.12,0.93-1.73,1.36c10.73-25.34,18.49-51.32,24.01-73.75c1.5-6.05,2.83-11.88,4.02-17.33
					C984.97,1206.29,994.02,1207.49,1001.82,1207.96z"/>
				<path class="st14" d="M987.35,1173.73c-2.87,7.66-36.38-3.78-128.05-29.95c-91.65-26.1-181.62-32.8-179.84-38.11
					c39.03-114.56,109.42-160.71,200.98-134.62C972.1,997.24,1024.06,1076.09,987.35,1173.73z"/>
				<g>
					<path class="st13" d="M1000.08,1179.67c27.36-81.87-19.71-181.47-111.33-207.63c-1.58-0.44-24.22-8.1-44.37-7.92
						c10.55,11.56,13,22.66,15,30.69c11.14,44.49,0.03,104.58-21.99,144.65C920.19,1164.85,997.65,1187.08,1000.08,1179.67z"/>
				</g>
				<path class="st14" d="M945.12,1163.58c12.73-47.64,16.05-134.51-14.45-157.5c18.38,0.01,24.22,21.2,30.01,48.73
					c5.75,27.5,9.28,110.02,1.66,111.83C954.8,1168.38,945.12,1163.58,945.12,1163.58z"/>
				<path class="st15" d="M696.74,1127.47c0,0,207.55,55.01,245.68,57.48C942.43,1184.95,792.51,1135.3,696.74,1127.47z"/>
				<path class="st26" d="M692.69,1305.94c-12.51-14.6-18.5-36.98-18.5-36.98c4.34-0.34,8.92-1.69,13.66-4.16
					C688.21,1278.56,689.67,1292.48,692.69,1305.94z"/>
				
					<ellipse transform="matrix(0.3182 -0.948 0.948 0.3182 -630.2552 1609.4655)" class="st16" cx="803.83" cy="1242.91" rx="16.01" ry="9.73"/>
				
					<ellipse transform="matrix(0.3182 -0.948 0.948 0.3182 -594.1641 1714.2494)" class="st16" cx="894.72" cy="1270.21" rx="16.01" ry="9.73"/>
				<g>
					<path class="st17" d="M829.92,1320.3c-0.04-0.01-0.08-0.03-0.12-0.04c-1.3-0.47-1.97-1.91-1.5-3.21c0.47-1.3,1.84-2,3.21-1.5
						c2.93,1.18,15.75,1.63,18.33-1.8c0.99-1.32-0.29-3.65-1.54-5.38c-10.66-14.72-7-35.54-6.84-36.42
						c0.25-1.36,1.55-2.26,2.91-2.01c1.37,0.24,2.26,1.55,2.02,2.91c-0.03,0.19-3.42,19.61,5.97,32.58
						c4.06,5.61,3.05,9.26,1.48,11.34C849.07,1323.09,833.39,1321.47,829.92,1320.3z"/>
				</g>
				<path class="st16" d="M786.88,1202.4c0,0-11.86-1.8-13.12,1.15c-1.26,2.94,0.89,6.58,17.91,7.37
					c17.02,0.8,27.06,6.13,32.41,13.49c5.35,7.37,9.52-1.24,2.9-7.28C820.35,1211.09,819,1206.72,786.88,1202.4z"/>
				<path class="st16" d="M885.58,1231.25c0,0-11.86-1.8-13.12,1.15c-1.26,2.94,0.89,6.58,17.91,7.37
					c17.02,0.8,27.06,6.13,32.41,13.49s9.52-1.24,2.9-7.28C919.05,1239.94,917.7,1235.57,885.58,1231.25z"/>
				<path class="st17" d="M785.5,1328.1c0,0,40.88,22.33,72.05,19.53c0,0-12.63,30.15-44.89,23.62
					C781.46,1364.93,785.5,1328.1,785.5,1328.1z"/>
				<path class="st12" d="M657.78,1218.29c19.35-14.48,41.78,0.07,41.78,0.07c-0.53-9.05,11.94-54.99,15.47-67.78
					c154.91,51.16,224.8,66.99,256.02,71.35c1.5-6.05,2.83-11.88,4.02-17.33c-11.89-2.05-24.92-4.84-38.28-7.98
					c-46.89-11.12-97.79-26.86-116.63-31.64c-18.63-4.77-51.41-12.04-82.28-19.09c-10.25-2.35-20.32-4.67-29.55-6.89
					c0,0-0.94,2.64-2.45,7.35l-0.02,0c-0.09,0.36-0.2,0.71-0.33,1.09c-3.23,10.37-8.61,29.43-12.59,52.74l-0.02-0.04
					c0,0-11.61-7.84-24.67-6.2c-7.8,0.98-16.15,5.37-22.84,16.9c-15.32,26.44,2.12,60.39,28.78,58.13
					c4.34-0.34,8.92-1.69,13.66-4.16C652.38,1276.3,638.42,1232.8,657.78,1218.29z"/>
			</g>
			<g>
				<g>
					<path class="st27" d="M830.4,1668.81c1.12-2.22,0.23-4.92-1.98-6.04c-2.22-1.12-4.93-0.23-6.05,1.99
						c-1.12,2.22-0.23,4.93,1.99,6.05S829.28,1671.03,830.4,1668.81z"/>
					<path class="st27" d="M837.14,1672.22c1.12-2.22,0.23-4.92-1.99-6.05c-2.22-1.12-4.92-0.23-6.04,1.99
						c-1.12,2.22-0.23,4.93,1.99,6.05C833.31,1675.32,836.02,1674.43,837.14,1672.22z"/>
					<path class="st27" d="M843.88,1675.62c1.12-2.22,0.23-4.92-1.99-6.04c-2.22-1.12-4.92-0.23-6.04,1.98
						c-1.12,2.22-0.23,4.93,1.99,6.05S842.76,1677.84,843.88,1675.62z"/>
					<path class="st27" d="M850.61,1679.02c1.12-2.22,0.23-4.92-1.99-6.04c-2.22-1.12-4.93-0.23-6.05,1.99
						c-1.12,2.22-0.23,4.92,1.99,6.04C846.78,1682.13,849.49,1681.24,850.61,1679.02z"/>
					<path class="st27" d="M857.35,1682.43c1.12-2.22,0.23-4.92-1.99-6.04c-2.22-1.12-4.92-0.23-6.04,1.99
						c-1.12,2.22-0.23,4.92,1.99,6.04C853.52,1685.54,856.23,1684.65,857.35,1682.43z"/>
				</g>
				<path class="st28" d="M901.65,1687.02l-26.15-13.22l-0.16-9.53l-37.2-28.75l3.6-7.13c0,0,37.44-4.58,59.56,4.69
					c17.24,7.22,15.68,23.59,9.98,34.89C905.57,1679.26,901.65,1687.02,901.65,1687.02z"/>
				<path class="st28" d="M905.27,1679.85l-26.15-13.22l-76.88,152.12c-1,1.98-0.21,4.39,1.77,5.4l18.98,9.6
					c1.98,1,4.39,0.21,5.39-1.77L905.27,1679.85z"/>
				<path class="st27" d="M913.17,1643.55l-64.48,127.59l-21.34-2.07l-3.5,6.92l17.03,10.6l-18.57,36.74
					c-2.24,4.43-7.65,6.21-12.08,3.97l8.32,4.2c4.43,2.24,9.84,0.46,12.08-3.97c0,0,72.84-144.12,80.65-159.57
					C919.09,1652.52,913.17,1643.55,913.17,1643.55z"/>
				
					<rect x="763.98" y="1671.3" transform="matrix(0.8925 0.4511 -0.4511 0.8925 889.3328 -161.5181)" class="st13" width="39.07" height="227.29"/>
				<path class="st29" d="M659.36,2030.6L659.36,2030.6c-9.63-4.87-13.49-16.62-8.62-26.24l93.71-185.42l34.87,17.62l-93.71,185.42
					C680.74,2031.6,668.99,2035.46,659.36,2030.6z"/>
				<polygon class="st13" points="817.34,1674.71 852.21,1692.33 886.95,1737.75 865.33,1780.54 777.29,1753.95 				"/>
				
					<rect x="817.49" y="1674.07" transform="matrix(0.8925 0.4511 -0.4511 0.8925 847.4217 -197.134)" class="st28" width="39.51" height="10.1"/>
				
					<rect x="812.59" y="1778.9" transform="matrix(0.8925 0.4511 -0.4511 0.8925 897.4655 -182.9721)" class="st28" width="39.95" height="24.64"/>
				
					<rect x="808.84" y="1794.65" transform="matrix(0.8925 0.4511 -0.4511 0.8925 900.4128 -180.4798)" class="st27" width="39.95" height="7.99"/>
				
					<rect x="835.28" y="1784.3" transform="matrix(0.8925 0.451 -0.451 0.8925 900.8809 -187.2212)" class="st27" width="15.98" height="24.64"/>
				<polygon class="st27" points="838.14,1635.52 841.74,1628.39 884.5,1660.9 885.05,1673.61 866.43,1710.45 860.59,1703.29 
					875.5,1673.8 875.34,1664.27 				"/>
				<polygon class="st14" points="865.33,1780.54 870.43,1770.44 806.09,1750.6 766.04,1829.84 779.32,1836.55 815.27,1765.42 				
					"/>
			</g>
			<path class="st11" d="M670.58,1858.68c0,0,42.24,2.76,50.12,5.22c7.87,2.46,20.75-6.77,52.68-15.59
				c15.47-5.77,46.39,65.26,17.42,88.3c-28.97,23.04-60.57,20.74-79,10.86s-35.61-6.57-59.99-14.25
				C628.88,1926,670.58,1858.68,670.58,1858.68z"/>
		</g>
		<path class="st11" d="M891.07,1881.65l43.57,78.57c2.15,3.86,4.27,7.41,6.43,10.71l0.04,0.01l0.06,0.14
			c17.24,26.27,35.57,34.54,68.75,32.34c0.05-0.03,8.64-1.05,8.64-1.05c13.85-0.9,25.37-4.61,38.36-11.58l236.12-111.88
			c0,0,27.8,21.44,56.35-11.88c50.98-65.92-33.87-128.06-33.87-128.06s-33.71-3.09-41.02,27.34c-7.32,30.47-24.48,34.51-24.48,34.51
			l-187.39,48.7c-9.27,2.44-18.61-3.76-19.97-13.28c-0.27-1.64-0.48-3.35-0.71-5.19c-51.98,1.7-95.12,14.12-120.83,23.56
			c-2.34,0.87-4.55,1.68-6.63,2.52c-12.26,4.74-19.05,8.22-19.05,8.22L891.07,1881.65z"/>
		<path class="st12" d="M891.07,1881.65l50,89.28l0.04,0.01c-1.03-2.41-17.62-41.62-26.51-77.96c-1.74-7.13-1.55-19.89-0.09-35.86
			c-12.26,4.74-19.05,8.22-19.05,8.22L891.07,1881.65z"/>
		<path class="st6" d="M1036.98,1795.62c-21.02-0.75-70.56-0.5-109.56,15.62c-7.21,2.96-14.02,6.5-20.27,10.64l84.94-316.13
			c0,0,14.19,16.33,19.1,81.37C1014.41,1629.62,1027.97,1730.72,1036.98,1795.62z"/>
		<path class="st4" d="M896.26,1864.97c5.02-2.16,18.27-7.93,24.88-10.36c25.71-9.44,68.85-21.85,120.83-23.56
			c1.29-0.03,2.59-0.1,3.93-0.12c3.92-0.08,6.83-3.68,6.14-7.54l-3.79-21.02c-0.68-3.68-3.8-6.42-7.54-6.61
			c-1.11-0.03-2.35-0.07-3.71-0.14c-21.03-0.76-70.56-0.51-109.6,15.63c-4.77,1.95-13.1,5.41-19.58,8.51l-2.18,8.2L896.26,1864.97z"
			/>
		<path class="st8" d="M914.51,1857.13c6.15-67.76,35.11-193.33,35.11-193.33l-54.16,201.55
			C895.46,1865.35,902.26,1861.87,914.51,1857.13z"/>
	</g>
	<path class="st7" d="M1266.71,2063.86v-122.96v-272.19c0-69.1,55.98-125.07,125.07-125.07l0,0h36.87v57.71h-36.87
		c-37.22,0.05-67.3,30.14-67.36,67.36v266.8v5.39v122.96c0.06,37.17,30.14,67.31,67.36,67.36l0,0v57.72
		C1322.69,2188.95,1266.71,2132.96,1266.71,2063.86L1266.71,2063.86z"/>
	<g>
		<path class="st10" d="M1263.06,2085.11c0-19.05,15.47-34.48,34.49-34.48c19.05,0,34.49,15.42,34.49,34.48
			c0,19.05-15.43,34.46-34.49,34.46C1278.53,2119.57,1263.06,2104.16,1263.06,2085.11z"/>
		<path class="st10" d="M1277.42,2085.11c0-11.1,9.02-20.18,20.13-20.18c11.13,0,20.17,9.08,20.17,20.18
			c0,11.14-9.04,20.16-20.17,20.16C1286.43,2105.27,1277.42,2096.25,1277.42,2085.11z"/>
	</g>
	<path class="st11" d="M2669.01,1306.28c0,0-39.55,8.08-51.34,5.34c0,0-43.49,9.6-76.2,0.56c-15.85-5.91-25.29,50.32,4.38,73.92
		c29.67,23.6,62.05,21.24,80.93,11.13s36.86-13.06,61.47-13.86S2669.01,1306.28,2669.01,1306.28z"/>
	<path class="st11" d="M2250.76,1327.82c0,0-26.62,84.98,0,117.35c46.18,18.88,71.83-7.64,73.16-44.06
		S2261.23,1352.1,2250.76,1327.82z"/>
</g>
</svg>
